<svg version="1.1" id="Layer_1" xmlns="http://www.w3.org/2000/svg" xmlns:xlink="http://www.w3.org/1999/xlink" x="0px" y="0px"
	 width="100%" viewBox="0 0 196 196" enable-background="new 0 0 196 196" xml:space="preserve">
<path fill="#FEFFFF" opacity="1.000000" stroke="none" 
	d="
M130.000000,197.000000 
	C86.694000,197.000000 43.887993,197.000000 1.040996,197.000000 
	C1.040996,131.735703 1.040996,66.471382 1.040996,1.103527 
	C66.222488,1.103527 131.445190,1.103527 196.833954,1.103527 
	C196.833954,66.332985 196.833954,131.666458 196.833954,197.000000 
	C174.804993,197.000000 152.652496,197.000000 130.000000,197.000000 
M159.994644,131.999802 
	C159.994644,131.999802 160.018295,131.998871 160.719620,131.904556 
	C161.116684,130.900772 161.513748,129.896973 161.998825,128.979721 
	C161.998825,128.979721 161.891785,128.918396 162.630585,128.864365 
	C164.822540,125.519142 167.365250,122.245201 164.825073,117.203560 
	C164.901184,116.468369 164.977295,115.733185 165.598953,114.446259 
	C165.373123,111.963463 165.147308,109.480675 164.748306,106.383316 
	C164.651688,105.970856 164.555054,105.558403 164.730209,104.400230 
	C164.756241,103.608017 164.782272,102.815811 165.437881,101.542641 
	C166.062225,96.905098 166.291351,92.369530 162.016907,88.496864 
	C162.016907,88.496864 161.995911,88.010956 162.034149,87.168457 
	C161.488342,82.928322 161.759033,78.306282 156.960648,76.015724 
	C156.960648,76.015724 156.897598,76.134491 156.851868,75.643936 
	C156.726868,75.317719 156.502548,75.088875 155.797653,74.791084 
	C155.797653,74.791084 155.398209,74.675201 155.326965,74.096939 
	C155.220535,73.722946 155.114090,73.348953 154.942245,72.546997 
	C154.831665,72.257736 154.630157,72.062225 154.054306,71.595390 
	C154.054306,71.595390 153.905609,71.157822 153.985977,70.428276 
	C153.046906,69.226425 152.107849,68.024567 150.901733,66.439255 
	C150.707581,66.192757 150.486404,65.973534 150.122849,65.189339 
	C150.079575,64.789711 150.036301,64.390091 150.785980,63.969990 
	C151.466629,62.307327 153.129745,60.131695 152.593414,59.104439 
	C151.824173,57.631165 149.556946,56.621094 147.733231,56.102283 
	C145.694305,55.522251 143.731079,56.081806 143.404831,58.965588 
	C143.007385,58.907684 142.609924,58.849777 141.909500,58.145199 
	C140.134323,57.534325 138.359161,56.923450 136.031204,56.255562 
	C135.690826,56.114429 135.350433,55.973297 134.762405,55.278500 
	C134.458405,54.542835 134.154419,53.807171 134.517807,53.031139 
	C135.110565,52.827656 135.703308,52.624172 136.296066,52.420692 
	C135.510651,51.656960 134.830246,50.445564 133.915970,50.231079 
	C132.426025,49.881542 130.438034,50.779438 129.267624,50.101814 
	C125.184853,47.738064 125.170357,50.337608 125.030968,53.707138 
	C125.010139,54.098881 124.989319,54.490623 124.340248,55.053394 
	C123.909035,55.094837 123.477829,55.136276 122.687210,54.615181 
	C121.795731,55.092186 120.904259,55.569187 119.754539,56.254459 
	C119.754539,56.254459 119.423546,56.276947 118.841263,56.214325 
	C118.563583,56.465893 118.285904,56.717464 117.724388,57.195110 
	C117.724388,57.195110 117.368881,57.267776 116.590302,57.105541 
	C113.641869,59.328270 110.693443,61.550999 107.100342,63.975937 
	C103.913910,65.449318 102.298782,71.003387 97.084808,67.074524 
	C95.161896,64.467049 94.509392,60.303299 89.286133,60.926529 
	C88.860313,60.593727 88.434494,60.260925 87.799873,59.465752 
	C87.498993,59.338223 87.198120,59.210690 86.919800,59.065109 
	C86.919800,59.065109 86.901970,59.101906 86.871811,58.368137 
	C86.409798,57.717026 86.085587,56.706955 85.465073,56.468754 
	C76.432396,53.001247 67.330742,51.670227 58.573074,57.073444 
	C54.792213,59.406116 51.546021,62.597076 47.799606,64.996300 
	C44.317245,67.226418 42.900455,70.185989 42.792027,74.743652 
	C34.609497,90.517220 31.374496,107.041740 35.064312,125.497849 
	C35.389015,127.975632 35.713715,130.453415 36.011669,133.717468 
	C37.058582,140.377777 41.140923,143.724716 46.967907,141.946350 
	C52.774788,142.034866 58.581535,142.158691 64.388664,142.180466 
	C65.480515,142.184540 66.740448,142.059540 67.639519,141.521072 
	C73.503120,138.009354 78.364082,133.500778 81.891762,126.948273 
	C83.127121,126.154251 84.849510,125.647392 85.515617,124.517715 
	C88.836433,118.885719 91.817551,113.054657 95.055496,107.371880 
	C96.133278,105.480301 97.619133,103.821243 98.918442,102.055893 
	C100.673737,103.827423 102.837585,105.351723 104.092773,107.425896 
	C106.207993,110.921249 107.550728,114.877701 109.585045,118.430252 
	C111.488953,121.755081 113.868874,124.807335 115.399940,128.308121 
	C110.441925,133.219009 115.539520,139.188416 113.155037,144.596939 
	C120.241341,144.596939 126.787292,144.786942 133.309845,144.479980 
	C135.241150,144.389084 137.106552,142.897842 139.849472,142.032562 
	C141.472641,142.274048 143.103058,142.475052 144.717636,142.764481 
	C150.003387,143.711975 157.277679,139.278183 157.972229,134.343414 
	C158.113586,134.096802 158.320374,133.932602 159.234375,133.714233 
	C159.490280,133.150284 159.746185,132.586319 159.994644,131.999802 
z"/>
<path fill="#DDF5FC" opacity="1.000000" stroke="none" 
	d="
M157.856476,134.729675 
	C157.277679,139.278183 150.003387,143.711975 144.717636,142.764481 
	C143.103058,142.475052 141.472641,142.274048 139.051453,142.029846 
	C135.554413,141.408173 132.331299,141.516983 130.260422,140.025696 
	C125.234711,136.406540 120.744987,132.043106 116.039307,127.979546 
	C113.868874,124.807335 111.488953,121.755081 109.585045,118.430252 
	C107.550728,114.877701 106.207993,110.921249 104.092773,107.425896 
	C102.837585,105.351723 100.673737,103.827423 98.918442,102.055893 
	C97.619133,103.821243 96.133278,105.480301 95.055496,107.371880 
	C91.817551,113.054657 88.836433,118.885719 85.515617,124.517715 
	C84.849510,125.647392 83.127121,126.154251 81.441055,126.953247 
	C80.990356,126.958229 80.766006,126.815872 80.846039,126.477043 
	C86.633415,116.146515 92.340767,106.154816 98.392464,96.154152 
	C101.985329,100.812241 105.233841,105.479286 108.581802,110.500977 
	C110.606934,113.712067 112.532608,116.568497 114.505585,119.768295 
	C116.331436,122.543938 118.109993,124.976212 119.919762,127.689323 
	C120.506256,128.718811 121.061554,129.467468 121.750397,130.495636 
	C122.547783,131.233337 123.211609,131.691528 123.935310,132.084808 
	C123.995178,132.019897 123.856796,132.129501 123.980316,132.425079 
	C124.996170,133.261017 125.888512,133.801376 126.913757,134.317108 
	C127.046677,134.292450 127.316345,134.273193 127.306648,134.318268 
	C127.296951,134.363358 127.241035,134.771393 127.110626,135.071167 
	C135.248413,143.325012 147.472122,143.071136 157.856476,134.729675 
z"/>
<path fill="#FAFDFB" opacity="1.000000" stroke="none" 
	d="
M115.719620,128.143829 
	C120.744987,132.043106 125.234711,136.406540 130.260422,140.025696 
	C132.331299,141.516983 135.554413,141.408173 138.627808,142.037720 
	C137.106552,142.897842 135.241150,144.389084 133.309845,144.479980 
	C126.787292,144.786942 120.241341,144.596939 113.155037,144.596939 
	C115.539520,139.188416 110.441925,133.219009 115.719620,128.143829 
z"/>
<path fill="#3681D0" opacity="1.000000" stroke="none" 
	d="
M35.218418,124.640732 
	C31.374496,107.041740 34.609497,90.517220 43.210068,74.247620 
	C45.698425,71.092773 47.768742,68.433968 49.881767,66.156372 
	C48.290665,69.484146 46.470707,72.345497 45.072372,75.399887 
	C43.491905,78.852089 42.290165,82.477676 40.861389,86.372101 
	C37.150295,92.286369 35.581669,98.404274 35.964123,105.503357 
	C36.301598,112.962486 36.648304,119.956741 36.749603,126.786049 
	C36.075603,125.960976 35.647011,125.300858 35.218418,124.640732 
z"/>
<path fill="#CEF2FD" opacity="1.000000" stroke="none" 
	d="
M35.141365,125.069290 
	C35.647011,125.300858 36.075603,125.960976 36.773529,127.142807 
	C45.453453,143.274887 62.171848,145.770798 74.624947,133.256653 
	C76.716904,131.154434 78.721207,128.964996 80.766006,126.815872 
	C80.766006,126.815872 80.990356,126.958229 81.098251,127.038544 
	C78.364082,133.500778 73.503120,138.009354 67.639519,141.521072 
	C66.740448,142.059540 65.480515,142.184540 64.388664,142.180466 
	C58.581535,142.158691 52.774788,142.034866 46.346901,141.643707 
	C42.496735,138.537796 39.267574,135.734497 36.038414,132.931198 
	C35.713715,130.453415 35.389015,127.975632 35.141365,125.069290 
z"/>
<path fill="#C7EAFC" opacity="1.000000" stroke="none" 
	d="
M49.839050,65.775162 
	C47.768742,68.433968 45.698425,71.092773 43.351997,73.944534 
	C42.900455,70.185989 44.317245,67.226418 47.799606,64.996300 
	C51.546021,62.597076 54.792213,59.406116 58.573074,57.073444 
	C67.330742,51.670227 76.432396,53.001247 85.465073,56.468754 
	C86.085587,56.706955 86.409798,57.717026 86.559540,58.713196 
	C85.615402,58.891342 84.983528,58.724430 84.320877,58.560738 
	C84.290100,58.563957 84.228981,58.561409 84.019897,58.284439 
	C80.949402,57.207474 78.087990,56.407475 75.188034,55.620827 
	C75.149475,55.634178 75.144524,55.715630 74.826630,55.471806 
	C70.280014,56.128860 66.051300,57.029739 61.475220,57.978577 
	C57.364925,60.609413 53.601986,63.192287 49.839050,65.775162 
z"/>
<path fill="#2C83D5" opacity="1.000000" stroke="none" 
	d="
M157.914352,134.536545 
	C147.472122,143.071136 135.248413,143.325012 127.569183,135.141846 
	C129.855560,135.377365 131.882996,135.401978 133.192322,136.384033 
	C138.423615,140.307739 143.573486,141.528061 149.431061,137.042236 
	C152.199554,135.020065 154.606766,133.009750 157.140198,130.740326 
	C157.847900,130.000992 158.429367,129.520767 159.403778,129.140259 
	C160.049622,129.335403 160.302490,129.430801 160.507996,129.842651 
	C160.313187,130.772354 160.165741,131.385620 160.018280,131.998871 
	C160.018295,131.998871 159.994644,131.999802 159.725906,132.140915 
	C159.168976,132.804947 158.880783,133.327881 158.592590,133.850815 
	C158.320374,133.932602 158.113586,134.096802 157.914352,134.536545 
z"/>
<path fill="#1884E8" opacity="1.000000" stroke="none" 
	d="
M155.398209,74.675201 
	C155.398209,74.675201 155.797653,74.791084 155.991730,75.128021 
	C156.423065,75.688141 156.660324,75.911316 156.897598,76.134491 
	C156.897598,76.134491 156.960648,76.015724 156.939880,76.422379 
	C158.329514,80.497108 159.739929,84.165176 161.087555,88.181480 
	C161.349472,89.352539 161.674133,90.175377 161.999405,90.999100 
	C162.000000,91.000000 162.000549,91.002892 161.990036,91.190842 
	C162.024246,91.637466 162.149734,91.847954 162.490265,92.320145 
	C162.683304,93.074997 162.742050,93.519966 162.659790,94.081436 
	C162.668427,94.465584 162.818085,94.733223 163.050812,95.322227 
	C163.218597,96.301262 163.303299,96.958946 163.262360,98.070999 
	C163.133377,100.644234 163.130035,102.763107 163.087738,104.916557 
	C163.048782,104.951141 162.969452,105.018669 162.695282,104.744171 
	C161.562775,99.346642 160.704437,94.223602 159.846085,89.100563 
	C159.670959,89.144691 159.495834,89.188820 159.320709,89.232948 
	C158.983582,91.131500 158.646439,93.030052 158.309311,94.928604 
	C158.051239,94.864433 157.793167,94.800262 157.535095,94.736084 
	C156.640472,88.202957 155.745834,81.669823 154.986649,75.019775 
	C155.122101,74.902863 155.398209,74.675201 155.398209,74.675201 
z"/>
<path fill="#1884E8" opacity="1.000000" stroke="none" 
	d="
M135.010056,55.832169 
	C135.350433,55.973297 135.690826,56.114429 136.468567,56.508018 
	C137.320160,57.106102 137.734406,57.451725 137.708130,57.873093 
	C134.339615,58.166443 130.834900,59.504356 128.608780,58.358444 
	C124.514877,56.251091 121.781471,57.816666 118.537399,59.579285 
	C117.570221,60.104790 116.069244,59.647835 114.981567,59.399803 
	C115.889824,58.528313 116.629356,57.898045 117.368881,57.267776 
	C117.368881,57.267776 117.724388,57.195110 118.148170,57.081417 
	C118.855820,56.737465 119.139679,56.507206 119.423546,56.276947 
	C119.423546,56.276947 119.754539,56.254459 120.213242,56.185158 
	C121.463493,55.803143 122.255058,55.490433 123.046616,55.177719 
	C123.477829,55.136276 123.909035,55.094837 125.080124,55.057922 
	C128.883362,55.319023 131.946701,55.575596 135.010056,55.832169 
z"/>
<path fill="#FEFCF3" opacity="1.000000" stroke="none" 
	d="
M144.006714,58.995522 
	C143.731079,56.081806 145.694305,55.522251 147.733231,56.102283 
	C149.556946,56.621094 151.824173,57.631165 152.593414,59.104439 
	C153.129745,60.131695 151.466629,62.307327 150.335388,63.635918 
	C147.925446,61.866405 145.966080,60.430965 144.006714,58.995522 
z"/>
<path fill="#FBFDF2" opacity="1.000000" stroke="none" 
	d="
M36.025040,133.324341 
	C39.267574,135.734497 42.496735,138.537796 45.880939,141.638535 
	C41.140923,143.724716 37.058582,140.377777 36.025040,133.324341 
z"/>
<path fill="#FCFCF5" opacity="1.000000" stroke="none" 
	d="
M125.066086,53.121258 
	C125.170357,50.337608 125.184853,47.738064 129.267624,50.101814 
	C130.438034,50.779438 132.426025,49.881542 133.915970,50.231079 
	C134.830246,50.445564 135.510651,51.656960 136.296066,52.420692 
	C135.703308,52.624172 135.110565,52.827656 133.752075,53.050888 
	C130.346252,53.087509 127.706169,53.104382 125.066086,53.121258 
z"/>
<path fill="#C7EAFC" opacity="1.000000" stroke="none" 
	d="
M97.293144,67.752289 
	C102.298782,71.003387 103.913910,65.449318 107.537483,63.981976 
	C107.974625,63.988014 108.194244,64.206947 108.033707,64.497604 
	C105.586052,67.503975 103.298950,70.219681 100.853058,72.860214 
	C100.694275,72.785034 100.342911,72.783745 100.235733,72.479523 
	C99.092102,71.105873 98.055649,70.036446 97.009247,68.983818 
	C96.999306,69.000610 97.034187,68.983101 97.035194,68.741501 
	C97.036201,68.499901 96.973732,68.020744 97.052628,67.952499 
	C97.131531,67.884254 97.293144,67.752289 97.293144,67.752289 
z"/>
<path fill="#DDF5FC" opacity="1.000000" stroke="none" 
	d="
M163.388000,97.616623 
	C163.303299,96.958946 163.218597,96.301262 163.078064,95.052185 
	C162.948410,94.295502 162.874603,94.130219 162.800812,93.964943 
	C162.742050,93.519966 162.683304,93.074997 162.572906,92.126266 
	C162.470901,91.312576 162.297333,91.106033 162.000549,91.002892 
	C162.000549,91.002892 162.000000,91.000000 162.043716,90.658707 
	C162.121262,89.862175 162.155090,89.406921 162.188904,88.951675 
	C166.291351,92.369530 166.062225,96.905098 164.916367,101.523010 
	C164.059235,100.207802 163.723618,98.912209 163.388000,97.616623 
z"/>
<path fill="#58A0E2" opacity="1.000000" stroke="none" 
	d="
M165.053406,114.997993 
	C164.977295,115.733185 164.901184,116.468369 164.613281,117.868889 
	C163.564911,121.995613 162.728348,125.457001 161.891785,128.918396 
	C161.891785,128.918396 161.998825,128.979721 161.731461,128.963638 
	C161.464096,128.947556 161.027206,129.058365 160.993347,128.789978 
	C160.936172,128.342865 160.912857,128.164124 160.905151,127.651016 
	C161.653351,122.599777 162.385895,117.882889 163.353256,113.124138 
	C163.890213,112.969223 164.202515,112.917984 164.650726,113.262871 
	C164.868790,114.064125 164.961105,114.531059 165.053406,114.997993 
z"/>
<path fill="#C4EDFD" opacity="1.000000" stroke="none" 
	d="
M143.705780,58.980553 
	C145.966080,60.430965 147.925446,61.866405 149.938919,63.646156 
	C150.036301,64.390091 150.079575,64.789711 150.092682,65.566162 
	C150.062515,65.942993 149.886856,66.104431 149.606201,65.930840 
	C146.830460,63.569019 144.335403,61.380798 141.931961,59.091076 
	C142.023575,58.989578 142.212479,58.791874 142.212479,58.791870 
	C142.609924,58.849777 143.007385,58.907684 143.705780,58.980553 
z"/>
<path fill="#DDF5FC" opacity="1.000000" stroke="none" 
	d="
M161.150330,87.833252 
	C159.739929,84.165176 158.329514,80.497108 156.888763,76.466049 
	C161.759033,78.306282 161.488342,82.928322 161.801102,87.557312 
	C161.568054,87.946159 161.150330,87.833252 161.150330,87.833252 
z"/>
<path fill="#C4EDFD" opacity="1.000000" stroke="none" 
	d="
M116.979591,57.186661 
	C116.629356,57.898045 115.889824,58.528313 114.700012,59.476524 
	C113.828316,60.171963 113.406921,60.549458 112.676910,61.043930 
	C110.976952,62.176250 109.585594,63.191597 108.194244,64.206940 
	C108.194244,64.206947 107.974625,63.988014 107.859818,63.880867 
	C110.693443,61.550999 113.641869,59.328270 116.979591,57.186661 
z"/>
<path fill="#DDF5FC" opacity="1.000000" stroke="none" 
	d="
M162.261185,128.891388 
	C162.728348,125.457001 163.564911,121.995613 164.625854,118.238762 
	C167.365250,122.245201 164.822540,125.519142 162.261185,128.891388 
z"/>
<path fill="#C4EDFD" opacity="1.000000" stroke="none" 
	d="
M125.048523,53.414200 
	C127.706169,53.104382 130.346252,53.087509 133.418365,53.071072 
	C134.154419,53.807171 134.458405,54.542835 134.886230,55.555336 
	C131.946701,55.575596 128.883362,55.319023 125.394257,54.972408 
	C124.989319,54.490623 125.010139,54.098881 125.048523,53.414200 
z"/>
<path fill="#C7EAFC" opacity="1.000000" stroke="none" 
	d="
M89.790932,61.120403 
	C94.509392,60.303299 95.161896,64.467049 97.188980,67.413406 
	C97.293144,67.752289 97.131531,67.884254 96.769394,67.789108 
	C94.760796,66.336906 93.114342,64.979843 91.455734,63.606934 
	C91.443581,63.591087 91.446754,63.550598 91.340073,63.272221 
	C90.752571,62.369362 90.271751,61.744881 89.790932,61.120403 
z"/>
<path fill="#2B70CC" opacity="1.000000" stroke="none" 
	d="
M89.538528,61.023468 
	C90.271751,61.744881 90.752571,62.369362 90.960083,63.371552 
	C88.559113,62.038155 84.124397,63.142170 84.351662,58.557518 
	C84.983528,58.724430 85.615402,58.891342 86.574615,59.080078 
	C86.901970,59.101906 86.919800,59.065109 87.013229,59.306252 
	C87.407333,59.674301 87.708000,59.801212 88.008675,59.928123 
	C88.434494,60.260925 88.860313,60.593727 89.538528,61.023468 
z"/>
<path fill="#1884E8" opacity="1.000000" stroke="none" 
	d="
M164.524963,112.928551 
	C164.202515,112.917984 163.890213,112.969223 163.307999,112.664497 
	C163.008453,109.837372 162.988953,107.428024 162.969452,105.018669 
	C162.969452,105.018669 163.048782,104.951141 163.306686,104.972511 
	C163.853439,105.098030 164.151382,105.148720 164.458435,105.145943 
	C164.555054,105.558403 164.651688,105.970856 164.731628,107.105003 
	C164.651611,109.527313 164.588287,111.227928 164.524963,112.928551 
z"/>
<path fill="#58A0E2" opacity="1.000000" stroke="none" 
	d="
M164.594330,104.773087 
	C164.151382,105.148720 163.853439,105.098030 163.345642,104.937927 
	C163.130035,102.763107 163.133377,100.644234 163.262360,98.070999 
	C163.723618,98.912209 164.059235,100.207802 164.601578,101.763489 
	C164.782272,102.815811 164.756241,103.608017 164.594330,104.773087 
z"/>
<path fill="#C4EDFD" opacity="1.000000" stroke="none" 
	d="
M138.148651,57.797348 
	C137.734406,57.451725 137.320160,57.106102 136.744949,56.536530 
	C138.359161,56.923450 140.134323,57.534325 142.060989,58.468536 
	C142.212479,58.791874 142.023575,58.989578 141.607147,59.011162 
	C140.167664,58.637722 139.144592,58.242702 138.120911,57.832855 
	C138.120285,57.818027 138.148651,57.797348 138.148651,57.797348 
z"/>
<path fill="#1884E8" opacity="1.000000" stroke="none" 
	d="
M155.007660,72.974960 
	C155.114090,73.348953 155.220535,73.722946 155.362579,74.386070 
	C155.398209,74.675201 155.122101,74.902863 154.657318,74.908493 
	C153.498947,73.239517 152.805344,71.564926 152.366333,70.008636 
	C153.049164,70.470566 153.477386,70.814194 153.905609,71.157822 
	C153.905609,71.157822 154.054306,71.595390 154.169617,72.012817 
	C154.416290,72.757103 154.657211,72.938675 155.007660,72.974960 
z"/>
<path fill="#DDF5FC" opacity="1.000000" stroke="none" 
	d="
M164.650711,113.262871 
	C164.588287,111.227928 164.651611,109.527313 164.818207,107.412285 
	C165.147308,109.480675 165.373123,111.963463 165.326172,114.722122 
	C164.961105,114.531059 164.868790,114.064125 164.650711,113.262871 
z"/>
<path fill="#C4EDFD" opacity="1.000000" stroke="none" 
	d="
M153.945801,70.793045 
	C153.477386,70.814194 153.049164,70.470566 152.354935,70.020348 
	C152.088928,69.913757 152.092300,69.925446 152.027557,69.625153 
	C151.560089,68.620323 151.157379,67.915787 150.859268,67.115265 
	C150.963867,67.019264 151.168777,66.822716 151.168777,66.822716 
	C152.107849,68.024567 153.046906,69.226425 153.945801,70.793045 
z"/>
<path fill="#DDF5FC" opacity="1.000000" stroke="none" 
	d="
M161.027206,129.058365 
	C161.027206,129.058365 161.464096,128.947556 161.687454,128.920380 
	C161.513748,129.896973 161.116684,130.900772 160.368958,131.951721 
	C160.165741,131.385620 160.313187,130.772354 160.515747,129.817963 
	C160.570877,129.476807 160.594894,129.430389 160.732666,129.371887 
	C160.870422,129.313370 161.027206,129.058365 161.027206,129.058365 
z"/>
<path fill="#C4EDFD" opacity="1.000000" stroke="none" 
	d="
M122.866913,54.896450 
	C122.255058,55.490433 121.463493,55.803143 120.342361,56.081024 
	C120.904259,55.569187 121.795731,55.092186 122.866913,54.896450 
z"/>
<path fill="#58A0E2" opacity="1.000000" stroke="none" 
	d="
M161.087555,88.181480 
	C161.150330,87.833252 161.568054,87.946159 161.781982,87.978561 
	C161.995911,88.010956 162.016907,88.496864 162.102905,88.724274 
	C162.155090,89.406921 162.121262,89.862175 162.043121,90.657814 
	C161.674133,90.175377 161.349472,89.352539 161.087555,88.181480 
z"/>
<path fill="#DDF5FC" opacity="1.000000" stroke="none" 
	d="
M158.913483,133.782532 
	C158.880783,133.327881 159.168976,132.804947 159.729645,132.152191 
	C159.746185,132.586319 159.490280,133.150284 158.913483,133.782532 
z"/>
<path fill="#C4EDFD" opacity="1.000000" stroke="none" 
	d="
M119.132401,56.245636 
	C119.139679,56.507206 118.855820,56.737465 118.290085,56.968380 
	C118.285904,56.717464 118.563583,56.465893 119.132401,56.245636 
z"/>
<path fill="#DDF5FC" opacity="1.000000" stroke="none" 
	d="
M156.874725,75.889214 
	C156.660324,75.911316 156.423065,75.688141 156.182343,75.211182 
	C156.502548,75.088875 156.726868,75.317719 156.874725,75.889214 
z"/>
<path fill="#C7EAFC" opacity="1.000000" stroke="none" 
	d="
M87.904274,59.696938 
	C87.708000,59.801212 87.407333,59.674301 87.001953,59.315277 
	C87.198120,59.210690 87.498993,59.338223 87.904274,59.696938 
z"/>
<path fill="#C4EDFD" opacity="1.000000" stroke="none" 
	d="
M150.150360,65.862289 
	C150.486404,65.973534 150.707581,66.192757 151.035248,66.630981 
	C151.168777,66.822716 150.963867,67.019264 150.659851,66.978683 
	C150.116455,66.706940 149.960129,66.429047 149.886856,66.104431 
	C149.886856,66.104431 150.062515,65.942993 150.150360,65.862289 
z"/>
<path fill="#C4EDFD" opacity="1.000000" stroke="none" 
	d="
M154.974945,72.760979 
	C154.657211,72.938675 154.416290,72.757103 154.311310,72.195358 
	C154.630157,72.062225 154.831665,72.257736 154.974945,72.760979 
z"/>
<path fill="#0B82F4" opacity="1.000000" stroke="none" 
	d="
M80.846039,126.477043 
	C78.721207,128.964996 76.716904,131.154434 74.624947,133.256653 
	C62.171848,145.770798 45.453453,143.274887 37.018936,127.307755 
	C36.648304,119.956741 36.301598,112.962486 36.289925,105.465286 
	C37.751465,104.975372 38.877968,104.988411 40.159836,105.364258 
	C40.939713,108.758400 41.564236,111.789726 42.474960,116.210251 
	C44.323788,113.515327 45.200123,112.237953 46.324570,111.218048 
	C47.511711,114.614258 44.315960,118.834480 49.028084,120.984886 
	C48.997902,120.991348 49.031929,120.939835 49.005344,121.332878 
	C49.044559,123.921333 49.114815,126.113029 52.134651,125.773697 
	C51.968319,125.847687 52.291687,125.677979 52.244072,126.074005 
	C53.525352,126.946579 54.854244,127.423111 56.547905,127.910309 
	C58.777008,127.530273 60.641346,127.139565 62.873360,126.813148 
	C63.744110,126.464462 64.247177,126.051498 64.716431,125.740494 
	C64.682610,125.842453 64.514694,125.708412 64.888466,125.713623 
	C67.226814,123.532791 69.191391,121.346748 71.479385,119.045364 
	C72.507835,117.547997 73.212868,116.165985 73.961929,114.518280 
	C74.088318,113.903465 74.170670,113.554321 74.449615,113.164658 
	C74.870605,112.968826 75.117706,112.870720 75.769257,112.794769 
	C77.408806,110.478477 78.666618,108.197227 79.959518,105.943207 
	C79.994614,105.970451 79.905853,105.966454 80.183929,105.816208 
	C80.580231,105.271461 80.698456,104.876968 80.836075,104.247330 
	C81.107834,103.626625 81.360199,103.241066 81.988617,102.871254 
	C83.872505,100.213577 85.380333,97.540154 86.916283,94.916840 
	C86.944405,94.966949 86.837852,94.923866 87.153046,94.832283 
	C88.009239,93.849358 88.550240,92.958023 89.308716,91.888092 
	C89.752571,91.200806 89.978943,90.692093 90.523346,90.101822 
	C91.857185,89.673828 92.873001,89.327393 94.241829,89.015366 
	C95.718277,89.380554 96.841713,89.711311 97.968010,90.478226 
	C97.996628,92.663956 98.022369,94.413528 98.048111,96.163109 
	C92.340767,106.154816 86.633415,116.146515 80.846039,126.477043 
M53.582596,133.036667 
	C57.127491,136.139359 58.854202,135.805161 60.915234,130.502228 
	C57.951908,131.206329 55.659470,131.751038 53.582596,133.036667 
z"/>
<path fill="#136BDD" opacity="1.000000" stroke="none" 
	d="
M98.392464,96.154152 
	C98.022369,94.413528 97.996628,92.663956 98.279465,90.338577 
	C100.843681,90.403938 103.099319,91.045090 105.997360,91.868851 
	C105.653221,87.948273 105.347054,84.460258 105.303436,80.949799 
	C105.740952,80.907982 105.915924,80.888603 106.307549,81.068283 
	C107.027748,81.837379 107.531296,82.407417 108.272514,83.211945 
	C111.612335,88.629417 114.714485,93.812416 117.503891,99.058601 
	C116.462059,102.410995 115.732956,105.700203 115.001770,108.994553 
	C114.999695,108.999695 114.989418,109.003868 114.640724,108.999924 
	C112.355476,109.379433 110.418915,109.762878 108.482353,110.146332 
	C105.233841,105.479286 101.985329,100.812241 98.392464,96.154152 
z"/>
<path fill="#0D6FE2" opacity="1.000000" stroke="none" 
	d="
M121.616844,130.216110 
	C121.061554,129.467468 120.506256,128.718811 119.948853,127.285408 
	C118.963249,124.070259 117.979767,121.539856 117.327484,119.004608 
	C118.100250,118.995369 118.541824,118.990974 119.346237,118.984833 
	C120.418434,118.534790 121.127785,118.086494 121.837135,117.638199 
	C121.223297,117.089943 120.609459,116.541687 119.996109,115.620506 
	C119.995331,114.501717 119.994057,113.755859 120.222610,112.837082 
	C119.964592,112.112198 119.476753,111.560219 118.645157,110.973831 
	C117.203934,110.628143 116.106476,110.316856 115.004593,109.755142 
	C114.996582,109.337761 114.992996,109.170815 114.989418,109.003868 
	C114.989418,109.003868 114.999695,108.999695 115.387054,108.988419 
	C116.515198,108.176842 117.279366,107.396660 117.990234,106.570610 
	C118.710175,105.734009 119.377403,104.852043 120.204979,104.316742 
	C123.956390,109.986168 127.570549,115.328796 131.141647,120.992012 
	C131.091370,121.528084 131.084137,121.743568 130.744568,122.011406 
	C130.073624,122.804321 129.735046,123.544876 129.396469,124.285446 
	C130.279999,124.171638 131.163513,124.057838 132.328888,124.092987 
	C133.110977,125.129097 133.611221,126.016266 133.750793,126.933823 
	C132.732346,127.204796 132.074585,127.445381 130.459061,128.036285 
	C132.803909,128.793991 134.155472,129.230728 135.507034,129.667480 
	C133.810303,130.815384 131.991730,130.521790 130.544952,131.122986 
	C129.255112,131.658951 128.376465,133.184402 127.316345,134.273193 
	C127.316345,134.273193 127.046677,134.292450 126.869110,133.871033 
	C125.746635,133.009583 124.801712,132.569534 123.856796,132.129501 
	C123.856796,132.129501 123.995178,132.019897 123.914032,131.725983 
	C123.094208,131.026733 122.355522,130.621429 121.616844,130.216110 
z"/>
<path fill="#0378F3" opacity="1.000000" stroke="none" 
	d="
M127.306648,134.318268 
	C128.376465,133.184402 129.255112,131.658951 130.544952,131.122986 
	C131.991730,130.521790 133.810303,130.815384 135.507034,129.667480 
	C134.155472,129.230728 132.803909,128.793991 130.459061,128.036285 
	C132.074585,127.445381 132.732346,127.204796 134.123108,126.998962 
	C139.412506,129.579376 144.121841,129.548645 149.170731,128.167328 
	C150.941193,128.643326 152.469986,128.821060 153.998901,129.248810 
	C153.998947,129.665497 153.998856,129.832184 153.804077,130.271576 
	C152.279984,131.430389 150.647766,132.082153 149.720978,133.279816 
	C149.030762,134.171768 149.253586,135.770264 149.069794,137.054092 
	C143.573486,141.528061 138.423615,140.307739 133.192322,136.384033 
	C131.882996,135.401978 129.855560,135.377365 127.699600,134.842056 
	C127.241035,134.771393 127.296951,134.363358 127.306648,134.318268 
z"/>
<path fill="#0E6AD3" opacity="1.000000" stroke="none" 
	d="
M114.640724,108.999924 
	C114.992996,109.170815 114.996582,109.337761 114.999611,110.203720 
	C115.012016,113.589233 115.024979,116.275734 114.894119,119.079285 
	C114.750305,119.196342 114.458275,119.424934 114.458282,119.424927 
	C112.532608,116.568497 110.606934,113.712067 108.581802,110.500984 
	C110.418915,109.762878 112.355476,109.379433 114.640724,108.999924 
z"/>
<path fill="#0E6AD3" opacity="1.000000" stroke="none" 
	d="
M116.996284,119.009460 
	C117.979767,121.539856 118.963249,124.070259 119.917648,127.004570 
	C118.109993,124.976212 116.331436,122.543938 114.505577,119.768303 
	C114.458275,119.424934 114.750305,119.196342 115.220070,119.091843 
	C116.125320,118.994713 116.560799,119.002083 116.996284,119.009460 
z"/>
<path fill="#2C83D5" opacity="1.000000" stroke="none" 
	d="
M123.980316,132.425079 
	C124.801712,132.569534 125.746635,133.009583 126.736198,133.895691 
	C125.888512,133.801376 124.996170,133.261017 123.980316,132.425079 
z"/>
<path fill="#2C83D5" opacity="1.000000" stroke="none" 
	d="
M121.750397,130.495636 
	C122.355522,130.621429 123.094208,131.026733 123.854164,131.790894 
	C123.211609,131.691528 122.547783,131.233337 121.750397,130.495636 
z"/>
<path fill="#0465DF" opacity="1.000000" stroke="none" 
	d="
M105.040878,80.972252 
	C105.347054,84.460258 105.653221,87.948273 105.997360,91.868851 
	C103.099319,91.045090 100.843681,90.403938 98.276596,89.902420 
	C96.841713,89.711311 95.718277,89.380554 94.270752,88.625748 
	C93.019493,86.447212 92.092323,84.692719 91.044785,82.796829 
	C90.924408,82.655426 90.819191,82.298912 90.870399,81.914734 
	C89.344345,74.934814 84.743881,70.989159 78.670303,69.207748 
	C76.071808,68.445595 72.994415,64.583580 69.644226,68.878304 
	C68.908760,69.040611 68.479736,69.095253 67.845055,68.868065 
	C66.094398,69.104935 64.549400,69.623627 62.688347,70.254547 
	C58.726574,73.055649 55.212418,75.838722 54.647449,81.077301 
	C54.240116,81.798668 54.032967,82.319344 53.561047,83.064651 
	C51.550842,86.227333 49.805412,89.165382 47.909515,91.790939 
	C45.480610,89.661591 43.202168,87.844727 40.923729,86.027870 
	C42.290165,82.477676 43.491905,78.852089 45.072372,75.399887 
	C46.470707,72.345497 48.290665,69.484146 49.881767,66.156372 
	C53.601986,63.192287 57.364925,60.609413 61.890259,57.985672 
	C66.816612,57.201748 70.980568,56.458691 75.144524,55.715630 
	C75.144524,55.715630 75.149475,55.634178 75.304955,55.979530 
	C78.383286,57.070393 81.306129,57.815903 84.228981,58.561409 
	C84.228981,58.561409 84.290100,58.563957 84.320877,58.560738 
	C84.124397,63.142170 88.559113,62.038155 91.066765,63.649933 
	C91.446754,63.550598 91.443581,63.591087 91.344955,63.981342 
	C92.506927,66.748024 93.307655,69.701645 97.034187,68.983101 
	C97.034187,68.983101 96.999306,69.000610 96.997253,69.365730 
	C98.111099,70.748482 99.227005,71.766113 100.342911,72.783745 
	C100.342911,72.783745 100.694275,72.785034 100.898087,73.205826 
	C102.414894,76.075165 103.727882,78.523705 105.040878,80.972252 
z"/>
<path fill="#0371ED" opacity="1.000000" stroke="none" 
	d="
M40.861389,86.372101 
	C43.202168,87.844727 45.480610,89.661591 47.905045,92.209091 
	C48.022892,94.633598 47.994751,96.327454 47.577003,98.026108 
	C46.475544,99.703003 45.763699,101.375084 45.026077,103.023735 
	C45.000305,103.000305 45.052780,103.048210 44.701340,103.082420 
	C42.901428,103.744904 41.452950,104.373177 40.004475,105.001442 
	C38.877968,104.988411 37.751465,104.975372 36.299156,105.000412 
	C35.581669,98.404274 37.150295,92.286369 40.861389,86.372101 
z"/>
<path fill="#2B70CC" opacity="1.000000" stroke="none" 
	d="
M74.826630,55.471806 
	C70.980568,56.458691 66.816612,57.201748 62.237617,57.937714 
	C66.051300,57.029739 70.280014,56.128860 74.826630,55.471806 
z"/>
<path fill="#2B70CC" opacity="1.000000" stroke="none" 
	d="
M84.019897,58.284443 
	C81.306129,57.815903 78.383286,57.070393 75.343506,55.966179 
	C78.087990,56.407475 80.949402,57.207474 84.019897,58.284443 
z"/>
<path fill="#0481F9" opacity="1.000000" stroke="none" 
	d="
M153.998779,128.998779 
	C152.469986,128.821060 150.941193,128.643326 149.246109,127.831741 
	C155.349487,120.508621 154.691086,112.158821 153.997971,104.131706 
	C153.233734,95.281067 150.061600,86.927338 146.765686,78.693954 
	C143.738434,71.131653 133.575836,63.901859 126.120224,64.026657 
	C119.581291,64.136108 115.712494,68.425240 111.687332,72.836472 
	C110.401733,70.854103 109.445419,69.030594 108.242737,66.737320 
	C110.769745,66.157516 112.146584,65.841606 113.562531,65.516716 
	C113.350060,63.826607 113.167793,62.376781 112.985519,60.926952 
	C113.406921,60.549458 113.828316,60.171963 114.531281,59.717743 
	C116.069244,59.647835 117.570221,60.104790 118.537399,59.579285 
	C121.781471,57.816666 124.514877,56.251091 128.608780,58.358444 
	C130.834900,59.504356 134.339615,58.166443 137.708130,57.873093 
	C138.148651,57.797348 138.120285,57.818027 138.107239,58.199348 
	C140.702255,61.117378 143.612030,63.419868 145.821594,66.265953 
	C147.545670,68.486702 148.659744,70.952965 152.092300,69.925446 
	C152.092300,69.925446 152.088928,69.913757 152.100342,69.902046 
	C152.805344,71.564926 153.498947,73.239517 154.521881,75.025406 
	C155.745834,81.669823 156.640472,88.202957 157.535095,94.736084 
	C157.793167,94.800262 158.051239,94.864433 158.309311,94.928604 
	C158.646439,93.030052 158.983582,91.131500 159.320709,89.232948 
	C159.495834,89.188820 159.670959,89.144691 159.846085,89.100563 
	C160.704437,94.223602 161.562775,99.346642 162.695297,104.744171 
	C162.988953,107.428024 163.008453,109.837372 163.073196,112.706367 
	C162.385895,117.882889 161.653351,122.599777 160.705109,127.846481 
	C160.524567,128.727676 160.559723,129.079025 160.594894,129.430389 
	C160.594894,129.430389 160.570877,129.476807 160.563126,129.501495 
	C160.302490,129.430801 160.049622,129.335403 159.250549,128.781235 
	C158.704346,124.725983 158.704346,121.129501 158.704346,117.533020 
	C158.153595,117.479156 157.602844,117.425285 157.052094,117.371422 
	C156.034317,121.247208 155.016541,125.122993 153.998779,128.998779 
z"/>
<path fill="#0282F3" opacity="1.000000" stroke="none" 
	d="
M153.998901,129.248795 
	C155.016541,125.122993 156.034317,121.247208 157.052094,117.371422 
	C157.602844,117.425285 158.153595,117.479156 158.704346,117.533020 
	C158.704346,121.129501 158.704346,124.725983 158.857590,128.681488 
	C158.429367,129.520767 157.847900,130.000992 156.818970,130.717346 
	C155.580582,130.635269 154.789688,130.317062 153.998779,129.998856 
	C153.998856,129.832184 153.998947,129.665497 153.998901,129.248795 
z"/>
<path fill="#0280FB" opacity="1.000000" stroke="none" 
	d="
M153.804077,130.271576 
	C154.789688,130.317062 155.580582,130.635269 156.692719,130.976456 
	C154.606766,133.009750 152.199554,135.020065 149.431061,137.042236 
	C149.253586,135.770264 149.030762,134.171768 149.720978,133.279816 
	C150.647766,132.082153 152.279984,131.430389 153.804077,130.271576 
z"/>
<path fill="#58A0E2" opacity="1.000000" stroke="none" 
	d="
M162.659790,94.081436 
	C162.874603,94.130219 162.948410,94.295502 162.994980,94.730820 
	C162.818085,94.733223 162.668427,94.465584 162.659790,94.081436 
z"/>
<path fill="#58A0E2" opacity="1.000000" stroke="none" 
	d="
M161.990036,91.190842 
	C162.297333,91.106033 162.470901,91.312576 162.438614,91.816391 
	C162.149734,91.847954 162.024246,91.637466 161.990036,91.190842 
z"/>
<path fill="#1884E8" opacity="1.000000" stroke="none" 
	d="
M112.676918,61.043930 
	C113.167793,62.376781 113.350060,63.826607 113.562531,65.516716 
	C112.146584,65.841606 110.769745,66.157516 108.242737,66.737320 
	C109.445419,69.030594 110.401733,70.854103 112.032318,72.882141 
	C112.934792,73.129112 113.163002,73.171547 113.300789,73.498291 
	C112.791672,74.173065 112.372978,74.563522 111.869751,74.812614 
	C111.785202,74.671249 111.380066,74.556412 111.380066,74.556412 
	C111.380066,74.556412 111.088692,74.912636 110.778511,75.082062 
	C110.096893,76.278145 109.725456,77.304802 109.226013,78.288597 
	C109.098000,78.245735 109.359077,78.345711 109.023956,78.267647 
	C107.822845,79.082794 106.956863,79.976013 106.090889,80.869232 
	C105.915924,80.888603 105.740952,80.907982 105.303436,80.949799 
	C103.727882,78.523705 102.414894,76.075165 101.056870,73.281006 
	C103.298950,70.219681 105.586052,67.503975 108.033707,64.497604 
	C109.585594,63.191597 110.976952,62.176250 112.676918,61.043930 
z"/>
<path fill="#2B70CC" opacity="1.000000" stroke="none" 
	d="
M97.035194,68.741501 
	C93.307655,69.701645 92.506927,66.748024 91.357101,63.997189 
	C93.114342,64.979843 94.760796,66.336906 96.690491,67.857361 
	C96.973732,68.020744 97.036201,68.499901 97.035194,68.741501 
z"/>
<path fill="#2B70CC" opacity="1.000000" stroke="none" 
	d="
M100.235733,72.479523 
	C99.227005,71.766113 98.111099,70.748482 97.007195,69.348938 
	C98.055649,70.036446 99.092102,71.105873 100.235733,72.479523 
z"/>
<path fill="#2C83D5" opacity="1.000000" stroke="none" 
	d="
M160.732666,129.371887 
	C160.559723,129.079025 160.524567,128.727676 160.689468,128.180847 
	C160.912857,128.164124 160.936172,128.342865 160.993347,128.789978 
	C161.027206,129.058365 160.870422,129.313370 160.732666,129.371887 
z"/>
<path fill="#1884E8" opacity="1.000000" stroke="none" 
	d="
M152.027557,69.625153 
	C148.659744,70.952965 147.545670,68.486702 145.821594,66.265953 
	C143.612030,63.419868 140.702255,61.117378 138.107849,58.214176 
	C139.144592,58.242702 140.167664,58.637722 141.515533,59.112656 
	C144.335403,61.380798 146.830460,63.569019 149.606201,65.930840 
	C149.960129,66.429047 150.116455,66.706940 150.555252,67.074677 
	C151.157379,67.915787 151.560089,68.620323 152.027557,69.625153 
z"/>
<path fill="#D4F3FD" opacity="1.000000" stroke="none" 
	d="
M62.505680,126.748856 
	C60.641346,127.139565 58.777008,127.530273 56.393105,127.610428 
	C54.679588,126.759239 53.485638,126.218613 52.291687,125.677979 
	C52.291687,125.677979 51.968319,125.847687 52.052246,125.463776 
	C51.101425,123.699860 50.066677,122.319847 49.031929,120.939835 
	C49.031929,120.939835 48.997902,120.991348 49.023201,120.559433 
	C48.973717,114.721733 48.898937,109.315948 49.136925,104.183304 
	C49.624249,107.305672 49.798813,110.154884 49.980122,113.400345 
	C50.535324,121.355415 57.376488,125.756256 64.276108,125.092735 
	C64.354614,125.298355 64.514694,125.708412 64.514694,125.708412 
	C64.514694,125.708412 64.682610,125.842453 64.391296,125.748505 
	C63.568554,126.019318 63.037117,126.384087 62.505680,126.748856 
z"/>
<path fill="#2C7CD2" opacity="1.000000" stroke="none" 
	d="
M48.824162,103.910164 
	C48.898937,109.315948 48.973717,114.721733 49.053383,120.552971 
	C44.315960,118.834480 47.511711,114.614258 46.313793,110.807556 
	C45.720860,107.775787 45.386818,105.412003 45.052780,103.048210 
	C45.052780,103.048210 45.000305,103.000305 45.333534,103.000877 
	C46.433384,101.341400 47.199997,99.681358 47.966614,98.021309 
	C47.994751,96.327454 48.022892,94.633598 48.055504,92.521591 
	C49.805412,89.165382 51.550842,86.227333 53.662895,83.157227 
	C54.029510,83.025177 54.232571,83.211037 54.185043,83.572159 
	C53.354458,86.233536 52.571404,88.533791 51.784531,90.879845 
	C51.780708,90.925652 51.821613,90.843903 51.579597,91.032639 
	C51.239277,91.816788 51.140972,92.412201 50.948799,93.170914 
	C50.854935,93.334206 50.861252,93.710861 50.617695,93.967926 
	C50.264374,95.149872 50.154610,96.074745 49.900890,97.223724 
	C49.725758,97.796432 49.694576,98.145050 49.457565,98.758766 
	C49.205757,99.680695 49.159782,100.337524 49.033100,101.353569 
	C48.909649,102.445244 48.866905,103.177704 48.824162,103.910164 
z"/>
<path fill="#D4F3FD" opacity="1.000000" stroke="none" 
	d="
M75.387512,112.829811 
	C75.117706,112.870720 74.870605,112.968826 74.337036,113.077408 
	C74.027855,113.030670 73.802101,112.857918 73.864891,112.474815 
	C74.297997,110.078880 74.668312,108.066040 75.338303,105.892708 
	C77.111313,103.830353 78.584641,101.928505 80.325111,99.826141 
	C82.665710,97.357941 84.739159,95.090240 86.909561,92.913315 
	C87.006508,93.004097 87.200783,93.185257 87.140999,93.476761 
	C87.000092,94.153458 86.918968,94.538666 86.837845,94.923866 
	C86.837852,94.923866 86.944405,94.966949 86.619675,95.079704 
	C84.734154,97.746811 83.173355,100.301155 81.612564,102.855499 
	C81.360199,103.241066 81.107834,103.626625 80.574936,104.419769 
	C80.164879,105.207054 80.035370,105.586754 79.905853,105.966454 
	C79.905853,105.966454 79.994614,105.970451 79.654282,106.094475 
	C78.005142,108.422272 76.696327,110.626045 75.387512,112.829811 
z"/>
<path fill="#017CF0" opacity="1.000000" stroke="none" 
	d="
M44.701340,103.082420 
	C45.386818,105.412003 45.720860,107.775787 46.065681,110.550079 
	C45.200123,112.237953 44.323788,113.515327 42.474960,116.210251 
	C41.564236,111.789726 40.939713,108.758400 40.159836,105.364258 
	C41.452950,104.373177 42.901428,103.744904 44.701340,103.082420 
z"/>
<path fill="#0185F0" opacity="1.000000" stroke="none" 
	d="
M53.474815,132.666199 
	C55.659470,131.751038 57.951908,131.206329 60.915234,130.502228 
	C58.854202,135.805161 57.127491,136.139359 53.474815,132.666199 
z"/>
<path fill="#3280D8" opacity="1.000000" stroke="none" 
	d="
M91.165161,82.938225 
	C92.092323,84.692719 93.019493,86.447212 93.917732,88.591324 
	C92.873001,89.327393 91.857185,89.673828 90.452606,90.040634 
	C90.063828,90.061005 89.923088,89.937759 90.003571,89.600296 
	C90.444427,87.154633 90.804794,85.046432 91.165161,82.938225 
z"/>
<path fill="#3280D8" opacity="1.000000" stroke="none" 
	d="
M81.988625,102.871254 
	C83.173355,100.301155 84.734154,97.746811 86.591553,95.029587 
	C85.380333,97.540154 83.872505,100.213577 81.988625,102.871254 
z"/>
<path fill="#3280D8" opacity="1.000000" stroke="none" 
	d="
M64.888466,125.713623 
	C64.514694,125.708412 64.354614,125.298355 64.539978,124.955063 
	C64.828117,124.443207 64.930885,124.274628 65.279480,124.015015 
	C65.675797,123.616814 65.826294,123.309647 65.990707,123.003677 
	C66.004631,123.004890 66.001793,122.977081 66.243301,122.907852 
	C66.647354,122.557266 66.809891,122.275902 66.987587,121.998734 
	C67.002739,122.002930 66.994659,121.972542 67.245758,121.910072 
	C67.692879,121.584686 67.888901,121.321762 68.038666,121.045837 
	C67.992424,121.032837 68.076302,121.081383 68.363708,120.991592 
	C69.372177,120.215378 70.093246,119.528946 70.900787,118.920929 
	C70.987259,118.999352 71.155975,119.160713 71.155975,119.160706 
	C69.191391,121.346748 67.226814,123.532791 64.888466,125.713623 
z"/>
<path fill="#3280D8" opacity="1.000000" stroke="none" 
	d="
M75.769257,112.794769 
	C76.696327,110.626045 78.005142,108.422272 79.619194,106.067230 
	C78.666618,108.197227 77.408806,110.478477 75.769257,112.794769 
z"/>
<path fill="#2C7CD2" opacity="1.000000" stroke="none" 
	d="
M49.005341,121.332878 
	C50.066677,122.319847 51.101425,123.699860 52.218578,125.389786 
	C49.114815,126.113029 49.044559,123.921333 49.005341,121.332878 
z"/>
<path fill="#2C7CD2" opacity="1.000000" stroke="none" 
	d="
M52.244072,126.074005 
	C53.485638,126.218613 54.679588,126.759239 56.028336,127.599754 
	C54.854244,127.423111 53.525352,126.946579 52.244072,126.074005 
z"/>
<path fill="#3280D8" opacity="1.000000" stroke="none" 
	d="
M73.917900,114.783966 
	C73.212868,116.165985 72.507835,117.547997 71.479385,119.045364 
	C71.155975,119.160713 70.987259,118.999352 70.972717,118.631729 
	C71.068085,117.883720 71.178001,117.503326 71.476295,117.004288 
	C71.885338,116.667084 72.010681,116.403244 72.280273,115.986465 
	C72.638779,115.562752 72.757706,115.246689 72.918953,114.924423 
	C72.961281,114.918228 72.931961,114.837852 73.178360,114.822754 
	C73.424751,114.807663 73.917900,114.783966 73.917900,114.783966 
z"/>
<path fill="#3280D8" opacity="1.000000" stroke="none" 
	d="
M87.153046,94.832283 
	C86.918968,94.538666 87.000092,94.153458 87.357849,93.327789 
	C88.008690,92.523491 88.382889,92.159668 88.840042,91.864273 
	C88.922997,91.932701 89.091240,92.066681 89.091240,92.066681 
	C88.550240,92.958023 88.009239,93.849358 87.153046,94.832283 
z"/>
<path fill="#3280D8" opacity="1.000000" stroke="none" 
	d="
M62.873360,126.813141 
	C63.037117,126.384087 63.568554,126.019318 64.425125,125.646538 
	C64.247177,126.051498 63.744110,126.464462 62.873360,126.813141 
z"/>
<path fill="#3280D8" opacity="1.000000" stroke="none" 
	d="
M90.134567,90.122192 
	C89.978943,90.692093 89.752571,91.200806 89.308716,91.888092 
	C89.091240,92.066681 88.922997,91.932701 88.904907,91.586601 
	C89.232246,90.806252 89.577667,90.372002 89.923088,89.937759 
	C89.923088,89.937759 90.063828,90.061005 90.134567,90.122192 
z"/>
<path fill="#D4F3FD" opacity="1.000000" stroke="none" 
	d="
M73.961929,114.518280 
	C73.917900,114.783966 73.424751,114.807663 73.191391,114.541397 
	C73.239388,113.802727 73.520744,113.330322 73.802101,112.857918 
	C73.802101,112.857918 74.027855,113.030670 74.140442,113.117928 
	C74.170670,113.554321 74.088318,113.903465 73.961929,114.518280 
z"/>
<path fill="#3280D8" opacity="1.000000" stroke="none" 
	d="
M80.183929,105.816208 
	C80.035370,105.586754 80.164879,105.207054 80.555534,104.654907 
	C80.698456,104.876968 80.580231,105.271461 80.183929,105.816208 
z"/>
<path fill="#F6FBFC" opacity="1.000000" stroke="none" 
	d="
M111.954300,74.953979 
	C112.372978,74.563522 112.791672,74.173065 113.530792,73.473190 
	C114.121498,73.009712 114.409065,72.901711 115.080276,72.923828 
	C118.563004,75.924240 120.888618,75.043060 121.675682,71.176193 
	C122.643990,66.418884 125.716019,67.840256 128.410477,68.551178 
	C129.908005,68.946289 131.110413,70.450356 132.608246,70.858307 
	C133.285751,71.042824 134.358810,69.774948 135.478912,69.250992 
	C135.705414,69.335983 136.010437,69.711594 136.142670,70.015411 
	C136.667801,70.485748 137.060699,70.652260 137.611542,70.859955 
	C137.769501,70.901131 137.955063,71.169724 137.964691,71.532684 
	C140.346573,74.917328 142.718826,77.939011 145.360718,81.186813 
	C150.529800,91.338356 152.206711,101.931068 152.004471,112.876541 
	C151.907318,118.135498 151.436111,123.526497 145.908615,126.113220 
	C140.361282,128.709229 136.438553,125.396973 132.886108,121.587944 
	C132.783691,121.478134 132.582779,121.460197 132.400757,121.383560 
	C132.373734,121.367683 132.315933,121.343460 132.195465,121.143829 
	C131.798737,120.786423 131.501984,120.695496 131.184708,120.671425 
	C127.570549,115.328796 123.956390,109.986168 120.186996,103.969917 
	C119.293381,101.862679 118.555000,100.429047 117.816628,98.995422 
	C114.714485,93.812416 111.612335,88.629417 108.300583,82.858612 
	C108.513680,80.962440 108.936378,79.654076 109.359085,78.345711 
	C109.359077,78.345711 109.098000,78.245735 109.505936,78.189056 
	C110.309532,77.469772 110.705193,76.807167 111.324432,76.012177 
	C111.683434,75.571198 111.818863,75.262589 111.954300,74.953979 
z"/>
<path fill="#0E6AD3" opacity="1.000000" stroke="none" 
	d="
M117.503891,99.058601 
	C118.555000,100.429047 119.293381,101.862679 120.049744,103.643127 
	C119.377403,104.852043 118.710175,105.734009 117.990234,106.570610 
	C117.279366,107.396660 116.515198,108.176842 115.389137,108.983284 
	C115.732956,105.700203 116.462059,102.410995 117.503891,99.058601 
z"/>
<path fill="#2D85DB" opacity="1.000000" stroke="none" 
	d="
M109.023956,78.267647 
	C108.936378,79.654076 108.513680,80.962440 108.062904,82.624130 
	C107.531296,82.407417 107.027748,81.837379 106.307549,81.068283 
	C106.956863,79.976013 107.822845,79.082794 109.023956,78.267647 
z"/>
<path fill="#2D85DB" opacity="1.000000" stroke="none" 
	d="
M136.010437,69.711594 
	C136.010437,69.711594 135.705414,69.335983 135.332352,68.968353 
	C126.751404,64.195229 121.379364,65.320045 114.713928,72.839752 
	C114.409065,72.901711 114.121498,73.009712 113.621216,73.188873 
	C113.163002,73.171547 112.934792,73.129112 112.361588,73.041016 
	C115.712494,68.425240 119.581291,64.136108 126.120224,64.026657 
	C133.575836,63.901859 143.738434,71.131653 146.765686,78.693954 
	C150.061600,86.927338 153.233734,95.281067 153.997971,104.131706 
	C154.691086,112.158821 155.349487,120.508621 149.004440,127.533470 
	C144.121841,129.548645 139.412506,129.579376 134.483780,126.968582 
	C133.611221,126.016266 133.110977,125.129097 132.341217,123.663689 
	C132.190384,122.523445 132.309097,121.961433 132.427795,121.399429 
	C132.582779,121.460197 132.783691,121.478134 132.886108,121.587944 
	C136.438553,125.396973 140.361282,128.709229 145.908615,126.113220 
	C151.436111,123.526497 151.907318,118.135498 152.004471,112.876541 
	C152.206711,101.931068 150.529800,91.338356 145.320679,80.834099 
	C142.659027,77.226738 140.307053,74.198227 137.955063,71.169724 
	C137.955063,71.169724 137.769501,70.901131 137.450073,70.582443 
	C136.757248,70.079704 136.383850,69.895645 136.010437,69.711594 
z"/>
<path fill="#1368E6" opacity="1.000000" stroke="none" 
	d="
M117.327484,119.004608 
	C116.560799,119.002083 116.125320,118.994713 115.363892,118.974785 
	C115.024979,116.275734 115.012016,113.589233 115.004036,110.454147 
	C116.106476,110.316856 117.203934,110.628143 118.668961,111.270920 
	C119.355286,112.071609 119.674034,112.540802 119.992783,113.010002 
	C119.994057,113.755859 119.995331,114.501717 119.870819,115.915176 
	C119.491158,117.384048 119.237282,118.185310 118.983398,118.986572 
	C118.541824,118.990974 118.100250,118.995369 117.327484,119.004608 
z"/>
<path fill="#0E6AD3" opacity="1.000000" stroke="none" 
	d="
M119.346245,118.984833 
	C119.237282,118.185310 119.491158,117.384048 119.870331,116.288109 
	C120.609459,116.541687 121.223297,117.089943 121.837135,117.638199 
	C121.127785,118.086494 120.418434,118.534790 119.346245,118.984833 
z"/>
<path fill="#0378F3" opacity="1.000000" stroke="none" 
	d="
M132.400757,121.383560 
	C132.309097,121.961433 132.190384,122.523445 132.059357,123.514740 
	C131.163513,124.057838 130.279999,124.171638 129.396469,124.285446 
	C129.735046,123.544876 130.073624,122.804321 131.081116,121.912613 
	C131.938660,121.622124 132.127289,121.482796 132.315933,121.343460 
	C132.315933,121.343460 132.373734,121.367683 132.400757,121.383560 
z"/>
<path fill="#0E6AD3" opacity="1.000000" stroke="none" 
	d="
M120.222610,112.837082 
	C119.674034,112.540802 119.355286,112.071609 119.012726,111.305328 
	C119.476753,111.560219 119.964592,112.112198 120.222610,112.837082 
z"/>
<path fill="#2D85DB" opacity="1.000000" stroke="none" 
	d="
M132.195465,121.143829 
	C132.127289,121.482796 131.938660,121.622124 131.413467,121.860252 
	C131.084137,121.743568 131.091370,121.528084 131.141647,120.992012 
	C131.501984,120.695496 131.798737,120.786423 132.195465,121.143829 
z"/>
<path fill="#D9F0FB" opacity="1.000000" stroke="none" 
	d="
M68.050720,69.149902 
	C68.479736,69.095253 68.908760,69.040611 70.044548,68.985512 
	C78.768669,69.097748 83.772980,73.951141 87.668610,79.985062 
	C85.682808,78.969917 83.650124,78.270180 82.521095,76.851357 
	C78.561371,71.875259 73.245575,71.575592 67.679596,72.100121 
	C66.537117,72.207794 64.577217,73.226318 64.537361,73.914398 
	C64.250519,78.866203 60.474777,78.474953 57.330078,78.732040 
	C59.238495,76.221848 61.098991,74.035294 63.271820,71.758385 
	C65.073013,70.828651 66.561867,69.989281 68.050720,69.149902 
z"/>
<path fill="#3280D8" opacity="1.000000" stroke="none" 
	d="
M88.036102,79.970718 
	C83.772980,73.951141 78.768669,69.097748 70.350998,68.877846 
	C72.994415,64.583580 76.071808,68.445595 78.670303,69.207748 
	C84.743881,70.989159 89.344345,74.934814 90.648529,81.902893 
	C90.375450,82.275238 89.931084,82.280891 89.933830,82.196579 
	C89.936577,82.112274 89.778648,82.052925 89.760925,81.814896 
	C89.595161,81.262589 89.349869,81.076439 89.006844,81.008476 
	C89.006363,80.998528 88.986610,80.998253 88.925407,80.745285 
	C88.583786,80.315819 88.303368,80.139328 88.014771,79.973816 
	C88.006584,79.984802 88.036102,79.970718 88.036102,79.970718 
z"/>
<path fill="#2C7CD2" opacity="1.000000" stroke="none" 
	d="
M62.959488,71.848747 
	C61.098991,74.035294 59.238495,76.221848 57.188087,78.888901 
	C56.998177,79.369415 56.902607,79.781723 56.669247,79.913086 
	C56.312248,80.371262 56.188610,80.698059 56.034081,81.014450 
	C56.003189,81.004051 56.033703,81.061661 55.827885,81.083076 
	C55.622066,81.104492 55.223465,81.215836 55.130444,81.129990 
	C55.037422,81.044144 54.847630,80.876617 54.847630,80.876617 
	C55.212418,75.838722 58.726574,73.055649 62.686516,70.537376 
	C62.986996,71.088242 62.973240,71.468498 62.959488,71.848747 
z"/>
<path fill="#D4F3FD" opacity="1.000000" stroke="none" 
	d="
M89.931084,82.280891 
	C89.931084,82.280891 90.375450,82.275238 90.597321,82.287079 
	C90.819191,82.298912 90.924408,82.655426 91.044785,82.796829 
	C90.804794,85.046432 90.444427,87.154633 90.003571,89.600296 
	C89.577667,90.372002 89.232246,90.806252 88.821960,91.518173 
	C88.382889,92.159668 88.008690,92.523491 87.417633,93.036285 
	C87.200783,93.185257 87.006508,93.004097 86.969940,92.522720 
	C87.932610,88.787857 88.931847,85.534378 89.931084,82.280891 
z"/>
<path fill="#3280D8" opacity="1.000000" stroke="none" 
	d="
M63.271820,71.758385 
	C62.973240,71.468498 62.986996,71.088242 63.002579,70.425156 
	C64.549400,69.623627 66.094398,69.104935 67.845055,68.868073 
	C66.561867,69.989281 65.073013,70.828651 63.271820,71.758385 
z"/>
<path fill="#2C7CD2" opacity="1.000000" stroke="none" 
	d="
M53.927666,82.932602 
	C54.032967,82.319344 54.240116,81.798668 54.647449,81.077301 
	C54.847630,80.876617 55.037422,81.044144 55.070850,81.413208 
	C55.039265,82.162064 54.974251,82.541847 54.739998,82.993805 
	C54.570755,83.065979 54.232571,83.211037 54.232571,83.211037 
	C54.232571,83.211037 54.029510,83.025177 53.927666,82.932602 
z"/>
<path fill="#017CF0" opacity="1.000000" stroke="none" 
	d="
M47.577000,98.026108 
	C47.199997,99.681358 46.433384,101.341400 45.359310,103.024307 
	C45.763699,101.375084 46.475544,99.703003 47.577000,98.026108 
z"/>
<path fill="#2D85DB" opacity="1.000000" stroke="none" 
	d="
M111.100861,76.144562 
	C110.705193,76.807167 110.309532,77.469772 109.633942,78.231918 
	C109.725456,77.304802 110.096893,76.278145 110.789085,75.390457 
	C111.106850,75.734474 111.103859,75.939522 111.100861,76.144562 
z"/>
<path fill="#0481F9" opacity="1.000000" stroke="none" 
	d="
M111.324432,76.012177 
	C111.103859,75.939522 111.106850,75.734474 111.099266,75.221039 
	C111.088692,74.912636 111.380066,74.556412 111.380066,74.556412 
	C111.380066,74.556412 111.785202,74.671249 111.869751,74.812614 
	C111.818863,75.262589 111.683434,75.571198 111.324432,76.012177 
z"/>
<path fill="#FEFEFD" opacity="1.000000" stroke="none" 
	d="
M89.933830,82.196579 
	C88.931847,85.534378 87.932610,88.787857 86.872993,92.431938 
	C84.739159,95.090240 82.665710,97.357941 79.963173,99.849258 
	C77.260010,99.399437 75.185928,98.725983 72.351761,97.805740 
	C70.869186,99.912971 68.777130,102.886482 66.685074,105.859993 
	C67.205368,106.294388 67.725655,106.728783 68.245941,107.163177 
	C69.692528,105.831223 71.139107,104.499260 72.888275,102.888702 
	C73.625031,103.972931 74.331833,105.013069 75.038628,106.053207 
	C74.668312,108.066040 74.297997,110.078880 73.864891,112.474815 
	C73.520744,113.330322 73.239388,113.802727 72.944992,114.556496 
	C72.931961,114.837852 72.961281,114.918228 72.678665,114.932671 
	C72.396042,114.947113 71.916710,114.989128 71.499680,114.992439 
	C66.155022,116.477486 67.795578,111.081161 65.461571,109.163589 
	C65.111320,111.282578 64.849518,112.866501 64.497467,114.996452 
	C62.556213,114.996452 60.735279,115.223602 58.994778,114.946167 
	C55.961529,114.462669 52.977840,113.668213 49.973377,113.004105 
	C49.798813,110.154884 49.624249,107.305672 49.136925,104.183304 
	C48.866905,103.177704 48.909649,102.445244 49.272408,101.107208 
	C49.616077,99.832306 49.639736,99.162987 49.663399,98.493668 
	C49.694576,98.145050 49.725758,97.796432 50.139072,97.226395 
	C50.521210,97.004974 50.997715,96.997482 51.441185,96.998215 
	C54.420021,96.998955 56.955387,96.998955 60.120625,96.998955 
	C58.111229,93.071655 56.556889,90.033745 55.000130,86.662888 
	C55.014191,85.886314 55.030670,85.442696 55.362236,84.954193 
	C55.821068,83.952858 55.964821,82.996407 56.091644,81.795242 
	C56.074715,81.550537 56.033703,81.061661 56.033703,81.061661 
	C56.033703,81.061661 56.003189,81.004051 56.265507,80.879425 
	C56.652752,80.430435 56.777679,80.106079 56.902611,79.781723 
	C56.902607,79.781723 56.998177,79.369415 57.140167,79.212547 
	C60.474777,78.474953 64.250519,78.866203 64.537361,73.914398 
	C64.577217,73.226318 66.537117,72.207794 67.679596,72.100121 
	C73.245575,71.575592 78.561371,71.875259 82.521095,76.851357 
	C83.650124,78.270180 85.682808,78.969917 87.668610,79.985062 
	C88.036102,79.970718 88.006584,79.984802 88.093964,80.211143 
	C88.376770,80.729218 88.645195,80.916145 88.986610,80.998253 
	C88.986610,80.998253 89.006363,80.998528 89.067337,81.225372 
	C89.269623,81.734146 89.486404,81.934387 89.778648,82.052925 
	C89.778648,82.052925 89.936577,82.112274 89.933830,82.196579 
z"/>
<path fill="#FCFDF8" opacity="1.000000" stroke="none" 
	d="
M49.980122,113.400345 
	C52.977840,113.668213 55.961529,114.462669 58.994778,114.946167 
	C60.735279,115.223602 62.556213,114.996452 64.497467,114.996452 
	C64.849518,112.866501 65.111320,111.282578 65.461571,109.163589 
	C67.795578,111.081161 66.155022,116.477486 71.524353,115.269516 
	C71.990952,115.726906 72.015823,115.910515 72.040695,116.094124 
	C72.010681,116.403244 71.885338,116.667084 71.094452,116.994278 
	C69.708252,118.429062 68.892281,119.755226 68.076302,121.081383 
	C68.076302,121.081383 67.992424,121.032837 67.791603,121.106476 
	C67.392075,121.444260 67.193367,121.708397 66.994659,121.972542 
	C66.994659,121.972542 67.002739,122.002930 66.761581,122.089760 
	C66.236076,122.371185 66.063194,122.638016 66.001793,122.977081 
	C66.001793,122.977081 66.004631,123.004890 65.754684,123.109077 
	C65.347710,123.510864 65.190689,123.808456 65.033661,124.106049 
	C64.930885,124.274628 64.828117,124.443207 64.461472,124.749451 
	C57.376488,125.756256 50.535324,121.355415 49.980122,113.400345 
z"/>
<path fill="#FBFCFA" opacity="1.000000" stroke="none" 
	d="
M55.002548,86.995834 
	C56.556889,90.033745 58.111229,93.071655 60.120625,96.998955 
	C56.955387,96.998955 54.420021,96.998955 51.444778,96.587769 
	C50.957024,95.354668 50.909138,94.532768 50.861252,93.710861 
	C50.861252,93.710861 50.854935,93.334206 51.194000,92.979073 
	C51.629250,92.030594 51.725433,91.437248 51.821617,90.843903 
	C51.821613,90.843903 51.780708,90.925652 52.134403,90.892097 
	C53.326248,89.570976 54.164398,88.283401 55.002548,86.995834 
z"/>
<path fill="#D4F3FD" opacity="1.000000" stroke="none" 
	d="
M55.000130,86.662888 
	C54.164398,88.283401 53.326248,89.570976 52.138222,90.846291 
	C52.571404,88.533791 53.354458,86.233536 54.185043,83.572159 
	C54.232571,83.211037 54.570755,83.065979 54.810814,83.050186 
	C55.050873,83.034386 55.194088,83.144325 55.145988,83.451012 
	C55.080975,84.171486 55.064064,84.585281 55.047153,84.999069 
	C55.030670,85.442696 55.014191,85.886314 55.000130,86.662888 
z"/>
<path fill="#D4F3FD" opacity="1.000000" stroke="none" 
	d="
M50.617695,93.967926 
	C50.909138,94.532768 50.957024,95.354668 51.001312,96.587029 
	C50.997715,96.997482 50.521210,97.004974 50.283028,97.002304 
	C50.154610,96.074745 50.264374,95.149872 50.617695,93.967926 
z"/>
<path fill="#D4F3FD" opacity="1.000000" stroke="none" 
	d="
M51.579597,91.032639 
	C51.725433,91.437248 51.629250,92.030594 51.287868,92.815781 
	C51.140972,92.412201 51.239277,91.816788 51.579597,91.032639 
z"/>
<path fill="#D4F3FD" opacity="1.000000" stroke="none" 
	d="
M49.457565,98.758766 
	C49.639736,99.162987 49.616077,99.832306 49.353111,100.747986 
	C49.159782,100.337524 49.205757,99.680695 49.457565,98.758766 
z"/>
<path fill="#FCFEF9" opacity="1.000000" stroke="none" 
	d="
M75.338303,105.892708 
	C74.331833,105.013069 73.625031,103.972931 72.888275,102.888702 
	C71.139107,104.499260 69.692528,105.831223 68.245941,107.163177 
	C67.725655,106.728783 67.205368,106.294388 66.685074,105.859993 
	C68.777130,102.886482 70.869186,99.912971 72.351761,97.805740 
	C75.185928,98.725983 77.260010,99.399437 79.696030,100.049767 
	C78.584641,101.928505 77.111313,103.830353 75.338303,105.892708 
z"/>
<path fill="#D4F3FD" opacity="1.000000" stroke="none" 
	d="
M68.363708,120.991592 
	C68.892281,119.755226 69.708252,118.429062 70.906067,117.112923 
	C71.178001,117.503326 71.068085,117.883720 70.886246,118.553314 
	C70.093246,119.528946 69.372177,120.215378 68.363708,120.991592 
z"/>
<path fill="#D4F3FD" opacity="1.000000" stroke="none" 
	d="
M65.279480,124.015015 
	C65.190689,123.808456 65.347710,123.510864 65.740753,123.107864 
	C65.826294,123.309647 65.675797,123.616814 65.279480,124.015015 
z"/>
<path fill="#D4F3FD" opacity="1.000000" stroke="none" 
	d="
M66.243301,122.907852 
	C66.063194,122.638016 66.236076,122.371185 66.746429,122.085564 
	C66.809891,122.275902 66.647354,122.557266 66.243301,122.907852 
z"/>
<path fill="#D4F3FD" opacity="1.000000" stroke="none" 
	d="
M67.245758,121.910072 
	C67.193367,121.708397 67.392075,121.444260 67.837845,121.119476 
	C67.888901,121.321762 67.692879,121.584686 67.245758,121.910072 
z"/>
<path fill="#D4F3FD" opacity="1.000000" stroke="none" 
	d="
M72.280273,115.986465 
	C72.015823,115.910515 71.990952,115.726906 71.941391,115.266205 
	C71.916710,114.989128 72.396042,114.947113 72.636337,114.938873 
	C72.757706,115.246689 72.638779,115.562752 72.280273,115.986465 
z"/>
<path fill="#D8F2F9" opacity="1.000000" stroke="none" 
	d="
M115.080276,72.923828 
	C121.379364,65.320045 126.751404,64.195229 135.105850,68.883354 
	C134.358810,69.774948 133.285751,71.042824 132.608246,70.858307 
	C131.110413,70.450356 129.908005,68.946289 128.410477,68.551178 
	C125.716019,67.840256 122.643990,66.418884 121.675682,71.176193 
	C120.888618,75.043060 118.563004,75.924240 115.080276,72.923828 
z"/>
<path fill="#D8F2F9" opacity="1.000000" stroke="none" 
	d="
M137.964691,71.532684 
	C140.307053,74.198227 142.659027,77.226738 145.051041,80.607971 
	C142.718826,77.939011 140.346573,74.917328 137.964691,71.532684 
z"/>
<path fill="#D8F2F9" opacity="1.000000" stroke="none" 
	d="
M136.142670,70.015411 
	C136.383850,69.895645 136.757248,70.079704 137.292130,70.541267 
	C137.060699,70.652260 136.667801,70.485748 136.142670,70.015411 
z"/>
<path fill="#D9F0FB" opacity="1.000000" stroke="none" 
	d="
M88.925407,80.745285 
	C88.645195,80.916145 88.376770,80.729218 88.102142,80.200157 
	C88.303368,80.139328 88.583786,80.315819 88.925407,80.745285 
z"/>
<path fill="#D4F3FD" opacity="1.000000" stroke="none" 
	d="
M89.760925,81.814896 
	C89.486404,81.934387 89.269623,81.734146 89.067818,81.235321 
	C89.349869,81.076439 89.595161,81.262589 89.760925,81.814896 
z"/>
<path fill="#D4F3FD" opacity="1.000000" stroke="none" 
	d="
M55.827885,81.083076 
	C56.033703,81.061661 56.074715,81.550537 55.962204,81.997711 
	C55.656780,82.702042 55.438244,82.935188 55.194088,83.144325 
	C55.194088,83.144325 55.050873,83.034386 54.980057,82.978012 
	C54.974251,82.541847 55.039265,82.162064 55.163872,81.499054 
	C55.223465,81.215836 55.622066,81.104492 55.827885,81.083076 
z"/>
<path fill="#D9F0FB" opacity="1.000000" stroke="none" 
	d="
M56.669250,79.913086 
	C56.777679,80.106079 56.652752,80.430435 56.296398,80.889824 
	C56.188610,80.698059 56.312248,80.371262 56.669250,79.913086 
z"/>
<path fill="#FBFCFA" opacity="1.000000" stroke="none" 
	d="
M55.145988,83.451012 
	C55.438244,82.935188 55.656780,82.702042 55.979134,82.242416 
	C55.964821,82.996407 55.821068,83.952858 55.362236,84.954193 
	C55.064064,84.585281 55.080975,84.171486 55.145988,83.451012 
z"/>
</svg>