<svg version="1.1" id="Layer_1" xmlns="http://www.w3.org/2000/svg" xmlns:xlink="http://www.w3.org/1999/xlink" x="0px" y="0px"
	 width="100%" viewBox="0 0 1024 1024" enable-background="new 0 0 1024 1024" xml:space="preserve">
<path fill="#000000" opacity="1.000000" stroke="none" 
	d="
M463.468658,1025.000000 
	C456.460632,1023.376343 449.739349,1023.893066 443.123352,1023.610962 
	C406.196228,1022.036499 369.421112,1018.675659 332.762634,1014.178101 
	C280.535950,1007.770447 228.646896,999.352112 178.975479,981.194153 
	C142.186493,967.745544 106.475296,951.739441 72.318695,932.449707 
	C64.181129,927.854004 56.488453,922.553772 49.743275,916.018311 
	C42.326401,908.832031 41.686352,904.524231 47.241005,895.840881 
	C56.975208,880.623840 68.979240,867.157898 80.964317,853.760986 
	C121.432892,808.525085 159.565842,761.441956 195.062393,712.195618 
	C214.250519,685.574768 233.985214,659.347107 253.573547,633.016602 
	C256.117340,629.597290 257.293945,626.954102 255.004593,622.448364 
	C250.510284,613.603088 253.278976,604.510559 256.505920,595.843933 
	C261.764832,581.720032 270.455872,569.731018 280.665131,558.828613 
	C310.460876,527.009827 337.613464,493.151367 361.033234,456.318481 
	C368.825012,444.064117 377.723602,432.545868 389.282074,423.492035 
	C409.872009,407.363831 443.538483,404.571747 466.866577,424.858002 
	C474.915375,431.857330 483.513641,438.163818 491.928802,444.708954 
	C522.803711,468.722839 557.148254,461.096252 581.958374,442.664398 
	C591.859070,435.309052 601.522583,427.649292 612.865906,422.505371 
	C638.838989,410.727112 663.682190,417.272858 680.237183,440.402863 
	C682.851501,444.055542 685.323975,447.829193 687.602478,451.699738 
	C709.574768,489.025970 731.354065,526.467468 755.379150,562.539856 
	C772.966431,588.946228 792.210266,614.013489 814.543518,636.631470 
	C825.162109,647.385376 830.394775,660.285339 829.317200,675.504761 
	C828.872559,681.785522 827.229370,687.737366 822.594421,692.269836 
	C820.129578,694.680237 820.315063,696.382202 822.307556,699.008057 
	C852.319580,738.560913 882.241333,778.182190 912.167419,817.800232 
	C934.261230,847.049316 956.347961,876.303772 978.399109,905.584900 
	C984.444214,913.612000 983.944885,917.368774 976.119629,924.102295 
	C964.478943,934.119080 950.761719,940.651245 936.969116,946.934631 
	C907.188110,960.501648 875.796509,969.508606 844.553162,978.866455 
	C809.976624,989.222595 775.096191,998.436035 739.716553,1005.683044 
	C716.395020,1010.460022 692.806152,1013.476257 669.188904,1016.202087 
	C649.532532,1018.470764 629.834656,1020.496826 610.106628,1021.989624 
	C594.013306,1023.207336 577.847839,1023.469910 561.715271,1024.175537 
	C559.058105,1024.291748 556.405334,1024.508911 553.375244,1024.839722 
	C523.312439,1025.000000 493.624878,1025.000000 463.468658,1025.000000 
M405.810303,434.302032 
	C394.429382,441.018982 386.419037,451.119843 379.432373,461.889404 
	C354.892853,499.715546 327.870453,535.568848 296.777710,568.287720 
	C286.136047,579.485901 276.782806,591.546082 272.217773,606.639587 
	C271.208008,609.978271 269.831665,613.799316 272.840088,616.468201 
	C276.015717,619.285522 279.476837,616.763672 282.582275,615.341370 
	C284.379791,614.518005 286.029022,613.309692 287.621887,612.111084 
	C296.145905,605.696533 302.908051,597.808838 307.637360,588.191589 
	C310.886871,581.583618 314.671387,575.302979 320.242126,570.335999 
	C327.545654,563.824036 337.320801,563.098145 343.903381,568.918396 
	C352.565735,576.577576 356.015320,586.298523 353.681885,597.707764 
	C351.153534,610.069641 343.417542,619.136780 334.252045,627.190491 
	C323.246277,636.861145 311.486877,645.695557 301.487274,656.481689 
	C295.927429,662.478821 290.383057,668.574707 288.047699,676.683594 
	C286.200043,683.099060 287.790314,689.084473 292.212067,693.833374 
	C296.389923,698.320374 301.943817,697.192993 307.215942,695.845703 
	C310.536407,694.997131 313.181671,692.906250 315.762878,690.807312 
	C332.152100,677.480469 345.888855,661.622559 359.018280,645.204895 
	C371.726196,629.314270 381.782104,611.525696 394.402985,595.569519 
	C401.033417,587.186951 407.822052,578.951843 417.238464,573.450195 
	C429.727570,566.153320 443.101410,570.905090 446.955963,584.066956 
	C448.422150,589.073547 448.640656,594.171814 447.842865,599.388000 
	C445.435913,615.125122 438.497559,628.908203 429.092896,641.384766 
	C410.993317,665.396362 390.005829,686.817139 368.267883,707.518250 
	C349.328735,725.554016 328.726349,741.780945 310.446869,760.523926 
	C303.471527,767.676147 296.632111,775.075134 293.325562,784.820435 
	C291.343506,790.662109 294.238983,795.059082 300.392426,795.769470 
	C304.372894,796.229065 308.336700,795.991028 312.248077,794.809387 
	C325.156128,790.909607 335.847717,783.323669 345.794434,774.586731 
	C374.782166,749.124756 400.360382,720.349976 426.078796,691.712036 
	C438.990417,677.334717 450.809723,661.983948 464.497681,648.306519 
	C472.562439,640.248047 481.136932,632.509888 492.772949,630.344727 
	C509.491791,627.233704 523.759827,632.478699 526.497131,651.874817 
	C527.607910,659.745667 527.745422,667.736084 530.103455,675.465881 
	C533.084351,685.237610 538.822083,688.919189 548.789185,687.158569 
	C557.617249,685.599182 563.905273,680.457458 568.862244,673.459534 
	C576.837341,662.200745 582.409607,649.824036 585.712769,636.396667 
	C588.133240,626.557556 590.066650,616.535217 595.489685,607.695496 
	C603.659363,594.378723 621.671936,592.585205 632.242249,604.051941 
	C636.036011,608.167480 638.409729,613.128052 640.756042,618.100403 
	C662.933167,665.098083 685.609924,711.853882 708.761902,758.378418 
	C717.011292,774.955872 726.129333,791.050293 737.232788,805.906433 
	C744.185364,815.208801 753.396179,819.880737 765.374268,818.710876 
	C778.250793,817.453247 782.731201,811.593933 780.079956,798.998474 
	C777.434570,786.431030 771.987061,775.008789 765.456543,764.148926 
	C746.751648,733.043457 726.271301,703.015686 710.042175,670.415527 
	C695.971313,642.150879 683.610413,613.328552 677.137695,582.275879 
	C675.495972,574.399475 674.688354,566.503174 677.703247,558.675354 
	C682.582642,546.006531 695.034241,542.124146 706.065369,549.903259 
	C709.920776,552.622192 713.049866,556.061829 715.976868,559.712524 
	C727.722473,574.362305 736.205933,591.018860 745.265503,607.320862 
	C756.103882,626.823608 765.947449,646.911133 779.241760,664.968567 
	C783.957397,671.373779 789.510803,676.816345 796.839722,680.135254 
	C800.728516,681.896423 805.167236,683.258545 808.623596,680.095825 
	C811.823425,677.167908 812.022949,672.679993 811.305237,668.436035 
	C810.047607,660.999756 806.795166,654.592102 801.443909,649.204590 
	C786.032288,633.688721 771.938049,617.020447 759.025452,599.394409 
	C733.095337,563.999084 710.570984,526.406860 688.186523,488.731567 
	C680.785889,476.275513 674.151550,463.355804 665.819031,451.462677 
	C654.377502,435.132019 640.189880,431.006592 621.818237,438.593018 
	C615.145264,441.348572 609.163696,445.275848 603.390564,449.541046 
	C592.548950,457.550812 582.107239,466.152344 569.165222,470.835663 
	C541.602966,480.809631 514.954712,481.391479 489.335815,464.668396 
	C477.433777,456.899170 466.258850,448.293854 455.435181,439.151276 
	C440.301514,426.368256 423.818481,425.992401 405.810303,434.302032 
z"/>
<path fill="#000000" opacity="1.000000" stroke="none" 
	d="
M723.531616,0.999987 
	C726.089905,2.020212 728.296814,2.855316 730.250488,4.090933 
	C742.309814,11.718007 742.590332,29.680935 731.000732,40.389996 
	C727.181030,43.919487 722.608276,45.845173 717.779236,47.100910 
	C665.670105,60.651283 628.612671,93.765999 599.802246,137.643250 
	C597.513367,141.129166 595.547485,144.777802 594.101990,148.720169 
	C593.482178,150.410660 592.563232,152.085953 591.420776,153.471909 
	C588.497620,157.018234 584.945862,159.206009 580.071533,157.660309 
	C575.096252,156.082550 572.785339,152.379517 572.762024,147.483261 
	C572.713989,137.380295 574.927917,127.523109 578.857483,118.374832 
	C601.358704,65.990868 637.138306,26.601089 691.078613,5.372909 
	C695.087219,3.795324 699.294128,2.721614 703.704407,1.206825 
	C710.354431,1.000000 716.708801,1.000000 723.531616,0.999987 
z"/>
<path fill="#000000" opacity="1.000000" stroke="none" 
	d="
M551.785278,304.009827 
	C561.549255,271.085510 573.936523,239.698761 591.933228,210.795410 
	C615.745178,172.552673 648.419128,144.896103 693.025391,135.842545 
	C740.026245,126.302925 782.638977,136.531967 816.462341,173.226364 
	C822.580933,179.864410 828.646667,186.505020 832.325500,194.883743 
	C835.516113,202.150558 837.462280,209.586823 835.518372,217.652496 
	C832.443848,230.408951 821.035522,237.485107 808.263123,234.595001 
	C800.109009,232.749908 793.687683,228.230637 788.135803,222.286377 
	C785.753357,219.735596 783.550476,216.990723 781.487854,214.171692 
	C757.630432,181.565033 721.768738,175.078232 687.149536,188.267578 
	C665.134338,196.654999 648.545410,212.166992 634.098450,230.229874 
	C604.128479,267.700989 586.763977,310.902740 576.301758,357.273071 
	C571.801636,377.218414 569.263611,397.511261 565.231323,417.533051 
	C563.454712,426.354431 560.353943,429.823578 554.282959,430.583923 
	C545.078247,431.736755 539.046326,426.803314 538.689636,417.487762 
	C538.147522,403.329956 538.629333,389.167542 539.915344,375.076141 
	C541.575439,356.886566 543.531067,338.709534 547.655457,320.861511 
	C548.926880,315.359528 550.348328,309.892212 551.785278,304.009827 
z"/>
<path fill="#000000" opacity="1.000000" stroke="none" 
	d="
M378.169312,188.826035 
	C347.552368,176.988876 322.113098,184.665359 300.584381,207.955673 
	C294.191833,214.871292 287.063232,220.847641 278.399292,224.687546 
	C263.297546,231.380661 248.550125,225.420105 245.168991,211.067810 
	C243.063492,202.130386 245.800034,193.961319 250.727844,186.448853 
	C256.588806,177.513763 264.565979,170.753067 273.179901,164.654480 
	C291.916687,151.389023 312.298950,141.890808 335.167419,138.597595 
	C376.545959,132.638763 411.300842,145.559769 439.394928,176.297592 
	C460.110413,198.962494 472.754883,226.267731 483.340576,254.659317 
	C497.156158,291.713776 505.713257,330.119568 512.356201,368.991791 
	C515.066040,384.848724 518.601807,400.630096 518.305786,416.859528 
	C518.164612,424.601013 514.346680,429.087860 507.035400,430.531067 
	C501.137451,431.695282 495.877350,428.570679 492.855957,422.049835 
	C492.369690,421.000427 492.014008,419.877045 491.714050,418.756775 
	C486.039642,397.566650 480.523315,376.332977 474.690582,355.186615 
	C464.764648,319.200623 453.391418,283.742554 435.605957,250.680878 
	C428.891449,238.199219 421.962708,225.895203 412.817810,214.947205 
	C403.360809,203.625580 392.234711,194.624878 378.169312,188.826035 
z"/>
<path fill="#000000" opacity="1.000000" stroke="none" 
	d="
M710.822510,280.599670 
	C769.999695,266.666260 824.897156,285.418823 859.167419,339.041351 
	C864.688293,347.679901 868.296692,357.101624 868.367981,367.643280 
	C868.430603,376.885071 865.307556,384.274841 856.924866,388.812714 
	C848.079285,393.601196 839.358093,393.165833 830.938416,387.689789 
	C825.800903,384.348389 822.099060,379.636047 818.898254,374.513397 
	C815.192871,368.583099 811.512329,362.635925 807.914734,356.639893 
	C795.292725,335.603241 776.026367,324.747131 752.518555,320.317871 
	C729.069214,315.899628 707.387817,321.563995 686.297485,331.456909 
	C661.463928,343.105591 643.394348,361.999878 628.458984,384.378510 
	C623.745850,391.440460 619.214233,398.624146 614.459351,405.657349 
	C611.891724,409.455261 608.374756,411.630737 603.510132,411.409302 
	C598.123840,411.164093 595.195557,408.639252 594.703003,403.247406 
	C594.194702,397.682922 595.096436,392.277924 596.923828,387.044464 
	C615.245544,334.573212 649.495605,298.324982 703.650208,282.394226 
	C705.879517,281.738373 708.155640,281.241791 710.822510,280.599670 
z"/>
<path fill="#000000" opacity="1.000000" stroke="none" 
	d="
M350.186188,340.897400 
	C326.638306,337.146179 305.013245,340.969574 285.608643,354.472046 
	C270.467377,365.007965 261.742950,380.121613 256.434082,397.432465 
	C255.213120,401.413757 254.063690,405.404907 252.010544,409.066315 
	C246.249741,419.339630 236.933792,423.589508 225.528442,421.128662 
	C216.078110,419.089600 210.051514,411.224823 208.667007,400.043579 
	C205.978378,378.330444 215.371658,360.721100 228.017258,344.642303 
	C247.542694,319.815857 273.981750,306.334167 304.665100,300.719910 
	C350.130920,292.400818 387.791168,307.455139 419.620361,339.563568 
	C428.912659,348.937378 437.136505,359.193787 444.015503,370.474243 
	C447.846313,376.756134 451.013489,383.303986 451.527435,390.870239 
	C452.161377,400.202972 445.416107,405.158447 436.722504,401.598267 
	C433.060272,400.098511 430.399109,397.412415 427.935059,394.410797 
	C413.342682,376.635040 396.973816,360.908813 376.370575,350.132446 
	C368.218384,345.868500 359.652283,342.744934 350.186188,340.897400 
z"/>
<path fill="#000000" opacity="1.000000" stroke="none" 
	d="
M399.476746,92.564682 
	C390.031738,84.364227 384.130554,74.781914 386.464752,62.193008 
	C389.012299,48.453667 402.459961,40.013660 416.325439,42.016041 
	C429.752716,43.955135 439.349731,51.951290 448.338257,60.985340 
	C470.149109,82.906754 484.921356,109.038834 493.966522,138.500702 
	C495.632324,143.926590 496.735504,149.457825 496.317871,155.193573 
	C495.908081,160.821609 491.931519,163.860916 486.371216,162.729797 
	C481.450134,161.728729 477.456635,158.999176 474.050415,155.511139 
	C468.004547,149.320023 461.929016,143.133240 456.266357,136.597641 
	C444.035980,122.481949 430.022614,110.647728 413.566528,101.737358 
	C408.736603,99.122154 404.068085,96.220810 399.476746,92.564682 
z"/>
<path fill="#000000" opacity="1.000000" stroke="none" 
	d="
M167.287430,302.268158 
	C158.347137,312.133179 153.323410,324.164825 145.861008,334.586090 
	C140.104797,342.624695 133.454788,349.305786 123.300568,351.588318 
	C108.562363,354.901184 96.385948,344.221252 97.294250,329.075165 
	C98.002892,317.258636 103.285782,307.710846 110.871895,299.240997 
	C129.736313,278.179016 151.937180,261.849640 178.801208,252.345322 
	C184.003448,250.504791 189.340790,249.213943 194.942474,249.720413 
	C201.697876,250.331207 205.224228,255.381744 203.649994,261.978241 
	C202.348511,267.431793 199.031097,271.509186 194.967010,275.078522 
	C185.322342,283.549133 175.822250,292.162170 167.287430,302.268158 
z"/>
<path fill="#000000" opacity="1.000000" stroke="none" 
	d="
M208.196198,488.292297 
	C211.439117,483.584106 214.630707,479.307007 219.513123,476.740265 
	C223.385178,474.704681 227.515778,473.753113 231.349564,476.411407 
	C235.090469,479.005341 234.618256,483.054352 233.738846,486.886108 
	C227.226273,515.262939 224.757248,543.976807 226.218338,573.056702 
	C226.628174,581.213501 226.098679,589.369202 224.184753,597.345886 
	C222.008499,606.415955 216.796036,611.151855 208.215958,612.179321 
	C199.678040,613.201782 191.721283,609.160767 187.570160,601.942566 
	C183.664474,595.151184 182.898499,587.598145 183.251648,580.191650 
	C184.635086,551.177734 191.598984,523.416687 203.416504,496.889771 
	C204.697083,494.015259 206.458252,491.354858 208.196198,488.292297 
z"/>
<path fill="#000000" opacity="1.000000" stroke="none" 
	d="
M860.212708,265.312622 
	C862.375793,258.754333 865.387146,256.683655 871.548828,258.355896 
	C892.217285,263.965118 910.563477,274.332520 927.754272,286.820068 
	C937.486755,293.889862 946.256165,302.053802 953.215637,311.972290 
	C957.555664,318.157654 959.556641,325.074402 959.339233,332.640350 
	C958.936646,346.647064 948.330322,354.475311 934.771179,350.595734 
	C925.106995,347.830536 917.896118,341.457855 911.570496,333.999390 
	C900.490906,320.935516 891.892273,305.912872 879.643921,293.748688 
	C874.692383,288.831177 870.076416,283.561371 865.504028,278.281799 
	C862.415710,274.715881 860.132812,270.657654 860.212708,265.312622 
z"/>
<path fill="#000000" opacity="1.000000" stroke="none" 
	d="
M857.614136,494.304932 
	C856.408691,488.249359 856.522400,482.575134 856.766541,476.929047 
	C856.943665,472.830231 857.895020,468.808319 862.393616,467.220673 
	C866.962524,465.608215 870.920715,467.051270 874.181885,470.446747 
	C880.209778,476.722900 883.550293,484.558746 886.473877,492.535309 
	C894.107605,513.362732 900.229736,534.555237 900.196533,557.008606 
	C900.186707,563.661987 899.470398,570.294006 897.213013,576.628784 
	C894.306091,584.786255 888.985046,588.820435 881.406616,588.778015 
	C872.445068,588.727844 867.387573,584.903809 864.446228,576.126343 
	C861.930786,568.619812 861.363647,560.762146 861.026184,553.017273 
	C860.179321,533.580933 858.996826,514.171570 857.614136,494.304932 
z"/>
<path fill="#000000" opacity="1.000000" stroke="none" 
	d="
M530.948486,555.817139 
	C506.285156,555.397583 485.225861,547.526184 468.498932,529.480774 
	C456.724823,516.778625 449.098480,501.736115 443.810669,485.405243 
	C441.352325,477.812805 439.467926,470.070099 438.114380,462.198364 
	C437.719635,459.902588 437.319397,457.639313 438.160736,454.753571 
	C445.120270,455.860687 451.541107,458.344025 457.532440,461.829315 
	C468.175018,468.020294 477.489075,476.216888 488.456543,481.994751 
	C520.469055,498.859497 551.980164,497.572052 583.165588,479.976196 
	C588.960754,476.706329 594.438721,472.873199 600.242004,469.619232 
	C608.454224,465.014618 617.189880,462.212189 626.479614,462.859650 
	C627.525513,464.149597 627.388000,465.172882 627.092896,466.107330 
	C619.734436,489.405579 608.845276,510.809631 592.023621,528.729492 
	C575.683044,546.136780 555.637451,555.813599 530.948486,555.817139 
z"/>
</svg>