<svg version="1.1" id="Layer_1" xmlns="http://www.w3.org/2000/svg" xmlns:xlink="http://www.w3.org/1999/xlink" x="0px" y="0px"
	 width="100%" viewBox="0 0 1200 847" enable-background="new 0 0 1200 847" xml:space="preserve">
<path fill="#FFFFFF" opacity="1.000000" stroke="none" 
	d="
M1023.000000,1.000000 
	C1082.333374,1.000000 1141.666626,1.000000 1201.000000,1.000000 
	C1201.000000,281.833344 1201.001587,562.666687 1200.958740,843.500000 
	C1200.958496,845.000061 1200.333252,846.500000 1199.499512,847.613525 
	C1198.520020,843.705383 1197.734131,840.424805 1193.240479,839.535889 
	C1193.147827,786.762878 1193.141968,734.453735 1193.074097,682.144592 
	C1193.071411,680.087341 1192.477661,678.030884 1191.872314,675.802612 
	C1191.145264,675.576233 1190.705078,675.521240 1189.881958,675.279419 
	C1136.381104,675.045532 1083.263428,675.001526 1030.145630,674.942017 
	C1027.484253,674.939026 1024.823120,674.801636 1022.153870,674.384155 
	C1022.188354,673.359924 1022.230774,672.678345 1022.518921,671.666016 
	C1022.853638,670.013794 1023.020142,668.692261 1023.020325,667.370789 
	C1023.028809,613.258057 1023.022278,559.145264 1023.026611,504.561890 
	C1023.031616,447.636963 1023.027771,391.182678 1023.023743,334.728394 
	C1023.015808,223.485596 1023.007935,112.242798 1023.000000,1.000000 
z"/>
<path fill="#FFFFFF" opacity="1.000000" stroke="none" 
	d="
M1.000000,674.000000 
	C1.000000,449.781311 1.000000,225.562653 1.000000,1.000000 
	C57.022858,1.000000 113.046417,1.000000 169.626160,1.216054 
	C170.349655,1.714875 170.590012,1.905565 170.978149,2.467454 
	C171.063675,55.448288 171.071198,107.965843 171.096985,160.483398 
	C171.098053,162.635834 171.271072,164.788162 171.233551,167.314453 
	C171.113113,168.477036 171.123108,169.265717 171.071472,170.290497 
	C171.009842,170.526566 171.195312,170.977936 171.151581,171.358063 
	C171.139832,172.501511 171.171829,173.264847 171.082962,174.417572 
	C171.044785,175.883179 171.127441,176.959412 171.125870,178.049286 
	C171.041626,178.062943 170.895004,177.975616 170.618317,178.287415 
	C170.226334,179.914673 170.010239,181.230118 170.010071,182.545609 
	C169.997284,285.773590 169.998062,389.001587 170.035034,492.229553 
	C170.035614,493.837036 170.497833,495.444305 170.793854,497.462219 
	C170.814194,499.249969 170.785294,500.627228 170.577209,502.167511 
	C170.519745,502.885010 170.641464,503.439484 170.810913,504.383301 
	C170.946014,505.552490 171.033371,506.332275 171.068420,507.571045 
	C171.011719,557.018799 171.013977,606.007629 170.994263,654.996399 
	C170.991852,660.990234 170.871658,666.984131 170.480377,672.984985 
	C169.430740,673.593872 168.706757,674.195679 167.519440,674.862427 
	C134.140366,674.935425 101.224632,674.964539 68.308929,674.944214 
	C46.201450,674.930542 24.094019,674.846863 1.866688,674.612061 
	C1.545790,674.203125 1.296854,674.059937 1.000000,674.000000 
z"/>
<path fill="#FFFFFF" opacity="1.000000" stroke="none" 
	d="
M347.000000,1.000000 
	C514.691589,1.000000 682.383118,1.000000 850.515625,1.468268 
	C850.934631,57.559940 850.912720,113.183342 850.813660,169.037933 
	C850.736572,169.269119 850.752014,169.755447 850.800354,169.820160 
	C850.848694,169.884888 850.820312,169.725815 850.605103,169.667236 
	C850.389893,169.608643 850.009766,169.842133 849.599976,169.754578 
	C847.694885,169.567825 846.199524,169.381683 844.704163,169.382004 
	C792.897095,169.392868 741.090027,169.421326 688.855530,169.262360 
	C686.296509,169.055954 684.164978,169.034454 681.802551,169.095795 
	C681.286621,169.354980 681.065613,169.591248 680.561707,169.984619 
	C680.363525,171.713165 680.512329,173.344574 680.733276,175.440521 
	C680.849609,176.569138 680.932190,177.233185 680.932373,177.897263 
	C680.944519,229.323288 680.959290,280.749298 680.913391,332.175293 
	C680.911926,333.769104 680.274841,335.362335 679.471863,336.962341 
	C626.284668,336.971222 573.559692,336.965851 520.834717,337.006775 
	C518.898621,337.008270 516.962830,337.463104 514.732910,337.749878 
	C514.042664,337.796661 513.646423,337.800262 513.060791,337.608521 
	C512.534546,337.317841 512.197571,337.222443 511.778625,336.897705 
	C511.604645,336.326630 511.392273,336.095673 511.162354,335.517365 
	C511.280762,283.038147 511.297577,231.016983 511.302460,178.995819 
	C511.302551,178.004333 511.161865,177.012833 511.213593,175.658020 
	C511.372314,174.273544 511.404327,173.252396 511.605804,172.005890 
	C511.517578,171.193405 511.259918,170.606293 510.826233,169.900208 
	C510.650269,169.781204 510.247314,169.646561 510.110229,169.479462 
	C509.594971,169.383835 509.216858,169.455338 508.788696,169.629700 
	C508.738647,169.732574 508.922333,169.868973 508.601562,169.776703 
	C507.843842,169.738831 507.406830,169.793228 506.651428,169.740906 
	C505.897583,169.714600 505.462219,169.795029 504.617798,169.758667 
	C502.800232,169.702744 501.391663,169.763626 499.757629,169.727768 
	C499.532196,169.631042 499.072998,169.803925 498.697693,169.637390 
	C450.380310,169.438904 402.438232,169.404907 354.496185,169.392517 
	C353.683289,169.392303 352.870300,169.654099 351.678223,169.588333 
	C349.868256,169.259476 348.437469,169.135925 346.926331,168.833466 
	C346.561890,168.760803 346.277802,168.867065 345.760590,169.124954 
	C344.385254,169.141068 343.243042,169.005554 342.048950,168.570892 
	C341.886414,168.102280 341.775757,167.932785 341.635590,167.472534 
	C341.668884,166.799545 341.731659,166.417328 342.098785,165.828629 
	C342.787506,164.264084 343.171906,162.906036 343.712891,160.994781 
	C344.710632,162.479401 345.388550,163.488144 346.066498,164.496872 
	C346.377655,164.402924 346.688843,164.308975 347.000000,164.215012 
	C347.000000,109.810013 347.000000,55.405006 347.000000,1.000000 
z"/>
<path fill="#E00500" opacity="1.000000" stroke="none" 
	d="
M1.000000,843.000000 
	C1.000000,787.979126 1.000000,732.958191 1.468644,677.472778 
	C57.619350,677.023315 113.301414,677.038513 169.152420,677.349609 
	C171.869614,677.763611 174.417816,677.983887 176.966110,677.984924 
	C226.534866,678.005249 276.103638,678.027527 325.672302,677.955933 
	C330.450714,677.949036 335.228180,677.327209 340.474365,676.993896 
	C392.093323,677.001648 443.244019,676.997925 494.394653,677.033325 
	C497.190979,677.035217 500.005920,677.659119 502.779602,677.482239 
	C509.977325,677.023132 509.992432,676.909180 509.993408,684.034058 
	C510.000275,734.351624 510.028381,784.669312 509.908966,834.986633 
	C509.902740,837.612000 508.613708,840.234436 507.606140,842.879639 
	C506.868683,842.914612 506.447021,842.928040 505.925842,842.783447 
	C505.542999,842.733765 505.259583,842.842163 504.509064,842.955566 
	C445.928162,842.959290 387.814362,842.952271 329.700562,842.957703 
	C220.133713,842.967957 110.566856,842.985474 1.000000,843.000000 
z"/>
<path fill="#FFFFFF" opacity="1.000000" stroke="none" 
	d="
M684.000000,848.000000 
	C626.312439,848.000000 568.624878,848.000000 510.468658,847.634094 
	C509.997498,846.536438 509.994965,845.804688 510.214722,844.960938 
	C510.733582,844.666931 510.930267,844.408813 510.960510,844.029297 
	C510.894043,843.984070 510.957703,843.836304 511.298096,843.727173 
	C511.654327,842.703186 511.670197,841.788452 511.796570,840.839355 
	C511.907074,840.805115 512.018005,841.008179 512.364502,840.948608 
	C514.642273,839.193481 514.776794,837.827332 511.881165,836.539246 
	C511.717377,787.075439 511.669525,738.067749 511.788086,688.743591 
	C512.048096,687.958191 512.141724,687.489380 512.551880,686.949463 
	C512.585754,685.917480 512.303162,684.956421 511.966309,684.093811 
	C511.912140,684.192200 511.697449,684.126038 511.818054,683.809814 
	C511.850861,683.285767 511.763092,683.077881 511.687439,682.500183 
	C511.674591,681.390564 511.649567,680.650879 511.763062,680.006409 
	C511.901581,680.101685 512.225769,680.013672 512.440125,679.807373 
	C512.822083,678.417236 512.989624,677.233459 513.180481,675.847412 
	C513.203796,675.645203 513.208557,675.238098 513.662964,675.272827 
	C566.367188,675.334473 618.617004,675.361389 670.990601,675.547241 
	C671.453125,675.598022 671.791931,675.489929 672.549072,675.347717 
	C674.625366,675.436523 676.283508,675.559448 677.966919,676.009155 
	C678.938721,677.899109 679.885193,679.462280 680.877808,681.490173 
	C680.898376,733.629639 680.872925,785.304382 680.481812,837.080322 
	C677.602539,842.966614 678.505920,845.019165 684.000000,846.338013 
	C684.000000,847.113586 684.000000,847.556824 684.000000,848.000000 
z"/>
<path fill="#FFD800" opacity="1.000000" stroke="none" 
	d="
M171.363968,166.940552 
	C171.271072,164.788162 171.098053,162.635834 171.096985,160.483398 
	C171.071198,107.965843 171.063675,55.448288 171.073105,2.223216 
	C171.062241,1.343801 171.031128,1.171901 171.000000,1.000000 
	C227.020889,1.000000 283.041779,1.000000 339.530823,1.468657 
	C339.997650,55.071461 339.996704,108.205605 339.994659,161.339752 
	C339.994354,168.982559 339.984833,168.997482 332.078613,168.997910 
	C282.275726,169.000549 232.472855,168.988617 182.670044,169.040375 
	C180.769485,169.042343 178.869553,169.646759 176.643524,169.977539 
	C175.882858,169.983551 175.448013,169.982483 174.974731,169.643265 
	C173.745514,168.516937 172.554733,167.728745 171.363968,166.940552 
z"/>
<path fill="#FFD800" opacity="1.000000" stroke="none" 
	d="
M853.000000,1.000000 
	C908.687561,1.000000 964.375122,1.000000 1020.516968,1.468488 
	C1020.931519,57.260674 1020.891785,112.584366 1020.554382,167.983795 
	C1019.842346,168.698212 1019.427917,169.336914 1018.646423,169.978546 
	C1015.526733,169.656464 1012.774109,169.331467 1009.550659,169.003632 
	C962.873169,169.000351 916.666504,169.024338 870.460083,168.926453 
	C868.173950,168.921600 865.890076,167.855331 863.079468,167.151703 
	C862.912048,167.592484 862.459717,168.783066 861.674988,169.978760 
	C860.899414,169.980942 860.456238,169.978012 859.937744,169.617798 
	C857.615906,168.484726 855.369263,167.708939 853.102173,166.469177 
	C853.054443,111.003479 853.027222,56.001740 853.000000,1.000000 
z"/>
<path fill="#FFFFFF" opacity="1.000000" stroke="none" 
	d="
M684.468628,848.000000 
	C684.000000,847.556824 684.000000,847.113586 684.000977,846.096069 
	C684.001892,845.521729 683.998901,845.037903 684.209839,844.953369 
	C684.701721,844.722046 684.901489,844.501587 685.482666,844.144897 
	C850.462524,844.082886 1014.979675,844.082825 1179.496826,844.089417 
	C1182.657593,844.089539 1185.818359,844.168213 1189.075073,844.363525 
	C1189.449951,844.411377 1189.728882,844.305847 1190.338013,844.126099 
	C1191.117188,843.706421 1191.566040,843.360962 1192.111816,843.106445 
	C1192.208618,843.197388 1192.430298,843.051147 1192.641846,842.805176 
	C1193.007812,841.706116 1193.162231,840.852966 1193.316650,839.999756 
	C1197.734131,840.424805 1198.520020,843.705383 1198.999512,847.613525 
	C1027.645752,848.000000 856.291565,848.000000 684.468628,848.000000 
z"/>
<path fill="#FFFBF6" opacity="1.000000" stroke="none" 
	d="
M509.992462,845.072937 
	C509.994965,845.804688 509.997498,846.536438 510.000000,847.634094 
	C341.666656,848.000000 173.333328,848.005432 5.000066,847.897217 
	C3.747538,847.896362 0.685187,849.962952 1.213035,845.434082 
	C1.693915,844.714417 1.889850,844.496094 2.477822,844.150635 
	C165.629074,844.081970 328.316376,844.074402 491.003662,844.075012 
	C497.329010,844.075012 503.654327,844.153625 509.977478,844.415039 
	C509.975311,844.634460 509.992462,845.072937 509.992462,845.072937 
z"/>
<path fill="#FFFBF6" opacity="1.000000" stroke="none" 
	d="
M346.600006,1.000000 
	C347.000000,55.405006 347.000000,109.810013 347.000000,164.215012 
	C346.688843,164.308975 346.377655,164.402924 346.066498,164.496872 
	C345.388550,163.488144 344.710632,162.479401 343.712891,160.994781 
	C343.171906,162.906036 342.787506,164.264084 341.896484,165.475250 
	C341.328003,163.166794 341.212494,161.005219 341.212036,158.843628 
	C341.201965,110.220566 341.209320,61.597500 341.195862,12.974439 
	C341.194763,8.982941 341.068237,4.991478 341.000000,1.000000 
	C341.000000,1.000000 341.500000,1.000000 341.833496,1.171567 
	C342.444641,1.228752 342.722321,1.114370 343.000000,0.999994 
	C344.066681,1.000000 345.133331,1.000000 346.600006,1.000000 
z"/>
<path fill="#A61E16" opacity="1.000000" stroke="none" 
	d="
M509.979675,844.195618 
	C503.654327,844.153625 497.329010,844.075012 491.003662,844.075012 
	C328.316376,844.074402 165.629074,844.081970 2.232271,844.059448 
	C1.348515,844.020569 1.174257,844.010315 1.000000,844.000000 
	C1.000000,844.000000 1.000000,843.500000 1.000000,843.250000 
	C110.566856,842.985474 220.133713,842.967957 329.700562,842.957703 
	C387.814362,842.952271 445.928162,842.959290 504.771576,842.968384 
	C505.675873,842.964661 505.850586,842.953125 506.025330,842.941528 
	C506.447021,842.928040 506.868683,842.914612 507.923401,842.904480 
	C509.329498,842.595520 510.102570,842.283203 510.919067,842.280212 
	C510.960907,843.005127 510.959320,843.420715 510.957703,843.836304 
	C510.957703,843.836304 510.894043,843.984070 510.691345,843.995850 
	C510.319031,844.070312 510.149353,844.132935 509.979675,844.195618 
z"/>
<path fill="#FFF5AC" opacity="1.000000" stroke="none" 
	d="
M1022.750000,1.000000 
	C1023.007935,112.242798 1023.015808,223.485596 1023.023743,334.728394 
	C1023.027771,391.182678 1023.031616,447.636963 1022.798706,504.550171 
	C1022.561890,505.009064 1022.106140,504.991821 1022.035156,504.528870 
	C1021.950195,454.507080 1021.942261,404.948212 1021.914062,355.389343 
	C1021.910950,349.905304 1021.792664,344.421295 1021.801636,338.481201 
	C1021.893738,295.364868 1021.926514,252.704620 1021.921814,210.044357 
	C1021.920349,196.715851 1021.817566,183.387344 1021.832397,169.591583 
	C1021.935669,113.082893 1021.967834,57.041447 1022.000000,1.000000 
	C1022.000000,1.000000 1022.500000,1.000000 1022.750000,1.000000 
z"/>
<path fill="#FACF22" opacity="1.000000" stroke="none" 
	d="
M340.750000,1.000000 
	C341.068237,4.991478 341.194763,8.982941 341.195862,12.974439 
	C341.209320,61.597500 341.201965,110.220566 341.212036,158.843628 
	C341.212494,161.005219 341.328003,163.166794 341.592163,165.681747 
	C341.731659,166.417328 341.668884,166.799545 341.451996,167.661453 
	C341.190186,168.479034 341.082458,168.816925 340.979309,169.397018 
	C340.983856,169.639236 340.953278,170.122772 340.528961,170.091705 
	C338.401794,170.051727 336.698914,170.042816 334.528137,170.021805 
	C282.043335,170.016479 230.026474,170.023254 177.749359,170.018372 
	C177.315842,169.994644 177.142593,169.982544 176.969330,169.970428 
	C178.869553,169.646759 180.769485,169.042343 182.670044,169.040375 
	C232.472855,168.988617 282.275726,169.000549 332.078613,168.997910 
	C339.984833,168.997482 339.994354,168.982559 339.994659,161.339752 
	C339.996704,108.205605 339.997650,55.071461 339.999451,1.468657 
	C340.000000,1.000000 340.500000,1.000000 340.750000,1.000000 
z"/>
<path fill="#C8110F" opacity="1.000000" stroke="none" 
	d="
M168.983475,677.053711 
	C113.301414,677.038513 57.619350,677.023315 1.468644,677.004089 
	C1.000000,677.000000 1.000000,676.500000 1.468657,676.250000 
	C58.294502,675.970642 114.651695,675.941284 171.264633,675.971680 
	C171.690430,676.074219 171.860474,676.117065 171.796143,676.390503 
	C170.702332,676.765381 169.842911,676.909546 168.983475,677.053711 
z"/>
<path fill="#F07273" opacity="1.000000" stroke="none" 
	d="
M171.008881,675.911865 
	C114.651695,675.941284 58.294502,675.970642 1.468657,676.000000 
	C1.000000,676.000000 1.000000,675.500000 1.252105,675.224854 
	C1.664995,674.897949 1.825781,674.846191 1.986567,674.794495 
	C24.094019,674.846863 46.201450,674.930542 68.308929,674.944214 
	C101.224632,674.964539 134.140366,674.935425 167.884399,674.931641 
	C169.456268,674.923645 170.199829,674.911377 171.049286,674.852417 
	C171.155167,674.805786 171.383209,674.845215 171.268616,675.106445 
	C171.105637,675.549072 171.057266,675.730469 171.008881,675.911865 
z"/>
<path fill="#F2D347" opacity="1.000000" stroke="none" 
	d="
M1021.750000,1.000000 
	C1021.967834,57.041447 1021.935669,113.082893 1021.624451,169.591461 
	C1021.345337,170.058594 1020.931519,170.113663 1020.916138,170.095551 
	C1020.900818,170.077423 1020.875916,170.037018 1020.910461,169.682709 
	C1020.914001,168.854950 1020.882996,168.381516 1020.851990,167.908066 
	C1020.891785,112.584366 1020.931519,57.260674 1020.985596,1.468488 
	C1021.000000,1.000000 1021.500000,1.000000 1021.750000,1.000000 
z"/>
<path fill="#FFF5AC" opacity="1.000000" stroke="none" 
	d="
M850.890747,168.806747 
	C850.912720,113.183342 850.934631,57.559940 850.978271,1.468268 
	C851.000000,1.000000 851.500000,1.000000 851.748657,1.468656 
	C851.997192,32.527382 851.977051,63.117466 852.003113,93.707512 
	C852.024231,118.476456 852.100769,143.245346 852.093872,168.296326 
	C852.025635,168.770065 852.016357,168.961746 851.717773,169.099823 
	C851.249207,168.966415 851.070007,168.886581 850.890747,168.806747 
z"/>
<path fill="#F2D347" opacity="1.000000" stroke="none" 
	d="
M852.152771,168.014252 
	C852.100769,143.245346 852.024231,118.476456 852.003113,93.707512 
	C851.977051,63.117466 851.997192,32.527382 851.998657,1.468656 
	C852.000000,1.000000 852.500000,1.000000 852.750000,1.000000 
	C853.027222,56.001740 853.054443,111.003479 852.981812,166.687134 
	C852.704468,167.658279 852.461426,167.873352 852.152771,168.014252 
z"/>
<path fill="#FFFDD7" opacity="1.000000" stroke="none" 
	d="
M170.750000,1.000000 
	C171.031128,1.171901 171.062241,1.343801 170.998383,1.759940 
	C170.590012,1.905565 170.349655,1.714875 170.091171,1.216054 
	C170.000000,1.000000 170.500000,1.000000 170.750000,1.000000 
z"/>
<path fill="#FFFEE4" opacity="1.000000" stroke="none" 
	d="
M342.750000,0.999994 
	C342.722321,1.114370 342.444641,1.228752 342.083496,1.171567 
	C342.000000,1.000000 342.500000,1.000000 342.750000,0.999994 
z"/>
<path fill="#FFE1D6" opacity="1.000000" stroke="none" 
	d="
M1.000000,844.250000 
	C1.174257,844.010315 1.348515,844.020569 1.768323,844.122009 
	C1.889850,844.496094 1.693915,844.714417 1.213035,844.934082 
	C1.000000,845.000000 1.000000,844.500000 1.000000,844.250000 
z"/>
<path fill="#FFF5EF" opacity="1.000000" stroke="none" 
	d="
M1.866688,674.612061 
	C1.825781,674.846191 1.664995,674.897949 1.252105,674.974854 
	C1.000000,675.000000 1.000000,674.500000 1.000000,674.250000 
	C1.296854,674.059937 1.545790,674.203125 1.866688,674.612061 
z"/>
<path fill="#C8110F" opacity="1.000000" stroke="none" 
	d="
M1190.265015,675.466309 
	C1190.705078,675.521240 1191.145264,675.576233 1191.819092,676.269043 
	C1192.056274,730.309937 1192.056030,783.713013 1192.078979,837.116028 
	C1192.079834,839.094482 1192.307983,841.072754 1192.430298,843.051147 
	C1192.430298,843.051147 1192.208618,843.197388 1191.828857,843.049805 
	C1191.260742,842.864746 1191.072144,842.827148 1190.918091,842.342773 
	C1190.963501,789.133423 1190.973633,736.370850 1190.985840,683.608337 
	C1190.987427,677.014221 1190.992798,677.009644 1184.282593,677.009155 
	C1130.188354,677.005005 1076.094238,677.002747 1022.003235,676.806580 
	C1022.006470,676.613159 1022.030762,676.227051 1022.026367,676.142151 
	C1022.022034,676.057251 1021.981445,675.892090 1022.450378,675.933960 
	C1077.233765,675.993469 1131.548218,676.015503 1185.862671,676.005066 
	C1187.330078,676.004822 1188.797607,675.653748 1190.265015,675.466309 
z"/>
<path fill="#CC6137" opacity="1.000000" stroke="none" 
	d="
M1022.273193,671.996704 
	C1022.230774,672.678345 1022.188354,673.359924 1022.083984,674.671875 
	C1022.008545,675.498779 1021.994995,675.695435 1021.981445,675.892090 
	C1021.981445,675.892090 1022.022034,676.057251 1021.771851,676.070068 
	C1021.346863,676.061890 1021.172058,676.040894 1020.999512,676.008728 
	C1021.001770,675.997559 1020.981201,676.007385 1020.898376,675.790222 
	C1020.641357,675.290833 1020.390259,675.125305 1020.029297,674.807190 
	C1019.977478,674.358032 1019.958679,674.178101 1020.170166,673.889893 
	C1020.566528,673.495361 1020.732666,673.209229 1020.917542,672.459717 
	C1020.945740,643.008606 1020.978882,614.020813 1020.957520,585.033081 
	C1020.938354,559.046204 1020.859192,533.059326 1021.047241,507.032440 
	C1021.287964,506.992401 1021.771240,506.923645 1021.870850,507.387726 
	C1021.986755,560.578430 1022.000366,613.305115 1022.030029,666.031738 
	C1022.031128,668.020142 1022.188538,670.008362 1022.273193,671.996704 
z"/>
<path fill="#F07273" opacity="1.000000" stroke="none" 
	d="
M1022.450378,675.933960 
	C1021.994995,675.695435 1022.008545,675.498779 1022.091919,675.014404 
	C1024.823120,674.801636 1027.484253,674.939026 1030.145630,674.942017 
	C1083.263428,675.001526 1136.381104,675.045532 1189.881958,675.279419 
	C1188.797607,675.653748 1187.330078,676.004822 1185.862671,676.005066 
	C1131.548218,676.015503 1077.233765,675.993469 1022.450378,675.933960 
z"/>
<path fill="#FFE1D6" opacity="1.000000" stroke="none" 
	d="
M1022.518921,671.666016 
	C1022.188538,670.008362 1022.031128,668.020142 1022.030029,666.031738 
	C1022.000366,613.305115 1021.986755,560.578430 1021.928833,507.067078 
	C1021.960083,505.852203 1022.033081,505.421997 1022.106140,504.991821 
	C1022.106140,504.991821 1022.561890,505.009064 1022.789795,505.020813 
	C1023.022278,559.145264 1023.028809,613.258057 1023.020325,667.370789 
	C1023.020142,668.692261 1022.853638,670.013794 1022.518921,671.666016 
z"/>
<path fill="#FFBE9F" opacity="1.000000" stroke="none" 
	d="
M1192.641846,842.805176 
	C1192.307983,841.072754 1192.079834,839.094482 1192.078979,837.116028 
	C1192.056030,783.713013 1192.056274,730.309937 1192.105957,676.440491 
	C1192.477661,678.030884 1193.071411,680.087341 1193.074097,682.144592 
	C1193.141968,734.453735 1193.147827,786.762878 1193.240479,839.535889 
	C1193.162231,840.852966 1193.007812,841.706116 1192.641846,842.805176 
z"/>
<path fill="#FFAF00" opacity="1.000000" stroke="none" 
	d="
M176.643524,169.977539 
	C177.142593,169.982544 177.315842,169.994644 178.045929,170.308685 
	C179.580582,170.739883 180.558365,170.981827 181.536240,170.982193 
	C231.290421,171.000702 281.044586,171.006470 330.798737,170.958282 
	C332.198151,170.956924 333.596954,170.355499 334.996063,170.033890 
	C336.698914,170.042816 338.401794,170.051727 340.835266,170.355560 
	C345.063049,170.364853 348.560211,170.079254 352.057373,169.793640 
	C352.870300,169.654099 353.683289,169.392303 354.496185,169.392517 
	C402.438232,169.404907 450.380310,169.438904 498.740784,169.850052 
	C499.433838,170.094345 499.708466,169.959412 499.983093,169.824493 
	C501.391663,169.763626 502.800232,169.702744 504.630310,170.077728 
	C505.477264,170.850220 505.902679,171.186844 506.328064,171.523468 
	C506.541962,170.964859 506.755890,170.406235 506.969849,169.847626 
	C507.406830,169.793228 507.843842,169.738831 508.647522,170.155487 
	C509.705109,172.424820 510.395996,174.223083 511.086914,176.021332 
	C511.161865,177.012833 511.302551,178.004333 511.302460,178.995819 
	C511.297577,231.016983 511.280762,283.038147 510.912598,335.636475 
	C510.337555,336.503021 510.115173,336.792389 509.513947,337.062347 
	C508.113068,337.046875 507.091034,337.050781 505.775879,336.927063 
	C504.650818,337.200897 503.818848,337.602417 502.658813,338.006958 
	C501.893219,338.006744 501.455780,338.003479 500.721619,337.703308 
	C498.449066,337.270142 496.473175,337.014984 494.497253,337.014618 
	C390.423584,336.995331 286.349915,337.008087 182.276260,336.953339 
	C178.662659,336.951416 175.049393,336.297699 171.343185,335.492004 
	C171.229187,284.667603 171.211273,234.298904 171.174561,183.930222 
	C171.173111,181.945282 170.992264,179.960480 170.895004,177.975616 
	C170.895004,177.975616 171.041626,178.062943 171.348465,177.818939 
	C171.504807,176.392685 171.354324,175.210434 171.203827,174.028168 
	C171.171829,173.264847 171.139832,172.501511 171.340149,171.263397 
	C171.770279,170.580475 171.913055,170.339706 172.376984,170.049026 
	C173.506470,170.014969 174.259827,169.998184 175.013168,169.981400 
	C175.448013,169.982483 175.882858,169.983551 176.643524,169.977539 
z"/>
<path fill="#FFFDD7" opacity="1.000000" stroke="none" 
	d="
M170.618317,178.287415 
	C170.992264,179.960480 171.173111,181.945282 171.174561,183.930222 
	C171.211273,234.298904 171.229187,284.667603 171.240234,335.805969 
	C171.237183,337.014679 171.244308,337.453705 171.145416,338.316284 
	C171.107178,340.181488 171.174957,341.623108 171.219360,343.376953 
	C171.210434,344.105896 171.224899,344.522675 171.129578,345.400482 
	C170.996109,387.613007 170.982895,429.364471 170.940155,471.115936 
	C170.931305,479.761261 170.812668,488.406433 170.744614,497.051697 
	C170.497833,495.444305 170.035614,493.837036 170.035034,492.229553 
	C169.998062,389.001587 169.997284,285.773590 170.010071,182.545609 
	C170.010239,181.230118 170.226334,179.914673 170.618317,178.287415 
z"/>
<path fill="#CC6137" opacity="1.000000" stroke="none" 
	d="
M170.806046,672.977966 
	C170.871658,666.984131 170.991852,660.990234 170.994263,654.996399 
	C171.013977,606.007629 171.011719,557.018799 171.275848,507.538086 
	C171.535553,507.046143 171.950790,506.985291 171.989243,507.013123 
	C172.027695,507.040955 172.103104,507.097351 172.064621,507.555054 
	C172.019592,518.341309 172.000397,528.669800 172.008667,538.998291 
	C172.044647,583.976440 172.088608,628.954529 172.040436,674.114746 
	C171.811661,674.531189 171.622330,674.713989 171.383209,674.845215 
	C171.383209,674.845215 171.155167,674.805786 171.079620,674.530029 
	C170.938065,673.828857 170.872055,673.403381 170.806046,672.977966 
z"/>
<path fill="#F8A65A" opacity="1.000000" stroke="none" 
	d="
M171.950790,506.985291 
	C171.950790,506.985291 171.535553,507.046143 171.328140,507.079102 
	C171.033371,506.332275 170.946014,505.552490 170.881454,504.054077 
	C170.854950,502.891815 170.805664,502.448151 170.756378,502.004486 
	C170.785294,500.627228 170.814194,499.249969 170.793854,497.462219 
	C170.812668,488.406433 170.931305,479.761261 170.940155,471.115936 
	C170.982895,429.364471 170.996109,387.613007 171.358063,345.745544 
	C171.779755,346.786591 171.935867,347.943634 171.936157,349.100708 
	C171.949600,401.728912 171.949402,454.357086 171.950790,506.985291 
z"/>
<path fill="#FACF22" opacity="1.000000" stroke="none" 
	d="
M174.974731,169.643265 
	C174.259827,169.998184 173.506470,170.014969 172.160278,170.032257 
	C171.567429,170.032776 171.133118,170.054413 171.133118,170.054413 
	C171.123108,169.265717 171.113113,168.477036 171.233551,167.314453 
	C172.554733,167.728745 173.745514,168.516937 174.974731,169.643265 
z"/>
<path fill="#FFF5EF" opacity="1.000000" stroke="none" 
	d="
M170.480377,672.984985 
	C170.872055,673.403381 170.938065,673.828857 170.973740,674.576660 
	C170.199829,674.911377 169.456268,674.923645 168.347733,674.866699 
	C168.706757,674.195679 169.430740,673.593872 170.480377,672.984985 
z"/>
<path fill="#F8A65A" opacity="1.000000" stroke="none" 
	d="
M171.082977,174.417572 
	C171.354324,175.210434 171.504807,176.392685 171.432709,177.805298 
	C171.127441,176.959412 171.044785,175.883179 171.082977,174.417572 
z"/>
<path fill="#FFFDD7" opacity="1.000000" stroke="none" 
	d="
M170.577209,502.167511 
	C170.805664,502.448151 170.854950,502.891815 170.833710,503.664734 
	C170.641464,503.439484 170.519745,502.885010 170.577209,502.167511 
z"/>
<path fill="#F8A65A" opacity="1.000000" stroke="none" 
	d="
M171.071472,170.290497 
	C171.133118,170.054413 171.567429,170.032776 171.784119,170.049545 
	C171.913055,170.339706 171.770279,170.580475 171.383881,170.883270 
	C171.195312,170.977936 171.009842,170.526566 171.071472,170.290497 
z"/>
<path fill="#FFAF00" opacity="1.000000" stroke="none" 
	d="
M860.013062,169.975067 
	C860.456238,169.978012 860.899414,169.980942 862.052002,169.985229 
	C863.516052,169.998566 864.270691,170.010574 865.317993,170.315903 
	C866.255249,170.736832 866.899902,170.975876 867.544617,170.976151 
	C913.127747,170.995789 958.710938,171.003983 1004.294006,170.958008 
	C1005.525635,170.956772 1006.756653,170.353638 1008.289551,170.004044 
	C1009.067932,169.653412 1009.544678,169.329926 1010.021484,169.006439 
	C1012.774109,169.331467 1015.526733,169.656464 1018.957275,169.990753 
	C1020.048767,170.012375 1020.462341,170.024689 1020.875916,170.037018 
	C1020.875916,170.037018 1020.900818,170.077423 1020.917969,170.551971 
	C1020.955078,226.350204 1020.975159,281.673889 1020.747559,336.998474 
	C1020.333130,336.999542 1020.166443,336.999664 1019.531189,337.000854 
	C910.002319,337.001251 800.942139,336.993927 691.881897,337.040649 
	C689.263611,337.041779 686.645508,337.646912 684.015686,337.523712 
	C683.679321,333.457703 683.074707,329.838501 683.072144,326.218872 
	C683.036011,275.831207 683.082275,225.443527 683.433838,175.033997 
	C684.385254,174.686859 685.011353,174.361572 685.637451,174.036285 
	C685.102539,173.358490 684.567688,172.680679 684.037842,171.720154 
	C684.072388,171.063599 684.101746,170.689774 684.435791,170.250793 
	C685.155029,170.176773 685.569702,170.167923 686.185425,170.375488 
	C687.267639,170.458679 688.148743,170.325439 689.123779,170.016418 
	C689.217834,169.840622 689.282959,169.447281 689.282959,169.447281 
	C741.090027,169.421326 792.897095,169.392868 844.704163,169.382004 
	C846.199524,169.381683 847.694885,169.567825 849.663452,169.967712 
	C850.364502,170.087524 850.592407,169.906662 850.820312,169.725800 
	C850.820312,169.725815 850.848694,169.884888 851.099731,169.931366 
	C851.561279,170.001877 851.771729,170.025925 852.428467,170.039398 
	C855.254150,170.010910 857.633606,169.992981 860.013062,169.975067 
z"/>
<path fill="#F8A65A" opacity="1.000000" stroke="none" 
	d="
M513.250122,337.803833 
	C513.646423,337.800262 514.042664,337.796661 515.191406,337.839874 
	C551.512756,337.906433 587.081726,337.948151 622.650696,337.937073 
	C641.763062,337.931152 660.875488,337.834686 679.993530,337.877960 
	C679.999268,337.976868 680.032227,338.172180 680.022827,338.366852 
	C680.013367,338.561523 680.030090,338.951508 679.560059,338.975098 
	C623.732239,339.016663 568.374512,339.034576 512.774048,338.918030 
	C512.226807,338.570862 511.922241,338.358124 511.690063,338.091492 
	C511.762512,338.037567 511.937073,337.991028 512.268555,337.966614 
	C512.816711,337.896027 513.033386,337.849915 513.250122,337.803833 
z"/>
<path fill="#FFED9B" opacity="1.000000" stroke="none" 
	d="
M679.934082,336.955841 
	C680.274841,335.362335 680.911926,333.769104 680.913391,332.175293 
	C680.959290,280.749298 680.944519,229.323288 680.932373,177.897263 
	C680.932190,177.233185 680.849609,176.569138 680.982361,175.408859 
	C681.159241,174.912643 681.655762,174.884567 681.782837,175.348267 
	C681.942383,228.618423 681.989075,281.424927 681.924500,334.231262 
	C681.922852,335.545654 680.690552,336.858551 680.032227,338.172180 
	C680.032227,338.172180 679.999268,337.976868 679.990112,337.671631 
	C679.980896,337.366425 679.934082,336.955841 679.934082,336.955841 
z"/>
<path fill="#FFFDD7" opacity="1.000000" stroke="none" 
	d="
M679.471863,336.962341 
	C679.934082,336.955841 679.980896,337.366425 679.984375,337.572754 
	C660.875488,337.834686 641.763062,337.931152 622.650696,337.937073 
	C587.081726,337.948151 551.512756,337.906433 515.485352,337.796661 
	C516.962830,337.463104 518.898621,337.008270 520.834717,337.006775 
	C573.559692,336.965851 626.284668,336.971222 679.471863,336.962341 
z"/>
<path fill="#F4B128" opacity="1.000000" stroke="none" 
	d="
M351.678223,169.588333 
	C348.560211,170.079254 345.063049,170.364853 341.259583,170.386612 
	C340.953278,170.122772 340.983856,169.639236 341.268463,169.355347 
	C341.735687,169.004303 341.918274,168.937164 342.100830,168.870041 
	C343.243042,169.005554 344.385254,169.141068 346.010986,169.208618 
	C346.665222,169.097885 346.835938,169.055130 347.006653,169.012390 
	C348.437469,169.135925 349.868256,169.259476 351.678223,169.588333 
z"/>
<path fill="#FFFEE4" opacity="1.000000" stroke="none" 
	d="
M681.655762,174.884567 
	C681.655762,174.884567 681.159241,174.912643 680.910156,174.944305 
	C680.512329,173.344574 680.363525,171.713165 680.581360,170.009781 
	C680.947998,169.937805 680.986206,169.986160 680.985962,170.272339 
	C681.212097,171.058350 681.438538,171.558182 681.707642,172.410538 
	C681.718750,173.470230 681.687256,174.177399 681.655762,174.884567 
z"/>
<path fill="#F4B128" opacity="1.000000" stroke="none" 
	d="
M511.213623,175.658005 
	C510.395996,174.223083 509.705109,172.424820 508.968262,170.247772 
	C508.922333,169.868973 508.738647,169.732574 509.132996,169.757751 
	C509.767365,169.737457 510.007355,169.692017 510.247314,169.646561 
	C510.247314,169.646561 510.650269,169.781204 510.813080,170.282379 
	C511.129395,171.266129 511.282867,171.748688 511.436340,172.231262 
	C511.404327,173.252396 511.372314,174.273544 511.213623,175.658005 
z"/>
<path fill="#FFD87C" opacity="1.000000" stroke="none" 
	d="
M688.855530,169.262360 
	C689.282959,169.447281 689.217834,169.840622 688.746582,169.944855 
	C687.511719,170.085754 686.747986,170.122421 685.984314,170.159073 
	C685.569702,170.167923 685.155029,170.176773 684.105530,170.172852 
	C683.022583,170.129074 682.574524,170.098099 682.086914,169.805023 
	C682.042664,169.366272 682.038025,169.189606 682.033386,169.012955 
	C684.164978,169.034454 686.296509,169.055954 688.855530,169.262360 
z"/>
<path fill="#FE9F11" opacity="1.000000" stroke="none" 
	d="
M509.892822,337.081726 
	C510.115173,336.792389 510.337555,336.503021 510.809692,336.094543 
	C511.392273,336.095673 511.604645,336.326630 511.742279,337.118378 
	C511.787964,337.568420 511.937073,337.991028 511.937073,337.991028 
	C511.937073,337.991028 511.762512,338.037567 511.490479,338.194336 
	C510.809448,338.568848 510.400452,338.786591 509.805084,338.880707 
	C509.710052,338.198639 509.801422,337.640167 509.892822,337.081726 
z"/>
<path fill="#F4B128" opacity="1.000000" stroke="none" 
	d="
M506.651398,169.740906 
	C506.755890,170.406235 506.541962,170.964859 506.328064,171.523468 
	C505.902679,171.186844 505.477264,170.850220 505.039337,170.194519 
	C505.462219,169.795029 505.897583,169.714600 506.651398,169.740906 
z"/>
<path fill="#FFD87C" opacity="1.000000" stroke="none" 
	d="
M511.605835,172.005890 
	C511.282867,171.748688 511.129395,171.266129 510.989075,170.401367 
	C511.259918,170.606293 511.517578,171.193405 511.605835,172.005890 
z"/>
<path fill="#FFD87C" opacity="1.000000" stroke="none" 
	d="
M510.110229,169.479462 
	C510.007355,169.692017 509.767365,169.737457 509.183044,169.654877 
	C509.216858,169.455338 509.594971,169.383835 510.110229,169.479462 
z"/>
<path fill="#FFFEE4" opacity="1.000000" stroke="none" 
	d="
M346.926331,168.833466 
	C346.835938,169.055130 346.665222,169.097885 346.244080,169.056976 
	C346.277802,168.867065 346.561890,168.760803 346.926331,168.833466 
z"/>
<path fill="#FFF5AC" opacity="1.000000" stroke="none" 
	d="
M342.048950,168.570892 
	C341.918274,168.937164 341.735687,169.004303 341.263916,169.113129 
	C341.082458,168.816925 341.190186,168.479034 341.481506,167.952240 
	C341.775757,167.932785 341.886414,168.102280 342.048950,168.570892 
z"/>
<path fill="#FFD87C" opacity="1.000000" stroke="none" 
	d="
M512.268555,337.966614 
	C511.937073,337.991028 511.787964,337.568420 511.824280,337.347717 
	C512.197571,337.222443 512.534546,337.317841 513.060791,337.608521 
	C513.033386,337.849915 512.816711,337.896027 512.268555,337.966614 
z"/>
<path fill="#FFFEE4" opacity="1.000000" stroke="none" 
	d="
M681.802551,169.095795 
	C682.038025,169.189606 682.042664,169.366272 682.056580,169.801697 
	C682.065857,170.060455 682.010315,170.037796 681.755005,170.011383 
	C681.328491,169.985367 681.157349,169.985764 680.986206,169.986160 
	C680.986206,169.986160 680.947998,169.937805 680.928345,169.912628 
	C681.065613,169.591248 681.286621,169.354980 681.802551,169.095795 
z"/>
<path fill="#F4B128" opacity="1.000000" stroke="none" 
	d="
M850.605103,169.667221 
	C850.592407,169.906662 850.364502,170.087524 850.073181,170.055267 
	C850.009766,169.842133 850.389893,169.608643 850.605103,169.667221 
z"/>
<path fill="#F4B128" opacity="1.000000" stroke="none" 
	d="
M499.757629,169.727768 
	C499.708466,169.959412 499.433838,170.094345 499.116089,170.016602 
	C499.072998,169.803925 499.532196,169.631042 499.757629,169.727768 
z"/>
<path fill="#F4B128" opacity="1.000000" stroke="none" 
	d="
M851.982239,170.049973 
	C851.771729,170.025925 851.561279,170.001877 851.051392,169.866638 
	C850.752014,169.755447 850.736572,169.269119 850.813660,169.037933 
	C851.070007,168.886581 851.249207,168.966415 851.707581,169.323242 
	C851.986755,169.600235 851.982239,170.049973 851.982239,170.049973 
z"/>
<path fill="#C8110F" opacity="1.000000" stroke="none" 
	d="
M510.875641,841.970886 
	C510.102570,842.283203 509.329498,842.595520 508.239136,842.883057 
	C508.613708,840.234436 509.902740,837.612000 509.908966,834.986633 
	C510.028381,784.669312 510.000275,734.351624 509.993408,684.034058 
	C509.992432,676.909180 509.977325,677.023132 502.779602,677.482239 
	C500.005920,677.659119 497.190979,677.035217 494.394653,677.033325 
	C443.244019,676.997925 392.093323,677.001648 340.472534,676.768250 
	C340.002441,676.539429 339.998932,676.087830 340.275269,676.019714 
	C340.736603,675.909729 340.921661,675.867798 341.433838,675.881348 
	C342.806396,675.769348 343.851807,675.601868 345.294067,675.410278 
	C346.750519,675.398193 347.810150,675.410217 349.228546,675.639893 
	C350.082703,675.906738 350.578156,675.999146 351.073578,675.999207 
	C399.805847,676.004028 448.538147,676.006348 497.270386,675.974976 
	C498.556976,675.974182 499.843262,675.602295 501.418945,675.383667 
	C502.094421,675.375916 502.480621,675.387878 503.121704,675.605713 
	C504.623871,675.674438 505.871155,675.537231 507.163025,675.297729 
	C507.207611,675.195374 507.026031,675.065613 507.311096,675.204651 
	C508.017365,675.379517 508.438599,675.415283 509.122986,675.646118 
	C510.132263,677.197815 510.878418,678.554504 511.624573,679.911133 
	C511.649567,680.650879 511.674591,681.390564 511.507385,682.613281 
	C511.442627,683.439575 511.570038,683.782776 511.697449,684.126038 
	C511.697449,684.126038 511.912140,684.192200 511.834961,684.390015 
	C511.724670,685.018738 511.691559,685.449524 511.457214,686.099060 
	C511.377869,687.231873 511.499786,688.145996 511.621674,689.060120 
	C511.669525,738.067749 511.717377,787.075439 511.752686,836.928833 
	C511.832764,838.852417 511.925385,839.930298 512.018005,841.008179 
	C512.018005,841.008179 511.907074,840.805115 511.596741,840.963989 
	C511.141113,841.401489 511.004181,841.684143 510.875641,841.970886 
z"/>
<path fill="#D40A07" opacity="1.000000" stroke="none" 
	d="
M339.998932,676.087830 
	C339.998932,676.087830 340.002441,676.539429 340.004272,676.765137 
	C335.228180,677.327209 330.450714,677.949036 325.672302,677.955933 
	C276.103638,678.027527 226.534866,678.005249 176.966110,677.984924 
	C174.417816,677.983887 171.869614,677.763611 169.152420,677.349609 
	C169.842911,676.909546 170.702332,676.765381 172.259094,676.334961 
	C228.637268,676.061829 284.318115,676.074829 339.998932,676.087830 
z"/>
<path fill="#C8110F" opacity="1.000000" stroke="none" 
	d="
M505.925842,842.783447 
	C505.850586,842.953125 505.675873,842.964661 505.238678,842.963318 
	C505.259583,842.842163 505.542999,842.733765 505.925842,842.783447 
z"/>
<path fill="#E25821" opacity="1.000000" stroke="none" 
	d="
M670.866821,675.388367 
	C618.617004,675.361389 566.367188,675.334473 513.479126,675.152588 
	C512.840942,674.997742 512.401672,674.986328 512.250977,674.536255 
	C512.086792,618.382629 512.073364,562.679077 512.385986,506.988312 
	C513.146729,507.022736 513.581482,507.044373 513.953003,507.476013 
	C513.596436,510.173279 513.049255,512.460266 513.047058,514.747864 
	C512.998352,565.547424 513.008606,616.347046 513.011230,667.146667 
	C513.011536,673.989380 513.020264,673.996399 519.965698,673.996521 
	C571.098450,673.997437 622.231140,673.995911 673.363892,673.993347 
	C679.992615,673.993042 680.040039,673.987793 679.999878,667.324585 
	C679.677856,613.903992 679.336609,560.483582 679.258789,507.034302 
	C679.687805,506.984161 679.859314,506.962799 680.234619,506.957825 
	C680.438416,506.974274 680.844177,507.025116 680.904846,507.299438 
	C681.222046,508.045990 681.478516,508.518280 681.775635,509.395691 
	C681.780334,510.884033 681.744385,511.967194 681.469360,513.376038 
	C681.158997,515.689331 681.027100,517.676941 681.025208,519.664612 
	C680.975159,571.360596 680.938599,623.056641 680.868164,674.910278 
	C680.836548,675.067932 681.015991,675.334778 680.623535,675.295837 
	C679.467957,675.398743 678.704773,675.540588 677.941589,675.682373 
	C676.283508,675.559448 674.625366,675.436523 672.232422,675.246338 
	C671.287292,675.248779 671.077087,675.318542 670.866821,675.388367 
z"/>
<path fill="#FFBE9F" opacity="1.000000" stroke="none" 
	d="
M680.847412,836.979065 
	C680.872925,785.304382 680.898376,733.629639 680.939453,681.082642 
	C680.975281,678.585144 680.995667,676.959961 681.015991,675.334778 
	C681.015991,675.334778 680.836548,675.067932 681.120728,675.090332 
	C681.643005,675.446655 681.881042,675.780457 682.071533,676.572632 
	C682.015503,730.552185 682.010010,784.073364 681.986328,837.594543 
	C681.985535,839.409973 681.800659,841.225342 681.487305,842.724731 
	C681.131165,840.598877 680.989258,838.788940 680.847412,836.979065 
z"/>
<path fill="#FFF5EF" opacity="1.000000" stroke="none" 
	d="
M680.481750,837.080322 
	C680.989258,838.788940 681.131165,840.598877 681.651489,843.024902 
	C682.681030,843.819336 683.332214,843.997681 683.986206,844.391479 
	C683.989075,844.606995 683.998901,845.037903 683.998901,845.037903 
	C683.998901,845.037903 684.001892,845.521729 684.000977,845.763672 
	C678.505920,845.019165 677.602539,842.966614 680.481750,837.080322 
z"/>
<path fill="#FFF5EF" opacity="1.000000" stroke="none" 
	d="
M680.623535,675.295837 
	C680.995667,676.959961 680.975281,678.585144 680.893311,680.617859 
	C679.885193,679.462280 678.938721,677.899109 677.966919,676.009155 
	C678.704773,675.540588 679.467957,675.398743 680.623535,675.295837 
z"/>
<path fill="#FFF5EF" opacity="1.000000" stroke="none" 
	d="
M512.364502,840.948608 
	C511.925385,839.930298 511.832764,838.852417 511.868622,837.385010 
	C514.776794,837.827332 514.642273,839.193481 512.364502,840.948608 
z"/>
<path fill="#F07273" opacity="1.000000" stroke="none" 
	d="
M512.401672,674.986328 
	C512.401672,674.986328 512.840942,674.997742 513.024780,675.117920 
	C513.208557,675.238098 513.203796,675.645203 512.837158,675.993286 
	C512.388916,677.565430 512.307373,678.789551 512.225769,680.013672 
	C512.225769,680.013672 511.901581,680.101685 511.763062,680.006409 
	C510.878418,678.554504 510.132263,677.197815 509.422150,675.469238 
	C509.912262,675.006348 510.366364,674.915344 511.213745,674.884766 
	C511.871887,674.958923 512.136780,674.972595 512.401672,674.986328 
z"/>
<path fill="#FFF5EF" opacity="1.000000" stroke="none" 
	d="
M512.440125,679.807373 
	C512.307373,678.789551 512.388916,677.565430 512.813843,676.195435 
	C512.989624,677.233459 512.822083,678.417236 512.440125,679.807373 
z"/>
<path fill="#FFF5EF" opacity="1.000000" stroke="none" 
	d="
M511.658478,685.880371 
	C511.691559,685.449524 511.724670,685.018738 511.889130,684.291626 
	C512.303162,684.956421 512.585754,685.917480 512.438110,686.649048 
	C511.891418,686.239807 511.774963,686.060120 511.658478,685.880371 
z"/>
<path fill="#F07273" opacity="1.000000" stroke="none" 
	d="
M511.457214,686.099060 
	C511.774963,686.060120 511.891418,686.239807 512.121582,686.720032 
	C512.141724,687.489380 512.048096,687.958191 511.788086,688.743591 
	C511.499786,688.145996 511.377869,687.231873 511.457214,686.099060 
z"/>
<path fill="#F07273" opacity="1.000000" stroke="none" 
	d="
M510.919067,842.280212 
	C511.004181,841.684143 511.141113,841.401489 511.486267,840.998291 
	C511.670197,841.788452 511.654327,842.703186 511.298096,843.727173 
	C510.959320,843.420715 510.960907,843.005127 510.919067,842.280212 
z"/>
<path fill="#F07273" opacity="1.000000" stroke="none" 
	d="
M511.818054,683.809814 
	C511.570038,683.782776 511.442627,683.439575 511.495239,682.983154 
	C511.763092,683.077881 511.850861,683.285767 511.818054,683.809814 
z"/>
<path fill="#FFE1D6" opacity="1.000000" stroke="none" 
	d="
M509.977478,844.415039 
	C510.149353,844.132935 510.319031,844.070312 510.757843,844.041138 
	C510.930267,844.408813 510.733582,844.666931 510.214722,844.960938 
	C509.992462,845.072937 509.975311,844.634460 509.977478,844.415039 
z"/>
<path fill="#FFBE9F" opacity="1.000000" stroke="none" 
	d="
M670.990601,675.547241 
	C671.077087,675.318542 671.287292,675.248779 671.814148,675.280457 
	C671.791931,675.489929 671.453125,675.598022 670.990601,675.547241 
z"/>
<path fill="#FACF22" opacity="1.000000" stroke="none" 
	d="
M1009.550659,169.003632 
	C1009.544678,169.329926 1009.067932,169.653412 1007.822632,169.992889 
	C959.711182,170.013428 912.368225,170.017990 865.025330,170.022583 
	C864.270691,170.010574 863.516052,169.998566 862.384399,169.980103 
	C862.459717,168.783066 862.912048,167.592484 863.079468,167.151703 
	C865.890076,167.855331 868.173950,168.921600 870.460083,168.926453 
	C916.666504,169.024338 962.873169,169.000351 1009.550659,169.003632 
z"/>
<path fill="#FACF22" opacity="1.000000" stroke="none" 
	d="
M852.428467,170.039398 
	C851.982239,170.049973 851.986755,169.600235 851.996948,169.376831 
	C852.016357,168.961746 852.025635,168.770065 852.093872,168.296326 
	C852.461426,167.873352 852.704468,167.658279 853.002258,167.151093 
	C855.369263,167.708939 857.615906,168.484726 859.937744,169.617798 
	C857.633606,169.992981 855.254150,170.010910 852.428467,170.039398 
z"/>
<path fill="#FACF22" opacity="1.000000" stroke="none" 
	d="
M1020.910461,169.682709 
	C1020.462341,170.024689 1020.048767,170.012375 1019.324341,169.987839 
	C1019.427917,169.336914 1019.842346,168.698212 1020.554382,167.983795 
	C1020.882996,168.381516 1020.914001,168.854950 1020.910461,169.682709 
z"/>
<path fill="#A61E16" opacity="1.000000" stroke="none" 
	d="
M683.983337,844.176025 
	C683.332214,843.997681 682.681030,843.819336 681.865723,843.340881 
	C681.800659,841.225342 681.985535,839.409973 681.986328,837.594543 
	C682.010010,784.073364 682.015503,730.552185 682.317322,676.564514 
	C682.610718,676.098022 683.095825,676.179993 683.069031,676.531372 
	C683.049805,677.587585 683.057312,678.292419 683.049194,679.465759 
	C683.031921,733.948547 683.030273,787.962769 683.276245,842.273743 
	C685.354614,842.689270 687.185425,842.808044 689.483765,842.933899 
	C853.932312,842.946167 1017.913330,842.952209 1181.894287,842.949463 
	C1184.890625,842.949402 1187.887085,842.845215 1190.883423,842.789551 
	C1191.072144,842.827148 1191.260742,842.864746 1191.732178,842.958862 
	C1191.566040,843.360962 1191.117188,843.706421 1190.080078,844.054932 
	C1189.321045,844.108704 1189.150146,844.159485 1188.979126,844.210205 
	C1185.818359,844.168213 1182.657593,844.089539 1179.496826,844.089417 
	C1014.979675,844.082825 850.462524,844.082886 685.225647,844.065430 
	C684.331726,844.091125 684.157532,844.133606 683.983337,844.176025 
z"/>
<path fill="#FFE1D6" opacity="1.000000" stroke="none" 
	d="
M683.986206,844.391479 
	C684.157532,844.133606 684.331726,844.091125 684.762939,844.128052 
	C684.901489,844.501587 684.701721,844.722046 684.209839,844.953369 
	C683.998901,845.037903 683.989075,844.606995 683.986206,844.391479 
z"/>
<path fill="#FFE1D6" opacity="1.000000" stroke="none" 
	d="
M1189.075073,844.363525 
	C1189.150146,844.159485 1189.321045,844.108704 1189.750000,844.129150 
	C1189.728882,844.305847 1189.449951,844.411377 1189.075073,844.363525 
z"/>
<path fill="#FB841B" opacity="1.000000" stroke="none" 
	d="
M1022.035156,504.528870 
	C1022.033081,505.421997 1021.960083,505.852203 1021.829163,506.603027 
	C1021.771240,506.923645 1021.287964,506.992401 1020.599792,507.014587 
	C964.609680,507.045197 909.307739,507.053650 853.745850,507.056152 
	C853.314087,507.072418 853.142212,507.094635 852.722534,507.121185 
	C852.474609,507.125519 851.979492,507.153503 851.800598,507.038025 
	C851.082275,506.971527 850.542786,507.020508 849.737000,507.009583 
	C849.296631,507.002960 849.122559,507.056244 848.963013,506.964844 
	C848.977539,506.820099 849.049194,506.538116 849.146667,506.197540 
	C856.487427,505.570099 863.730225,505.047974 870.973999,505.035004 
	C914.409668,504.957153 957.845520,504.996368 1001.281311,504.996368 
	C1007.271301,504.996368 1013.261230,504.996338 1019.997559,504.996338 
	C1019.997559,449.353180 1019.997559,394.178406 1019.999634,338.752869 
	C1020.001160,338.334930 1020.000671,338.167755 1020.249390,338.000427 
	C1020.498657,338.000275 1020.997253,337.999481 1021.065063,338.194702 
	C1021.263672,338.645813 1021.461975,338.828278 1021.727783,338.937286 
	C1021.792664,344.421295 1021.910950,349.905304 1021.914062,355.389343 
	C1021.942261,404.948212 1021.950195,454.507080 1022.035156,504.528870 
z"/>
<path fill="#F4B128" opacity="1.000000" stroke="none" 
	d="
M1021.801636,338.481201 
	C1021.461975,338.828278 1021.263672,338.645813 1021.066040,337.944336 
	C1020.997864,337.331726 1020.996521,337.164673 1020.995178,336.997589 
	C1020.975159,281.673889 1020.955078,226.350204 1020.933289,170.570099 
	C1020.931519,170.113663 1021.345337,170.058594 1021.553284,170.058716 
	C1021.817566,183.387344 1021.920349,196.715851 1021.921814,210.044357 
	C1021.926514,252.704620 1021.893738,295.364868 1021.801636,338.481201 
z"/>
<path fill="#FDAA13" opacity="1.000000" stroke="none" 
	d="
M334.528137,170.021805 
	C333.596954,170.355499 332.198151,170.956924 330.798737,170.958282 
	C281.044586,171.006470 231.290421,171.000702 181.536240,170.982193 
	C180.558365,170.981827 179.580582,170.739883 178.306183,170.320343 
	C230.026474,170.023254 282.043335,170.016479 334.528137,170.021805 
z"/>
<path fill="#FF523C" opacity="1.000000" stroke="none" 
	d="
M340.275269,676.019714 
	C284.318115,676.074829 228.637268,676.061829 172.493484,676.104370 
	C171.860474,676.117065 171.690430,676.074219 171.264633,675.971680 
	C171.057266,675.730469 171.105637,675.549072 171.268616,675.106445 
	C171.622330,674.713989 171.811661,674.531189 172.396118,674.315674 
	C174.466003,674.555298 176.090836,674.967712 177.715927,674.968689 
	C229.369308,675.000244 281.022705,675.003357 332.676056,674.948303 
	C334.781982,674.946045 336.887299,674.338867 339.141663,674.239502 
	C339.785706,674.623657 340.280945,674.781799 340.862061,675.160156 
	C340.947906,675.380432 341.106689,675.825806 341.106689,675.825806 
	C340.921661,675.867798 340.736603,675.909729 340.275269,676.019714 
z"/>
<path fill="#E00500" opacity="1.000000" stroke="none" 
	d="
M1190.918091,842.342773 
	C1187.887085,842.845215 1184.890625,842.949402 1181.894287,842.949463 
	C1017.913330,842.952209 853.932312,842.946167 689.208862,842.670532 
	C686.653809,842.259033 684.841187,842.118042 683.028625,841.976990 
	C683.030273,787.962769 683.031921,733.948547 683.281128,679.297241 
	C683.689636,678.118896 683.850586,677.577698 684.384338,677.023193 
	C685.504333,677.008484 686.251526,677.006897 687.143555,677.230896 
	C687.858826,677.310242 688.429199,677.164124 689.468262,677.015747 
	C742.404541,677.013428 794.872131,677.024170 847.339722,676.969360 
	C849.222778,676.967407 851.105103,676.319397 852.993591,675.977905 
	C852.999390,675.983337 852.995300,675.995911 853.244995,675.998901 
	C853.494751,676.001953 853.994019,676.003418 854.245239,676.022156 
	C854.663635,676.055725 854.830872,676.070618 855.065918,676.438843 
	C856.859009,677.513428 858.576599,678.815247 860.311279,678.838501 
	C864.272583,678.891479 868.241821,678.047668 872.208618,678.041565 
	C915.489502,677.975159 958.770630,677.979370 1002.051575,678.039246 
	C1005.505005,678.044006 1008.988708,679.018188 1012.399597,678.761292 
	C1014.653931,678.591553 1016.802979,677.025024 1019.252441,676.061279 
	C1019.674683,676.026611 1019.843750,676.014526 1020.254883,676.003418 
	C1020.496948,676.004333 1020.981201,676.007385 1020.981201,676.007385 
	C1020.981201,676.007385 1021.001770,675.997559 1021.107788,676.225708 
	C1021.415100,676.723206 1021.677185,676.905273 1022.000000,677.000000 
	C1076.094238,677.002747 1130.188354,677.005005 1184.282593,677.009155 
	C1190.992798,677.009644 1190.987427,677.014221 1190.985840,683.608337 
	C1190.973633,736.370850 1190.963501,789.133423 1190.918091,842.342773 
z"/>
<path fill="#D40A07" opacity="1.000000" stroke="none" 
	d="
M1022.003235,676.806580 
	C1021.677185,676.905273 1021.415100,676.723206 1021.105591,676.236816 
	C1021.172058,676.040894 1021.346863,676.061890 1021.776245,676.155029 
	C1022.030762,676.227051 1022.006470,676.613159 1022.003235,676.806580 
z"/>
<path fill="#F9500F" opacity="1.000000" stroke="none" 
	d="
M854.998169,676.085449 
	C854.830872,676.070618 854.663635,676.055725 854.244019,675.779602 
	C853.991699,675.518311 853.976379,675.033691 853.838013,674.638794 
	C853.478210,672.782227 853.063721,671.320618 853.063354,669.858948 
	C853.048828,616.250732 853.072693,562.642517 853.314941,508.856323 
	C853.694275,508.139587 853.850037,507.600830 854.005798,507.062103 
	C909.307739,507.053650 964.609680,507.045197 1020.359009,507.054626 
	C1020.859192,533.059326 1020.938354,559.046204 1020.957520,585.033081 
	C1020.978882,614.020813 1020.945740,643.008606 1020.695435,672.487061 
	C1020.282959,673.317932 1020.111389,673.658081 1019.939819,673.998230 
	C1019.958679,674.178101 1019.977478,674.358032 1020.010498,675.038086 
	C1020.024719,675.538208 1020.012756,676.002441 1020.012756,676.002441 
	C1019.843750,676.014526 1019.674683,676.026611 1018.983765,676.006104 
	C1018.280884,675.948792 1018.099792,675.924133 1017.625488,675.618591 
	C1016.683105,675.230530 1016.033752,675.029602 1015.384460,675.029419 
	C963.522827,675.013672 911.661194,675.007507 859.799561,675.049561 
	C858.560791,675.050537 857.322388,675.604370 855.810913,675.938049 
	C855.358093,676.012268 855.178162,676.048889 854.998169,676.085449 
z"/>
<path fill="#E25821" opacity="1.000000" stroke="none" 
	d="
M1020.170166,673.889893 
	C1020.111389,673.658081 1020.282959,673.317932 1020.676636,672.950439 
	C1020.732666,673.209229 1020.566528,673.495361 1020.170166,673.889893 
z"/>
<path fill="#D40A07" opacity="1.000000" stroke="none" 
	d="
M1020.254883,676.003418 
	C1020.012756,676.002441 1020.024719,675.538208 1020.043457,675.307373 
	C1020.390259,675.125305 1020.641357,675.290833 1020.898376,675.790222 
	C1020.981201,676.007385 1020.496948,676.004333 1020.254883,676.003418 
z"/>
<path fill="#FF8204" opacity="1.000000" stroke="none" 
	d="
M1019.997559,339.003662 
	C1019.997559,394.178406 1019.997559,449.353180 1019.997559,504.996338 
	C1013.261230,504.996338 1007.271301,504.996368 1001.281311,504.996368 
	C957.845520,504.996368 914.409668,504.957153 870.973999,505.035004 
	C863.730225,505.047974 856.487427,505.570099 848.685791,506.303406 
	C797.071167,506.769104 746.015015,506.785858 694.958801,506.816803 
	C692.968994,506.818024 690.979309,506.955231 688.650452,506.915100 
	C687.598206,506.748047 686.885010,506.694977 686.157593,506.441406 
	C686.143372,506.240875 686.043823,505.851013 685.838501,505.636841 
	C684.741760,505.778595 683.850342,506.134552 682.713928,506.643921 
	C682.297180,506.884613 682.125366,506.971893 681.676941,507.024780 
	C681.214966,507.001953 681.029541,507.013550 680.844177,507.025116 
	C680.844177,507.025116 680.438416,506.974274 680.011230,506.700684 
	C677.118164,505.591919 674.700256,504.338013 672.171814,504.048279 
	C669.979004,503.796997 667.661438,504.947998 665.398376,504.950775 
	C616.491333,505.010712 567.584290,504.982025 518.677246,505.041931 
	C516.416016,505.044708 514.155518,505.712433 511.579132,506.056335 
	C510.841400,506.012268 510.419220,505.982391 509.910278,505.795410 
	C509.549225,505.723633 509.274872,505.808960 508.661133,505.905090 
	C507.869751,505.893341 507.417786,505.870758 506.906433,505.729675 
	C506.737976,505.657867 506.628906,505.704590 506.519806,505.751312 
	C506.610321,505.814026 506.700806,505.876740 506.807251,506.139587 
	C506.823212,506.339661 506.992645,506.703583 506.583313,506.737213 
	C505.088257,506.702820 504.002502,506.634766 502.840698,506.237579 
	C500.832306,506.120789 498.899963,506.333130 496.512451,506.648407 
	C455.176208,506.769928 414.295166,506.778656 373.414154,506.816345 
	C366.274109,506.822906 359.134186,506.951538 351.577087,506.914978 
	C349.446442,506.712982 347.732941,506.619781 346.001831,506.166077 
	C345.328552,505.202484 344.651855,504.059113 344.020477,504.083618 
	C339.724762,504.250366 335.438995,504.947113 331.149292,504.953003 
	C281.586761,505.020966 232.024017,504.963776 182.461655,505.081360 
	C179.635315,505.088043 176.811874,506.323120 173.671951,506.995178 
	C172.938904,507.035004 172.521011,507.066193 172.103104,507.097351 
	C172.103104,507.097351 172.027695,507.040955 171.989243,507.013123 
	C171.949402,454.357086 171.949600,401.728912 171.936157,349.100708 
	C171.935867,347.943634 171.779755,346.786591 171.467850,345.284485 
	C171.224899,344.522675 171.210434,344.105896 171.440002,343.081421 
	C171.833023,340.985413 171.981995,339.497131 172.556946,338.013123 
	C183.767761,338.338440 194.553375,338.960510 205.337357,338.933502 
	C303.897858,338.686615 402.458038,338.326935 501.018311,338.000183 
	C501.455780,338.003479 501.893219,338.006744 503.001282,338.010712 
	C504.470947,337.692474 505.269989,337.373566 506.069031,337.054688 
	C507.091034,337.050781 508.113068,337.046875 509.513916,337.062347 
	C509.801422,337.640167 509.710052,338.198639 509.946014,339.159973 
	C511.187836,339.392761 512.102295,339.222626 513.016785,339.052490 
	C568.374512,339.034576 623.732239,339.016663 679.929810,338.997803 
	C681.512207,338.970306 682.254822,338.943726 683.465576,338.942505 
	C795.955017,338.979797 907.976318,338.991730 1019.997559,339.003662 
z"/>
<path fill="#FDAA13" opacity="1.000000" stroke="none" 
	d="
M500.721619,337.703308 
	C402.458038,338.326935 303.897858,338.686615 205.337357,338.933502 
	C194.553375,338.960510 183.767761,338.338440 172.336685,337.982849 
	C171.690460,337.948334 171.251450,337.892731 171.251450,337.892731 
	C171.244308,337.453705 171.237183,337.014679 171.333008,336.261719 
	C175.049393,336.297699 178.662659,336.951416 182.276260,336.953339 
	C286.349915,337.008087 390.423584,336.995331 494.497253,337.014618 
	C496.473175,337.014984 498.449066,337.270142 500.721619,337.703308 
z"/>
<path fill="#FDAA13" opacity="1.000000" stroke="none" 
	d="
M505.775879,336.927063 
	C505.269989,337.373566 504.470947,337.692474 503.329407,338.007629 
	C503.818848,337.602417 504.650818,337.200897 505.775879,336.927063 
z"/>
<path fill="#F8A65A" opacity="1.000000" stroke="none" 
	d="
M171.145416,338.316284 
	C171.251450,337.892731 171.690460,337.948334 171.910706,337.978607 
	C171.981995,339.497131 171.833023,340.985413 171.463394,342.769196 
	C171.174957,341.623108 171.107178,340.181488 171.145416,338.316284 
z"/>
<path fill="#F9500F" opacity="1.000000" stroke="none" 
	d="
M172.064621,507.555084 
	C172.521011,507.066193 172.938904,507.035004 174.141891,507.008179 
	C229.279282,507.025757 283.631592,507.038940 338.170929,507.389069 
	C338.902344,509.901611 339.918243,512.076355 339.922058,514.252930 
	C340.012085,565.568848 340.003937,616.884949 339.951660,668.200989 
	C339.949707,670.138855 339.326538,672.076050 338.992889,674.013550 
	C336.887299,674.338867 334.781982,674.946045 332.676056,674.948303 
	C281.022705,675.003357 229.369308,675.000244 177.715927,674.968689 
	C176.090836,674.967712 174.466003,674.555298 172.485367,674.133667 
	C172.088608,628.954529 172.044647,583.976440 172.008667,538.998291 
	C172.000397,528.669800 172.019592,518.341309 172.064621,507.555084 
z"/>
<path fill="#FE9F11" opacity="1.000000" stroke="none" 
	d="
M1019.999634,338.752869 
	C907.976318,338.991730 795.955017,338.979797 683.583618,338.734070 
	C683.445557,338.245026 683.710205,338.068390 684.027344,337.970337 
	C686.645508,337.646912 689.263611,337.041779 691.881897,337.040649 
	C800.942139,336.993927 910.002319,337.001251 1019.531250,337.251068 
	C1019.999939,337.667023 1020.000000,337.833771 1020.000122,338.000549 
	C1020.000671,338.167755 1020.001160,338.334930 1019.999634,338.752869 
z"/>
<path fill="#F4B128" opacity="1.000000" stroke="none" 
	d="
M684.015686,337.523743 
	C683.710205,338.068390 683.445557,338.245026 683.115417,338.708740 
	C682.254822,338.943726 681.512207,338.970306 680.399841,338.974182 
	C680.030090,338.951508 680.013367,338.561523 680.022827,338.366852 
	C680.690552,336.858551 681.922852,335.545654 681.924500,334.231262 
	C681.989075,281.424927 681.942383,228.618423 681.782837,175.348267 
	C681.687256,174.177399 681.718750,173.470230 681.842773,172.090469 
	C681.960266,170.957855 681.985291,170.497818 682.010315,170.037796 
	C682.010315,170.037796 682.065857,170.060455 682.096191,170.063782 
	C682.574524,170.098099 683.022583,170.129074 683.800903,170.237991 
	C684.101746,170.689774 684.072388,171.063599 683.769165,171.926788 
	C683.366394,173.296051 683.237427,174.175934 683.108459,175.055832 
	C683.082275,225.443527 683.036011,275.831207 683.072144,326.218872 
	C683.074707,329.838501 683.679321,333.457703 684.015686,337.523743 
z"/>
<path fill="#FDAA13" opacity="1.000000" stroke="none" 
	d="
M865.317993,170.315887 
	C912.368225,170.017990 959.711182,170.013428 1007.520996,170.020020 
	C1006.756653,170.353638 1005.525635,170.956772 1004.294006,170.958008 
	C958.710938,171.003983 913.127747,170.995789 867.544617,170.976151 
	C866.899902,170.975876 866.255249,170.736832 865.317993,170.315887 
z"/>
<path fill="#FDAA13" opacity="1.000000" stroke="none" 
	d="
M683.433838,175.033997 
	C683.237427,174.175934 683.366394,173.296051 683.764038,172.209503 
	C684.567688,172.680679 685.102539,173.358490 685.637451,174.036285 
	C685.011353,174.361572 684.385254,174.686859 683.433838,175.033997 
z"/>
<path fill="#F4B128" opacity="1.000000" stroke="none" 
	d="
M686.185425,170.375488 
	C686.747986,170.122421 687.511719,170.085754 688.652588,170.120636 
	C688.148743,170.325439 687.267639,170.458679 686.185425,170.375488 
z"/>
<path fill="#FDAA13" opacity="1.000000" stroke="none" 
	d="
M1020.249390,338.000427 
	C1020.000000,337.833771 1019.999939,337.667023 1019.999878,337.250061 
	C1020.166443,336.999664 1020.333130,336.999542 1020.747559,336.998474 
	C1020.996521,337.164673 1020.997864,337.331726 1020.998230,337.749146 
	C1020.997253,337.999481 1020.498657,338.000275 1020.249390,338.000427 
z"/>
<path fill="#FB841B" opacity="1.000000" stroke="none" 
	d="
M512.774048,338.918030 
	C512.102295,339.222626 511.187836,339.392761 510.132416,339.283630 
	C510.400452,338.786591 510.809448,338.568848 511.418030,338.248230 
	C511.922241,338.358124 512.226807,338.570862 512.774048,338.918030 
z"/>
<path fill="#FFED9B" opacity="1.000000" stroke="none" 
	d="
M681.755005,170.011383 
	C681.985291,170.497818 681.960266,170.957855 681.800110,171.737946 
	C681.438538,171.558182 681.212097,171.058350 680.985962,170.272339 
	C681.157349,169.985764 681.328491,169.985367 681.755005,170.011383 
z"/>
<path fill="#FFFFFF" opacity="1.000000" stroke="none" 
	d="
M502.916748,506.566711 
	C504.002502,506.634766 505.088257,506.702820 506.537964,506.866699 
	C506.901947,506.962585 506.970123,507.228485 507.216614,507.468201 
	C508.539917,509.486877 509.616760,511.265869 510.757568,513.505859 
	C510.843506,539.386841 510.894440,564.806824 510.879700,590.226746 
	C510.863739,617.804688 510.786621,645.382629 510.421875,673.010742 
	C509.080414,673.729126 508.053192,674.397339 507.026001,675.065552 
	C507.026031,675.065613 507.207611,675.195374 506.759277,675.121643 
	C505.162933,675.165283 504.014862,675.282593 502.866821,675.399902 
	C502.480621,675.387878 502.094421,675.375916 500.968018,675.212769 
	C450.750702,675.025818 401.273560,674.987244 351.796448,674.973694 
	C350.820923,674.973389 349.845367,675.266113 348.869812,675.422241 
	C347.810150,675.410217 346.750519,675.398193 345.407898,675.272095 
	C345.124939,675.158081 345.074921,674.803467 345.013794,674.489380 
	C343.815765,673.434509 342.678833,672.693726 341.428650,671.501282 
	C341.319580,617.758911 341.323761,564.468140 341.541138,511.168732 
	C341.754303,511.160095 342.166718,511.049622 342.520721,510.955627 
	C344.705780,509.910400 346.499115,508.874023 348.382050,508.039825 
	C349.513947,507.538300 350.785461,507.351868 351.994202,507.023804 
	C359.134186,506.951538 366.274109,506.822906 373.414154,506.816345 
	C414.295166,506.778656 455.176208,506.769928 496.878601,506.775970 
	C498.467804,506.897888 499.235596,506.995178 500.192657,507.329102 
	C501.263031,507.410706 502.144104,507.255768 503.015839,506.963684 
	C503.006470,506.826569 502.916748,506.566711 502.916748,506.566711 
z"/>
<path fill="#F07273" opacity="1.000000" stroke="none" 
	d="
M349.228546,675.639832 
	C349.845367,675.266113 350.820923,674.973389 351.796448,674.973694 
	C401.273560,674.987244 450.750702,675.025818 500.678772,675.232605 
	C499.843262,675.602295 498.556976,675.974182 497.270386,675.974976 
	C448.538147,676.006348 399.805847,676.004028 351.073578,675.999207 
	C350.578156,675.999146 350.082703,675.906738 349.228546,675.639832 
z"/>
<path fill="#FFF5EF" opacity="1.000000" stroke="none" 
	d="
M507.311066,675.204590 
	C508.053192,674.397339 509.080414,673.729126 510.490021,673.317383 
	C510.855103,673.990662 510.837769,674.407532 510.820435,674.824341 
	C510.366364,674.915344 509.912262,675.006348 509.158997,675.274231 
	C508.438599,675.415283 508.017365,675.379517 507.311066,675.204590 
z"/>
<path fill="#F07273" opacity="1.000000" stroke="none" 
	d="
M341.433838,675.881348 
	C341.106689,675.825806 340.947906,675.380432 341.012329,675.104858 
	C341.076752,674.829285 341.393219,674.845947 341.762390,674.833496 
	C343.112701,674.815247 344.093811,674.809387 345.074921,674.803467 
	C345.074921,674.803467 345.124939,675.158081 345.011108,675.296265 
	C343.851807,675.601868 342.806396,675.769348 341.433838,675.881348 
z"/>
<path fill="#F07273" opacity="1.000000" stroke="none" 
	d="
M503.121704,675.605774 
	C504.014862,675.282593 505.162933,675.165283 506.714691,675.223999 
	C505.871155,675.537231 504.623871,675.674438 503.121704,675.605774 
z"/>
<path fill="#FFFFFF" opacity="1.000000" stroke="none" 
	d="
M688.989563,507.029053 
	C690.979309,506.955231 692.968994,506.818024 694.958801,506.816803 
	C746.015015,506.785858 797.071167,506.769104 848.588257,506.643982 
	C849.049194,506.538116 848.977539,506.820099 848.971436,507.192017 
	C848.965393,507.563934 848.998901,508.017456 849.182983,508.261353 
	C850.146606,508.695923 850.926086,508.886536 851.778076,509.438477 
	C851.813660,510.533356 851.776733,511.266846 851.491150,512.329590 
	C851.151855,513.312622 850.981934,513.966492 850.981750,514.620361 
	C850.968323,565.478577 850.962769,616.336792 850.998230,667.195007 
	C850.999084,668.461914 851.464111,669.728638 851.767944,671.383911 
	C851.806641,672.814636 851.790100,673.856934 851.319214,674.880615 
	C796.899292,674.893005 742.933716,674.942566 688.968201,674.882812 
	C686.945923,674.880554 684.924866,673.815918 682.940308,672.758789 
	C682.988159,620.952576 683.005371,569.633911 682.976746,518.315247 
	C682.975952,516.883911 682.485107,515.452820 682.120850,513.764648 
	C681.915527,513.355286 681.812012,513.202820 681.708435,513.050354 
	C681.744385,511.967194 681.780334,510.884033 681.950073,509.182739 
	C682.166687,508.400513 682.249451,508.236450 682.724426,508.057739 
	C685.074280,507.705048 687.031921,507.367035 688.989563,507.029053 
z"/>
<path fill="#F9500F" opacity="1.000000" stroke="none" 
	d="
M679.001221,507.063080 
	C679.336609,560.483582 679.677856,613.903992 679.999878,667.324585 
	C680.040039,673.987793 679.992615,673.993042 673.363892,673.993347 
	C622.231140,673.995911 571.098450,673.997437 519.965698,673.996521 
	C513.020264,673.996399 513.011536,673.989380 513.011230,667.146667 
	C513.008606,616.347046 512.998352,565.547424 513.047058,514.747864 
	C513.049255,512.460266 513.596436,510.173279 514.419678,507.457703 
	C569.633423,507.040588 624.317261,507.051819 679.001221,507.063080 
z"/>
<path fill="#F07273" opacity="1.000000" stroke="none" 
	d="
M682.903198,673.246338 
	C684.924866,673.815918 686.945923,674.880554 688.968201,674.882812 
	C742.933716,674.942566 796.899292,674.893005 851.648804,674.902039 
	C852.651733,674.964172 852.870850,674.986328 853.058899,675.254639 
	C853.027832,675.500793 852.995300,675.995911 852.995300,675.995911 
	C852.995300,675.995911 852.999390,675.983337 852.526245,675.994019 
	C822.297852,676.003174 792.542664,675.981445 762.787476,676.006287 
	C738.187927,676.026733 713.588318,676.102173 688.660095,676.101318 
	C687.889465,676.076477 687.447571,676.103577 686.629395,676.079712 
	C685.495361,676.059692 684.737488,676.090698 683.756531,676.104004 
	C683.533447,676.086365 683.095825,676.179993 683.095825,676.179993 
	C683.095825,676.179993 682.610718,676.098022 682.364929,676.106201 
	C681.881042,675.780457 681.643005,675.446655 681.152344,674.932739 
	C680.938599,623.056641 680.975159,571.360596 681.025208,519.664612 
	C681.027100,517.676941 681.158997,515.689331 681.469360,513.376038 
	C681.812012,513.202820 681.915527,513.355286 682.034180,514.224854 
	C682.031067,566.319580 682.005859,617.697144 682.032959,669.074768 
	C682.033691,670.465393 682.600403,671.855835 682.903198,673.246338 
z"/>
<path fill="#FB841B" opacity="1.000000" stroke="none" 
	d="
M679.258789,507.034302 
	C624.317261,507.051819 569.633423,507.040588 514.482849,507.047668 
	C513.581482,507.044373 513.146729,507.022736 512.342468,507.050690 
	C511.972900,507.100281 511.822479,507.119629 511.869019,506.859314 
	C511.908600,506.422760 511.901642,506.246582 511.894684,506.070435 
	C514.155518,505.712433 516.416016,505.044708 518.677246,505.041931 
	C567.584290,504.982025 616.491333,505.010712 665.398376,504.950775 
	C667.661438,504.947998 669.979004,503.796997 672.171814,504.048279 
	C674.700256,504.338013 677.118164,505.591919 679.807434,506.684265 
	C679.859314,506.962799 679.687805,506.984161 679.258789,507.034302 
z"/>
<path fill="#FFBE9F" opacity="1.000000" stroke="none" 
	d="
M511.213715,674.884766 
	C510.837769,674.407532 510.855103,673.990662 510.804291,673.267212 
	C510.786621,645.382629 510.863739,617.804688 510.879700,590.226746 
	C510.894440,564.806824 510.843506,539.386841 510.832947,513.093628 
	C510.829926,510.567291 510.815460,508.914337 511.054749,507.214386 
	C511.479828,507.151489 511.651154,507.135559 511.822479,507.119629 
	C511.822479,507.119629 511.972900,507.100281 512.016357,507.037903 
	C512.073364,562.679077 512.086792,618.382629 512.250977,674.536255 
	C512.136780,674.972595 511.871887,674.958923 511.213715,674.884766 
z"/>
<path fill="#F07273" opacity="1.000000" stroke="none" 
	d="
M682.332214,508.072388 
	C682.249451,508.236450 682.166687,508.400513 681.909424,508.777557 
	C681.478516,508.518280 681.222046,508.045990 680.904846,507.299438 
	C681.029541,507.013550 681.214966,507.001953 681.750854,507.285614 
	C682.178223,507.744720 682.255249,507.908569 682.332214,508.072388 
z"/>
<path fill="#C8110F" opacity="1.000000" stroke="none" 
	d="
M683.276245,842.273743 
	C684.841187,842.118042 686.653809,842.259033 688.741333,842.663452 
	C687.185425,842.808044 685.354614,842.689270 683.276245,842.273743 
z"/>
<path fill="#D40A07" opacity="1.000000" stroke="none" 
	d="
M683.069031,676.531372 
	C683.095825,676.179993 683.533447,676.086365 683.764282,676.332153 
	C683.995056,676.577881 684.011475,677.036438 684.011475,677.036438 
	C683.850586,677.577698 683.689636,678.118896 683.296814,678.828674 
	C683.057312,678.292419 683.049805,677.587585 683.069031,676.531372 
z"/>
<path fill="#CC6137" opacity="1.000000" stroke="none" 
	d="
M853.089966,675.008545 
	C852.870850,674.986328 852.651733,674.964172 852.103149,674.920654 
	C851.790100,673.856934 851.806641,672.814636 851.868591,670.925415 
	C851.931335,618.210510 851.949707,566.342590 851.956543,514.474731 
	C851.956665,513.649963 851.815186,512.825134 851.739807,512.000366 
	C851.776733,511.266846 851.813660,510.533356 851.860840,509.123260 
	C851.907166,508.015625 851.943359,507.584564 851.979492,507.153503 
	C851.979492,507.153503 852.474609,507.125519 852.731689,507.439880 
	C853.023010,508.180939 853.057190,508.607635 853.091309,509.034332 
	C853.072693,562.642517 853.048828,616.250732 853.063354,669.858948 
	C853.063721,671.320618 853.478210,672.782227 853.616821,674.630737 
	C853.533997,675.017639 853.089966,675.008545 853.089966,675.008545 
z"/>
<path fill="#FFE1D6" opacity="1.000000" stroke="none" 
	d="
M851.800598,507.038025 
	C851.943359,507.584564 851.907166,508.015625 851.788330,508.761902 
	C850.926086,508.886536 850.146606,508.695923 849.396851,508.158051 
	C849.690369,507.619385 849.882629,507.372253 850.003357,507.069458 
	C850.542786,507.020508 851.082275,506.971527 851.800598,507.038025 
z"/>
<path fill="#E25821" opacity="1.000000" stroke="none" 
	d="
M853.314941,508.856323 
	C853.057190,508.607635 853.023010,508.180939 852.979614,507.435547 
	C853.142212,507.094635 853.314087,507.072418 853.745850,507.056152 
	C853.850037,507.600830 853.694275,508.139587 853.314941,508.856323 
z"/>
<path fill="#FFFEE4" opacity="1.000000" stroke="none" 
	d="
M849.737000,507.009583 
	C849.882629,507.372253 849.690369,507.619385 849.212708,507.914124 
	C848.998901,508.017456 848.965393,507.563934 848.956970,507.336731 
	C849.122559,507.056244 849.296631,507.002960 849.737000,507.009583 
z"/>
<path fill="#E25821" opacity="1.000000" stroke="none" 
	d="
M341.327942,511.177368 
	C341.323761,564.468140 341.319580,617.758911 341.304077,671.848267 
	C341.326202,673.379944 341.359711,674.112915 341.393219,674.845947 
	C341.393219,674.845947 341.076752,674.829285 340.926453,674.884583 
	C340.280945,674.781799 339.785706,674.623657 339.141663,674.239502 
	C339.326538,672.076050 339.949707,670.138855 339.951660,668.200989 
	C340.003937,616.884949 340.012085,565.568848 339.922058,514.252930 
	C339.918243,512.076355 338.902344,509.901611 338.569092,507.370911 
	C339.576141,507.029358 340.372070,507.042908 341.191925,507.412445 
	C341.256927,508.480286 341.297974,509.192169 341.247009,510.221588 
	C341.212677,510.751923 341.270294,510.964661 341.327942,511.177368 
z"/>
<path fill="#D40A07" opacity="1.000000" stroke="none" 
	d="
M855.065918,676.438843 
	C855.178162,676.048889 855.358093,676.012268 856.269592,675.969971 
	C910.640259,675.942627 964.279480,675.921021 1017.918640,675.899414 
	C1018.099792,675.924133 1018.280884,675.948792 1018.730591,676.028687 
	C1016.802979,677.025024 1014.653931,678.591553 1012.399597,678.761292 
	C1008.988708,679.018188 1005.505005,678.044006 1002.051575,678.039246 
	C958.770630,677.979370 915.489502,677.975159 872.208618,678.041565 
	C868.241821,678.047668 864.272583,678.891479 860.311279,678.838501 
	C858.576599,678.815247 856.859009,677.513428 855.065918,676.438843 
z"/>
<path fill="#C8110F" opacity="1.000000" stroke="none" 
	d="
M688.988770,676.153259 
	C713.588318,676.102173 738.187927,676.026733 762.787476,676.006287 
	C792.542664,675.981445 822.297852,676.003174 852.520386,675.988647 
	C851.105103,676.319397 849.222778,676.967407 847.339722,676.969360 
	C794.872131,677.024170 742.404541,677.013428 689.466003,676.799438 
	C688.995117,676.585388 688.988770,676.153259 688.988770,676.153259 
z"/>
<path fill="#D40A07" opacity="1.000000" stroke="none" 
	d="
M688.660095,676.101318 
	C688.988770,676.153259 688.995117,676.585388 688.997314,676.801636 
	C688.429199,677.164124 687.858826,677.310242 687.144897,677.012207 
	C687.001343,676.567932 687.005615,676.130737 687.005615,676.130737 
	C687.447571,676.103577 687.889465,676.076477 688.660095,676.101318 
z"/>
<path fill="#C8110F" opacity="1.000000" stroke="none" 
	d="
M686.629395,676.079712 
	C687.005615,676.130737 687.001343,676.567932 687.000000,676.786621 
	C686.251526,677.006897 685.504333,677.008484 684.384338,677.023193 
	C684.011475,677.036438 683.995056,676.577881 683.987305,676.349731 
	C684.737488,676.090698 685.495361,676.059692 686.629395,676.079712 
z"/>
<path fill="#D40A07" opacity="1.000000" stroke="none" 
	d="
M853.058899,675.254639 
	C853.089966,675.008545 853.533997,675.017639 853.755188,675.025635 
	C853.976379,675.033691 853.991699,675.518311 853.992859,675.760864 
	C853.994019,676.003418 853.494751,676.001953 853.244995,675.998901 
	C852.995300,675.995911 853.027832,675.500793 853.058899,675.254639 
z"/>
<path fill="#FF523C" opacity="1.000000" stroke="none" 
	d="
M1017.625488,675.618652 
	C964.279480,675.921021 910.640259,675.942627 856.542480,675.932312 
	C857.322388,675.604370 858.560791,675.050537 859.799561,675.049561 
	C911.661194,675.007507 963.522827,675.013672 1015.384460,675.029419 
	C1016.033752,675.029602 1016.683105,675.230530 1017.625488,675.618652 
z"/>
<path fill="#FB841B" opacity="1.000000" stroke="none" 
	d="
M341.167969,507.056458 
	C340.372070,507.042908 339.576141,507.029358 338.382080,507.033936 
	C283.631592,507.038940 229.279282,507.025757 174.457031,506.999512 
	C176.811874,506.323120 179.635315,505.088043 182.461655,505.081360 
	C232.024017,504.963776 281.586761,505.020966 331.149292,504.953003 
	C335.438995,504.947113 339.724762,504.250366 344.020477,504.083618 
	C344.651855,504.059113 345.328552,505.202484 345.610046,506.283325 
	C343.879913,506.859589 342.523926,506.958008 341.167969,507.056458 
z"/>
<path fill="#FFFEE4" opacity="1.000000" stroke="none" 
	d="
M341.191925,507.412415 
	C342.523926,506.958008 343.879913,506.859589 345.627625,506.643890 
	C347.732941,506.619781 349.446442,506.712982 351.577087,506.915009 
	C350.785461,507.351868 349.513947,507.538300 348.382050,508.039825 
	C346.499115,508.874023 344.705780,509.910400 342.414307,510.739655 
	C341.837402,510.303528 341.632446,510.065643 341.339020,509.904022 
	C341.297974,509.192169 341.256927,508.480286 341.191925,507.412415 
z"/>
<path fill="#FB841B" opacity="1.000000" stroke="none" 
	d="
M500.003387,507.092499 
	C499.235596,506.995178 498.467804,506.897888 497.333832,506.673035 
	C498.899963,506.333130 500.832306,506.120789 502.840698,506.237579 
	C502.916748,506.566711 503.006470,506.826569 502.723694,506.819397 
	C502.247131,506.714203 502.053284,506.616180 501.777222,506.454132 
	C501.490936,506.298828 501.306824,506.340637 500.858429,506.660950 
	C500.383911,506.901703 500.193665,506.997101 500.003387,507.092499 
z"/>
<path fill="#FFFEE4" opacity="1.000000" stroke="none" 
	d="
M682.724426,508.057739 
	C682.255249,507.908569 682.178223,507.744720 682.027344,507.320007 
	C682.125366,506.971893 682.297180,506.884613 683.031006,506.761108 
	C684.042236,506.708130 684.491394,506.691376 685.250854,506.758392 
	C685.764709,506.775421 685.968323,506.708649 686.171875,506.641907 
	C686.885010,506.694977 687.598206,506.748047 688.650452,506.915100 
	C687.031921,507.367035 685.074280,507.705048 682.724426,508.057739 
z"/>
<path fill="#F8A65A" opacity="1.000000" stroke="none" 
	d="
M511.869019,506.859314 
	C511.651154,507.135559 511.479828,507.151489 510.676453,507.140076 
	C509.019623,507.151337 507.994873,507.189911 506.970123,507.228485 
	C506.970123,507.228485 506.901947,506.962585 506.947296,506.833069 
	C506.992645,506.703583 506.823212,506.339661 506.869202,506.151794 
	C506.915192,505.963898 506.965820,505.848175 506.965820,505.848175 
	C507.417786,505.870758 507.869751,505.893341 508.908661,505.945984 
	C509.662720,505.968231 509.829865,505.960358 509.997040,505.952515 
	C510.419220,505.982391 510.841400,506.012268 511.579132,506.056305 
	C511.901642,506.246582 511.908600,506.422760 511.869019,506.859314 
z"/>
<path fill="#FB841B" opacity="1.000000" stroke="none" 
	d="
M684.940552,506.674622 
	C684.491394,506.691376 684.042236,506.708130 683.276001,506.607666 
	C683.850342,506.134552 684.741760,505.778595 685.631226,505.745789 
	C685.332092,506.194000 685.102478,506.395905 684.940552,506.674622 
z"/>
<path fill="#F8A65A" opacity="1.000000" stroke="none" 
	d="
M685.250854,506.758392 
	C685.102478,506.395905 685.332092,506.194000 685.836548,505.959961 
	C686.043823,505.851013 686.143372,506.240875 686.157593,506.441406 
	C685.968323,506.708649 685.764709,506.775421 685.250854,506.758392 
z"/>
<path fill="#FB841B" opacity="1.000000" stroke="none" 
	d="
M509.910278,505.795380 
	C509.829865,505.960358 509.662720,505.968231 509.248077,505.935181 
	C509.274872,505.808960 509.549225,505.723633 509.910278,505.795380 
z"/>
<path fill="#FB841B" opacity="1.000000" stroke="none" 
	d="
M506.853241,505.951691 
	C506.700806,505.876740 506.610321,505.814026 506.519806,505.751312 
	C506.628906,505.704590 506.737976,505.657867 506.906433,505.729675 
	C506.965820,505.848175 506.915192,505.963898 506.853241,505.951691 
z"/>
<path fill="#FFFEE4" opacity="1.000000" stroke="none" 
	d="
M507.216614,507.468201 
	C507.994873,507.189911 509.019623,507.151337 510.422668,507.187073 
	C510.815460,508.914337 510.829926,510.567291 510.768982,512.632568 
	C509.616760,511.265869 508.539917,509.486877 507.216614,507.468201 
z"/>
<path fill="#FFF5EF" opacity="1.000000" stroke="none" 
	d="
M341.762390,674.833496 
	C341.359711,674.112915 341.326202,673.379944 341.417297,672.299927 
	C342.678833,672.693726 343.815765,673.434509 345.013794,674.489380 
	C344.093811,674.809387 343.112701,674.815247 341.762390,674.833496 
z"/>
<path fill="#FFFEE4" opacity="1.000000" stroke="none" 
	d="
M500.192657,507.329102 
	C500.193665,506.997101 500.383911,506.901703 501.037262,506.730042 
	C501.500336,506.653748 501.859467,506.518158 501.859467,506.518158 
	C502.053284,506.616180 502.247131,506.714203 502.733093,506.956543 
	C502.144104,507.255768 501.263031,507.410706 500.192657,507.329102 
z"/>
<path fill="#FFBE9F" opacity="1.000000" stroke="none" 
	d="
M341.247009,510.221588 
	C341.632446,510.065643 341.837402,510.303528 342.060303,510.833649 
	C342.166718,511.049622 341.754303,511.160095 341.541138,511.168732 
	C341.270294,510.964661 341.212677,510.751923 341.247009,510.221588 
z"/>
<path fill="#FFE1D6" opacity="1.000000" stroke="none" 
	d="
M851.491150,512.329590 
	C851.815186,512.825134 851.956665,513.649963 851.956543,514.474731 
	C851.949707,566.342590 851.931335,618.210510 851.813354,670.536865 
	C851.464111,669.728638 850.999084,668.461914 850.998230,667.195007 
	C850.962769,616.336792 850.968323,565.478577 850.981750,514.620361 
	C850.981934,513.966492 851.151855,513.312622 851.491150,512.329590 
z"/>
<path fill="#FFFEE4" opacity="1.000000" stroke="none" 
	d="
M682.940308,672.758789 
	C682.600403,671.855835 682.033691,670.465393 682.032959,669.074768 
	C682.005859,617.697144 682.031067,566.319580 682.135986,514.481812 
	C682.485107,515.452820 682.975952,516.883911 682.976746,518.315247 
	C683.005371,569.633911 682.988159,620.952576 682.940308,672.758789 
z"/>
<path fill="#FF8204" opacity="1.000000" stroke="none" 
	d="
M501.777222,506.454132 
	C501.859467,506.518158 501.500336,506.653748 501.321503,506.584656 
	C501.306824,506.340637 501.490936,506.298828 501.777222,506.454132 
z"/>
</svg>