<svg version="1.1" id="Layer_1" xmlns="http://www.w3.org/2000/svg" xmlns:xlink="http://www.w3.org/1999/xlink" x="0px" y="0px"
	 width="100%" viewBox="0 0 800 800" enable-background="new 0 0 800 800" xml:space="preserve">
<path fill="#1B2C5A" opacity="1.000000" stroke="none" 
	d="
M503.000000,801.000000 
	C335.333344,801.000000 168.166672,801.000000 1.000000,801.000000 
	C1.000000,534.333313 1.000000,267.666656 1.000000,1.000000 
	C267.666656,1.000000 534.333313,1.000000 801.000000,1.000000 
	C801.000000,267.666656 801.000000,534.333313 801.000000,801.000000 
	C701.833313,801.000000 602.666687,801.000000 503.000000,801.000000 
M89.710007,201.141495 
	C81.558014,207.401215 78.573654,215.766983 79.655457,225.794189 
	C80.726372,235.720490 81.488853,245.690918 82.908997,255.566864 
	C90.437431,307.921326 108.376419,356.331024 139.161438,399.527710 
	C165.210434,436.078918 197.101471,465.860748 239.569504,482.820068 
	C252.161057,487.848480 263.793823,494.476593 273.360260,504.440735 
	C278.605743,509.904266 286.837097,509.715759 291.699432,504.705688 
	C296.396576,499.865784 296.158051,492.075500 291.080200,486.709991 
	C282.862640,478.027008 273.234192,471.213501 262.541107,465.990021 
	C253.436859,461.542603 243.944839,457.870636 234.939529,453.242401 
	C201.001633,435.800140 175.480362,409.225311 154.647034,377.839539 
	C127.166107,336.439087 112.101387,290.537506 106.172272,241.447067 
	C105.388680,234.959259 105.081795,228.413910 104.492989,221.139801 
	C138.579819,233.837784 173.478836,237.852844 207.625992,243.028976 
	C211.482834,256.661865 214.773483,270.059509 219.073883,283.124786 
	C227.895737,309.926941 241.388870,333.937714 262.979889,352.767700 
	C277.901855,365.781494 295.221954,375.109253 312.272186,384.846680 
	C327.338928,393.451324 341.799042,402.889526 354.466278,414.866699 
	C380.257050,439.252319 400.723785,467.626740 417.053406,499.012695 
	C436.533783,536.454407 448.617950,576.141296 452.088470,618.299927 
	C452.825470,627.252502 453.019104,636.249878 453.458405,645.226868 
	C453.845215,653.131775 458.579041,658.128113 465.757782,658.199158 
	C473.322571,658.273987 478.173828,653.362366 478.500397,645.274719 
	C478.554138,643.943481 478.515656,642.608704 478.540100,641.276001 
	C478.940247,619.457397 479.949951,597.714417 483.869934,576.155823 
	C489.065491,547.582092 501.604004,523.656189 526.351685,507.313293 
	C540.233459,498.145996 554.632935,489.753418 568.396362,480.417999 
	C621.006714,444.733795 661.809021,398.477264 690.517456,341.777222 
	C709.276306,304.727966 720.442505,265.397491 723.001831,223.851273 
	C724.234497,203.840942 706.204773,191.281708 687.310913,198.325027 
	C680.478943,200.871872 673.516663,203.180786 666.457581,204.987946 
	C630.594177,214.169159 593.707458,217.234314 557.291626,223.135269 
	C537.807800,226.292496 518.114502,229.349228 499.262787,234.961029 
	C463.138397,245.714584 435.172852,268.778473 412.047699,298.001404 
	C407.057526,304.307343 402.466431,310.929108 397.545685,317.603210 
	C396.497498,315.723389 395.709045,314.259064 394.875061,312.821106 
	C369.389648,268.877594 333.452728,238.541412 282.502136,229.371872 
	C246.994675,222.981583 211.143036,218.519455 175.481079,212.965332 
	C155.440125,209.844070 135.468857,206.162170 116.479317,198.732880 
	C107.257996,195.125198 98.683556,195.352905 89.710007,201.141495 
M330.335297,474.169861 
	C347.072845,491.103424 359.392761,510.860626 367.932190,533.028992 
	C377.334930,557.438477 381.813721,582.898254 383.972595,608.836243 
	C384.621918,616.637390 389.616730,622.224182 396.889069,622.888794 
	C403.550476,623.497681 409.980957,619.180664 411.534576,612.624756 
	C412.133759,610.096436 412.223633,607.271057 411.798584,604.704651 
	C408.624176,585.536316 406.510925,566.080200 401.719116,547.313293 
	C388.733490,496.456207 360.637024,455.699219 316.286743,427.007904 
	C300.110901,416.543365 283.071442,407.416656 266.462097,397.618378 
	C246.814545,386.027802 227.397186,374.145294 211.127655,357.808746 
	C196.405533,343.025970 186.521103,325.722076 182.617661,305.149719 
	C181.430771,298.894531 178.321472,294.413788 171.940155,292.699554 
	C166.396774,291.210449 161.715836,292.886169 157.932358,296.970947 
	C153.709641,301.529968 154.246277,306.963745 155.412079,312.505798 
	C162.004257,343.844391 179.264648,368.419037 203.495941,388.609375 
	C224.192139,405.854095 247.511856,419.055054 270.820129,432.258636 
	C291.832947,444.161926 312.792419,456.110138 330.335297,474.169861 
M312.263123,587.958191 
	C315.248627,596.500305 322.189575,600.748047 329.807281,598.694946 
	C337.443024,596.636963 341.241272,589.487427 339.457581,580.553406 
	C338.937866,577.950317 338.509644,575.327759 337.939606,572.736084 
	C334.292053,556.152832 329.203796,540.065063 321.323792,524.954651 
	C318.021057,518.621338 312.375275,515.395081 306.477570,516.383606 
	C296.177155,518.110229 291.397644,527.868164 296.323395,537.586487 
	C304.273834,553.272583 309.129272,569.911011 312.263123,587.958191 
M321.527069,614.912598 
	C317.744598,617.980530 316.325745,622.031616 316.462250,626.793823 
	C316.685791,634.589661 316.753693,642.390747 317.044830,650.183655 
	C317.329529,657.804626 323.422546,663.733765 330.833160,663.826477 
	C338.508728,663.922546 344.885712,657.904907 344.947754,650.067688 
	C345.010803,642.103821 344.932343,634.120605 344.444061,626.174805 
	C343.672241,613.615173 333.070190,608.156555 321.527069,614.912598 
M401.639984,635.900574 
	C391.398132,634.914795 385.084747,640.529663 385.004547,650.727051 
	C384.971893,654.878235 384.927307,659.031555 385.016357,663.181152 
	C385.192169,671.377197 390.840302,677.105164 398.715851,677.183899 
	C407.013855,677.266846 412.813629,671.660522 412.983002,663.293396 
	C413.067017,659.143616 413.016083,654.990540 412.991974,650.839172 
	C412.945557,642.838196 410.083069,638.842590 401.639984,635.900574 
z"/>
<path fill="#FBFCFD" opacity="1.000000" stroke="none" 
	d="
M90.023232,200.954620 
	C98.683556,195.352905 107.257996,195.125198 116.479317,198.732880 
	C135.468857,206.162170 155.440125,209.844070 175.481079,212.965332 
	C211.143036,218.519455 246.994675,222.981583 282.502136,229.371872 
	C333.452728,238.541412 369.389648,268.877594 394.875061,312.821106 
	C395.709045,314.259064 396.497498,315.723389 397.545685,317.603210 
	C402.466431,310.929108 407.057526,304.307343 412.047699,298.001404 
	C435.172852,268.778473 463.138397,245.714584 499.262787,234.961029 
	C518.114502,229.349228 537.807800,226.292496 557.291626,223.135269 
	C593.707458,217.234314 630.594177,214.169159 666.457581,204.987946 
	C673.516663,203.180786 680.478943,200.871872 687.310913,198.325027 
	C706.204773,191.281708 724.234497,203.840942 723.001831,223.851273 
	C720.442505,265.397491 709.276306,304.727966 690.517456,341.777222 
	C661.809021,398.477264 621.006714,444.733795 568.396362,480.417999 
	C554.632935,489.753418 540.233459,498.145996 526.351685,507.313293 
	C501.604004,523.656189 489.065491,547.582092 483.869934,576.155823 
	C479.949951,597.714417 478.940247,619.457397 478.540100,641.276001 
	C478.515656,642.608704 478.554138,643.943481 478.500397,645.274719 
	C478.173828,653.362366 473.322571,658.273987 465.757782,658.199158 
	C458.579041,658.128113 453.845215,653.131775 453.458405,645.226868 
	C453.019104,636.249878 452.825470,627.252502 452.088470,618.299927 
	C448.617950,576.141296 436.533783,536.454407 417.053406,499.012695 
	C400.723785,467.626740 380.257050,439.252319 354.466278,414.866699 
	C341.799042,402.889526 327.338928,393.451324 312.272186,384.846680 
	C295.221954,375.109253 277.901855,365.781494 262.979889,352.767700 
	C241.388870,333.937714 227.895737,309.926941 219.073883,283.124786 
	C214.773483,270.059509 211.482834,256.661865 207.625992,243.028976 
	C173.478836,237.852844 138.579819,233.837784 104.492989,221.139801 
	C105.081795,228.413910 105.388680,234.959259 106.172272,241.447067 
	C112.101387,290.537506 127.166107,336.439087 154.647034,377.839539 
	C175.480362,409.225311 201.001633,435.800140 234.939529,453.242401 
	C243.944839,457.870636 253.436859,461.542603 262.541107,465.990021 
	C273.234192,471.213501 282.862640,478.027008 291.080200,486.709991 
	C296.158051,492.075500 296.396576,499.865784 291.699432,504.705688 
	C286.837097,509.715759 278.605743,509.904266 273.360260,504.440735 
	C263.793823,494.476593 252.161057,487.848480 239.569504,482.820068 
	C197.101471,465.860748 165.210434,436.078918 139.161438,399.527710 
	C108.376419,356.331024 90.437431,307.921326 82.908997,255.566864 
	C81.488853,245.690918 80.726372,235.720490 79.655457,225.794189 
	C78.573654,215.766983 81.558014,207.401215 90.023232,200.954620 
M657.951355,266.402039 
	C651.162659,301.477966 636.736877,333.135742 614.933289,361.368988 
	C583.182434,402.482788 541.586792,430.483063 494.459930,450.953400 
	C486.358093,454.472595 478.224640,451.407410 475.098206,444.112823 
	C471.837830,436.505829 475.335327,428.811981 483.790039,425.149109 
	C502.766937,416.927673 520.970032,407.282623 537.977051,395.483307 
	C584.239319,363.386963 617.046875,321.729462 629.407043,265.778229 
	C631.428772,256.626343 632.347168,247.230698 633.870239,237.332443 
	C620.451843,239.330322 608.371826,241.128922 597.762207,242.708603 
	C595.397644,255.726288 593.360962,267.643372 590.977112,279.490601 
	C590.477722,281.972321 589.092896,284.533813 587.432434,286.473236 
	C583.267334,291.338104 576.333130,292.280426 570.566223,289.231537 
	C564.966858,286.271271 562.351807,279.960144 563.729370,273.588043 
	C565.604431,264.914886 567.232910,256.188416 569.098694,246.824478 
	C566.072205,247.031143 564.444214,247.019363 562.858032,247.270782 
	C553.169556,248.806458 543.504944,250.497360 533.805725,251.959793 
	C502.633911,256.659882 475.483398,269.639832 452.423523,291.170013 
	C433.969910,308.399506 419.241089,328.388580 408.127350,351.025665 
	C405.563904,356.247009 401.632935,359.023285 395.927216,358.805084 
	C389.943481,358.576294 386.416748,355.021667 384.134186,349.609253 
	C380.910248,341.964600 377.763641,334.219360 373.722443,326.999420 
	C358.416565,299.654236 337.897797,277.500580 309.190796,263.725861 
	C292.762451,255.842911 275.028046,253.012207 257.328003,250.032944 
	C250.013870,248.801834 242.656616,247.826859 234.685974,246.641220 
	C236.316528,252.903870 237.596146,258.375031 239.167786,263.760986 
	C246.916199,290.314392 257.540100,315.542236 279.536102,333.495728 
	C291.826599,343.527374 305.402344,352.357666 319.405579,359.847260 
	C360.376984,381.760590 392.216003,413.155579 417.929688,451.308472 
	C438.228210,481.426483 453.785339,513.823303 464.522156,549.342407 
	C465.521790,546.889526 466.306885,545.096619 466.989990,543.265686 
	C472.771698,527.768921 481.318604,514.070374 493.139435,502.418091 
	C505.342499,490.389069 519.492920,480.999939 534.150269,472.404755 
	C561.752686,456.218384 586.836670,436.919098 608.906128,413.715759 
	C654.550171,365.726624 685.280151,310.104248 695.711670,244.116379 
	C696.881592,236.715393 697.456055,229.220261 698.314453,221.700226 
	C686.749695,224.965073 676.115784,228.158676 665.363831,230.886993 
	C662.094482,231.716599 661.300964,233.136246 661.049683,236.277588 
	C660.267883,246.050339 659.056641,255.788742 657.951355,266.402039 
z"/>
<path fill="#FBFCFD" opacity="1.000000" stroke="none" 
	d="
M330.078674,473.922058 
	C312.792419,456.110138 291.832947,444.161926 270.820129,432.258636 
	C247.511856,419.055054 224.192139,405.854095 203.495941,388.609375 
	C179.264648,368.419037 162.004257,343.844391 155.412079,312.505798 
	C154.246277,306.963745 153.709641,301.529968 157.932358,296.970947 
	C161.715836,292.886169 166.396774,291.210449 171.940155,292.699554 
	C178.321472,294.413788 181.430771,298.894531 182.617661,305.149719 
	C186.521103,325.722076 196.405533,343.025970 211.127655,357.808746 
	C227.397186,374.145294 246.814545,386.027802 266.462097,397.618378 
	C283.071442,407.416656 300.110901,416.543365 316.286743,427.007904 
	C360.637024,455.699219 388.733490,496.456207 401.719116,547.313293 
	C406.510925,566.080200 408.624176,585.536316 411.798584,604.704651 
	C412.223633,607.271057 412.133759,610.096436 411.534576,612.624756 
	C409.980957,619.180664 403.550476,623.497681 396.889069,622.888794 
	C389.616730,622.224182 384.621918,616.637390 383.972595,608.836243 
	C381.813721,582.898254 377.334930,557.438477 367.932190,533.028992 
	C359.392761,510.860626 347.072845,491.103424 330.078674,473.922058 
z"/>
<path fill="#FBFCFD" opacity="1.000000" stroke="none" 
	d="
M312.184692,587.560852 
	C309.129272,569.911011 304.273834,553.272583 296.323395,537.586487 
	C291.397644,527.868164 296.177155,518.110229 306.477570,516.383606 
	C312.375275,515.395081 318.021057,518.621338 321.323792,524.954651 
	C329.203796,540.065063 334.292053,556.152832 337.939606,572.736084 
	C338.509644,575.327759 338.937866,577.950317 339.457581,580.553406 
	C341.241272,589.487427 337.443024,596.636963 329.807281,598.694946 
	C322.189575,600.748047 315.248627,596.500305 312.184692,587.560852 
z"/>
<path fill="#FBFCFC" opacity="1.000000" stroke="none" 
	d="
M321.825439,614.677368 
	C333.070190,608.156555 343.672241,613.615173 344.444061,626.174805 
	C344.932343,634.120605 345.010803,642.103821 344.947754,650.067688 
	C344.885712,657.904907 338.508728,663.922546 330.833160,663.826477 
	C323.422546,663.733765 317.329529,657.804626 317.044830,650.183655 
	C316.753693,642.390747 316.685791,634.589661 316.462250,626.793823 
	C316.325745,622.031616 317.744598,617.980530 321.825439,614.677368 
z"/>
<path fill="#FBFCFC" opacity="1.000000" stroke="none" 
	d="
M402.020172,635.948608 
	C410.083069,638.842590 412.945557,642.838196 412.991974,650.839172 
	C413.016083,654.990540 413.067017,659.143616 412.983002,663.293396 
	C412.813629,671.660522 407.013855,677.266846 398.715851,677.183899 
	C390.840302,677.105164 385.192169,671.377197 385.016357,663.181152 
	C384.927307,659.031555 384.971893,654.878235 385.004547,650.727051 
	C385.084747,640.529663 391.398132,634.914795 402.020172,635.948608 
z"/>
<path fill="#1D2D5A" opacity="1.000000" stroke="none" 
	d="
M657.981689,265.971252 
	C659.056641,255.788742 660.267883,246.050339 661.049683,236.277588 
	C661.300964,233.136246 662.094482,231.716599 665.363831,230.886993 
	C676.115784,228.158676 686.749695,224.965073 698.314453,221.700226 
	C697.456055,229.220261 696.881592,236.715393 695.711670,244.116379 
	C685.280151,310.104248 654.550171,365.726624 608.906128,413.715759 
	C586.836670,436.919098 561.752686,456.218384 534.150269,472.404755 
	C519.492920,480.999939 505.342499,490.389069 493.139435,502.418091 
	C481.318604,514.070374 472.771698,527.768921 466.989990,543.265686 
	C466.306885,545.096619 465.521790,546.889526 464.522156,549.342407 
	C453.785339,513.823303 438.228210,481.426483 417.929688,451.308472 
	C392.216003,413.155579 360.376984,381.760590 319.405579,359.847260 
	C305.402344,352.357666 291.826599,343.527374 279.536102,333.495728 
	C257.540100,315.542236 246.916199,290.314392 239.167786,263.760986 
	C237.596146,258.375031 236.316528,252.903870 234.685974,246.641220 
	C242.656616,247.826859 250.013870,248.801834 257.328003,250.032944 
	C275.028046,253.012207 292.762451,255.842911 309.190796,263.725861 
	C337.897797,277.500580 358.416565,299.654236 373.722443,326.999420 
	C377.763641,334.219360 380.910248,341.964600 384.134186,349.609253 
	C386.416748,355.021667 389.943481,358.576294 395.927216,358.805084 
	C401.632935,359.023285 405.563904,356.247009 408.127350,351.025665 
	C419.241089,328.388580 433.969910,308.399506 452.423523,291.170013 
	C475.483398,269.639832 502.633911,256.659882 533.805725,251.959793 
	C543.504944,250.497360 553.169556,248.806458 562.858032,247.270782 
	C564.444214,247.019363 566.072205,247.031143 569.098694,246.824478 
	C567.232910,256.188416 565.604431,264.914886 563.729370,273.588043 
	C562.351807,279.960144 564.966858,286.271271 570.566223,289.231537 
	C576.333130,292.280426 583.267334,291.338104 587.432434,286.473236 
	C589.092896,284.533813 590.477722,281.972321 590.977112,279.490601 
	C593.360962,267.643372 595.397644,255.726288 597.762207,242.708603 
	C608.371826,241.128922 620.451843,239.330322 633.870239,237.332443 
	C632.347168,247.230698 631.428772,256.626343 629.407043,265.778229 
	C617.046875,321.729462 584.239319,363.386963 537.977051,395.483307 
	C520.970032,407.282623 502.766937,416.927673 483.790039,425.149109 
	C475.335327,428.811981 471.837830,436.505829 475.098206,444.112823 
	C478.224640,451.407410 486.358093,454.472595 494.459930,450.953400 
	C541.586792,430.483063 583.182434,402.482788 614.933289,361.368988 
	C636.736877,333.135742 651.162659,301.477966 657.981689,265.971252 
M520.001282,365.576172 
	C538.424805,353.720306 555.227905,340.006042 568.795105,322.648254 
	C573.871399,316.153564 573.193298,307.864594 567.457275,302.959015 
	C561.440918,297.813660 552.588867,298.197540 547.441650,304.630371 
	C534.809082,320.418335 519.350464,332.773163 502.580048,343.822693 
	C499.531036,345.831573 497.203949,350.130249 496.233429,353.816711 
	C494.814789,359.205261 497.381866,364.001160 502.144562,367.020599 
	C508.017670,370.743988 513.831970,369.791840 520.001282,365.576172 
M475.835083,361.402130 
	C472.474243,362.031219 468.922729,362.171631 465.793030,363.393036 
	C459.624634,365.800293 453.712494,368.857086 447.653656,371.553741 
	C439.231689,375.302185 435.754425,382.856537 439.033173,390.481903 
	C442.169006,397.774750 450.089478,400.696777 458.280884,397.266907 
	C465.160248,394.386414 471.914642,391.200684 478.673157,388.040558 
	C484.766846,385.191345 487.832031,380.265686 487.433960,374.317078 
	C487.017242,368.090057 483.376556,363.844238 475.835083,361.402130 
z"/>
<path fill="#FBFCFC" opacity="1.000000" stroke="none" 
	d="
M519.676758,365.761719 
	C513.831970,369.791840 508.017670,370.743988 502.144562,367.020599 
	C497.381866,364.001160 494.814789,359.205261 496.233429,353.816711 
	C497.203949,350.130249 499.531036,345.831573 502.580048,343.822693 
	C519.350464,332.773163 534.809082,320.418335 547.441650,304.630371 
	C552.588867,298.197540 561.440918,297.813660 567.457275,302.959015 
	C573.193298,307.864594 573.871399,316.153564 568.795105,322.648254 
	C555.227905,340.006042 538.424805,353.720306 519.676758,365.761719 
z"/>
<path fill="#FAFBFC" opacity="1.000000" stroke="none" 
	d="
M476.213074,361.536957 
	C483.376556,363.844238 487.017242,368.090057 487.433960,374.317078 
	C487.832031,380.265686 484.766846,385.191345 478.673157,388.040558 
	C471.914642,391.200684 465.160248,394.386414 458.280884,397.266907 
	C450.089478,400.696777 442.169006,397.774750 439.033173,390.481903 
	C435.754425,382.856537 439.231689,375.302185 447.653656,371.553741 
	C453.712494,368.857086 459.624634,365.800293 465.793030,363.393036 
	C468.922729,362.171631 472.474243,362.031219 476.213074,361.536957 
z"/>
</svg>